solid OpenSCAD_Model
  facet normal -1.08467e-08 -1 -2.76151e-08
    outer loop
      vertex -4.76472 -0.749999 -17.519
      vertex 22.4829 -0.75 6.31315
      vertex -30.5478 -0.75 27.1426
    endloop
  endfacet
  facet normal 0 -1 0
    outer loop
      vertex 19.7189 -0.75 26.2234
      vertex -30.5478 -0.75 29.1865
      vertex -19.7189 -0.75 26.2234
    endloop
  endfacet
  facet normal 0 -1 0
    outer loop
      vertex -30.5478 -0.75 29.1865
      vertex 19.7189 -0.75 26.2234
      vertex 19.9058 -0.75 26.247
    endloop
  endfacet
  facet normal 0 -1 0
    outer loop
      vertex -19.5365 -0.75 26.1766
      vertex 19.7189 -0.75 26.2234
      vertex -19.7189 -0.75 26.2234
    endloop
  endfacet
  facet normal 0 -1 0
    outer loop
      vertex -19.5365 -0.75 26.1766
      vertex 19.5365 -0.75 26.1766
      vertex 19.7189 -0.75 26.2234
    endloop
  endfacet
  facet normal 0 -1 0
    outer loop
      vertex -19.3613 -0.75 26.1072
      vertex 19.5365 -0.75 26.1766
      vertex -19.5365 -0.75 26.1766
    endloop
  endfacet
  facet normal 0 -1 0
    outer loop
      vertex -19.3613 -0.75 26.1072
      vertex 19.3613 -0.75 26.1072
      vertex 19.5365 -0.75 26.1766
    endloop
  endfacet
  facet normal 0 -1 0
    outer loop
      vertex -19.1963 -0.75 26.0165
      vertex 19.3613 -0.75 26.1072
      vertex -19.3613 -0.75 26.1072
    endloop
  endfacet
  facet normal 0 -1 0
    outer loop
      vertex -19.1963 -0.75 26.0165
      vertex 19.1963 -0.75 26.0165
      vertex 19.3613 -0.75 26.1072
    endloop
  endfacet
  facet normal 0 -1 0
    outer loop
      vertex -19.0439 -0.75 25.9058
      vertex 19.1963 -0.75 26.0165
      vertex -19.1963 -0.75 26.0165
    endloop
  endfacet
  facet normal 0 -1 0
    outer loop
      vertex -19.0439 -0.75 25.9058
      vertex 19.0439 -0.75 25.9058
      vertex 19.1963 -0.75 26.0165
    endloop
  endfacet
  facet normal 0 -1 0
    outer loop
      vertex -18.9065 -0.75 25.7768
      vertex 19.0439 -0.75 25.9058
      vertex -19.0439 -0.75 25.9058
    endloop
  endfacet
  facet normal 0 -1 0
    outer loop
      vertex -18.9065 -0.75 25.7768
      vertex 18.9065 -0.75 25.7768
      vertex 19.0439 -0.75 25.9058
    endloop
  endfacet
  facet normal 0 -1 0
    outer loop
      vertex -18.7865 -0.75 25.6317
      vertex 18.9065 -0.75 25.7768
      vertex -18.9065 -0.75 25.7768
    endloop
  endfacet
  facet normal 0 -1 0
    outer loop
      vertex -18.7865 -0.75 25.6317
      vertex 18.7865 -0.75 25.6317
      vertex 18.9065 -0.75 25.7768
    endloop
  endfacet
  facet normal 0 -1 0
    outer loop
      vertex -18.6855 -0.75 25.4726
      vertex 18.7865 -0.75 25.6317
      vertex -18.7865 -0.75 25.6317
    endloop
  endfacet
  facet normal 0 -1 0
    outer loop
      vertex -18.6855 -0.75 25.4726
      vertex 18.6855 -0.75 25.4726
      vertex 18.7865 -0.75 25.6317
    endloop
  endfacet
  facet normal 0 -1 0
    outer loop
      vertex -18.6053 -0.75 25.3022
      vertex 18.6855 -0.75 25.4726
      vertex -18.6855 -0.75 25.4726
    endloop
  endfacet
  facet normal 0 -1 0
    outer loop
      vertex -18.6053 -0.75 25.3022
      vertex 18.6053 -0.75 25.3022
      vertex 18.6855 -0.75 25.4726
    endloop
  endfacet
  facet normal 0 -1 0
    outer loop
      vertex -18.5471 -0.75 25.123
      vertex 18.6053 -0.75 25.3022
      vertex -18.6053 -0.75 25.3022
    endloop
  endfacet
  facet normal 0 -1 0
    outer loop
      vertex -18.5471 -0.75 25.123
      vertex 18.5471 -0.75 25.123
      vertex 18.6053 -0.75 25.3022
    endloop
  endfacet
  facet normal 0 -1 0
    outer loop
      vertex -18.5118 -0.75 24.938
      vertex 18.5471 -0.75 25.123
      vertex -18.5471 -0.75 25.123
    endloop
  endfacet
  facet normal 0 -1 0
    outer loop
      vertex -18.5118 -0.75 24.938
      vertex 18.5118 -0.75 24.938
      vertex 18.5471 -0.75 25.123
    endloop
  endfacet
  facet normal 0 -1 0
    outer loop
      vertex -18.5 -0.75 24.75
      vertex 18.5118 -0.75 24.938
      vertex -18.5118 -0.75 24.938
    endloop
  endfacet
  facet normal 0 -1 0
    outer loop
      vertex -18.5 -0.75 24.75
      vertex 18.5 -0.75 24.75
      vertex 18.5118 -0.75 24.938
    endloop
  endfacet
  facet normal 0 -1 0
    outer loop
      vertex -18.5118 -0.75 24.562
      vertex 18.5 -0.75 24.75
      vertex -18.5 -0.75 24.75
    endloop
  endfacet
  facet normal 0 -1 0
    outer loop
      vertex -18.5118 -0.75 24.562
      vertex 18.5118 -0.75 24.562
      vertex 18.5 -0.75 24.75
    endloop
  endfacet
  facet normal 0 -1 0
    outer loop
      vertex -18.5471 -0.75 24.377
      vertex 18.5118 -0.75 24.562
      vertex -18.5118 -0.75 24.562
    endloop
  endfacet
  facet normal 0 -1 0
    outer loop
      vertex -18.5471 -0.75 24.377
      vertex 18.5471 -0.75 24.377
      vertex 18.5118 -0.75 24.562
    endloop
  endfacet
  facet normal 0 -1 0
    outer loop
      vertex -18.6053 -0.75 24.1978
      vertex 18.5471 -0.75 24.377
      vertex -18.5471 -0.75 24.377
    endloop
  endfacet
  facet normal 0 -1 0
    outer loop
      vertex -18.6053 -0.75 24.1978
      vertex 18.6053 -0.75 24.1978
      vertex 18.5471 -0.75 24.377
    endloop
  endfacet
  facet normal 0 -1 0
    outer loop
      vertex -18.6855 -0.75 24.0274
      vertex 18.6053 -0.75 24.1978
      vertex -18.6053 -0.75 24.1978
    endloop
  endfacet
  facet normal 0 -1 0
    outer loop
      vertex -18.6855 -0.75 24.0274
      vertex 18.6855 -0.75 24.0274
      vertex 18.6053 -0.75 24.1978
    endloop
  endfacet
  facet normal 0 -1 0
    outer loop
      vertex -18.7865 -0.75 23.8683
      vertex 18.6855 -0.75 24.0274
      vertex -18.6855 -0.75 24.0274
    endloop
  endfacet
  facet normal 0 -1 0
    outer loop
      vertex -18.7865 -0.75 23.8683
      vertex 18.7865 -0.75 23.8683
      vertex 18.6855 -0.75 24.0274
    endloop
  endfacet
  facet normal 0 -1 0
    outer loop
      vertex 22.4829 -0.75 6.31315
      vertex -18.7865 -0.75 23.8683
      vertex -18.9065 -0.75 23.7232
    endloop
  endfacet
  facet normal 0 -1 0
    outer loop
      vertex -18.7865 -0.75 23.8683
      vertex 22.4829 -0.75 6.31315
      vertex 18.7865 -0.75 23.8683
    endloop
  endfacet
  facet normal 0 -1 0
    outer loop
      vertex 22.4829 -0.75 6.31315
      vertex -18.9065 -0.75 23.7232
      vertex -19.0439 -0.75 23.5942
    endloop
  endfacet
  facet normal 0 -1 0
    outer loop
      vertex 18.7865 -0.75 23.8683
      vertex 22.4829 -0.75 6.31315
      vertex 18.9065 -0.75 23.7232
    endloop
  endfacet
  facet normal 0 -1 0
    outer loop
      vertex 22.4829 -0.75 6.31315
      vertex -19.0439 -0.75 23.5942
      vertex -19.1963 -0.75 23.4835
    endloop
  endfacet
  facet normal 0 -1 0
    outer loop
      vertex 18.9065 -0.75 23.7232
      vertex 22.4829 -0.75 6.31315
      vertex 19.0439 -0.75 23.5942
    endloop
  endfacet
  facet normal 0 -1 0
    outer loop
      vertex 22.4829 -0.75 6.31315
      vertex -19.1963 -0.75 23.4835
      vertex -19.3613 -0.75 23.3928
    endloop
  endfacet
  facet normal 0 -1 0
    outer loop
      vertex 19.0439 -0.75 23.5942
      vertex 22.4829 -0.75 6.31315
      vertex 19.1963 -0.75 23.4835
    endloop
  endfacet
  facet normal 0 -1 0
    outer loop
      vertex 22.4829 -0.75 6.31315
      vertex -19.3613 -0.75 23.3928
      vertex -19.5365 -0.75 23.3234
    endloop
  endfacet
  facet normal 0 -1 0
    outer loop
      vertex 19.1963 -0.75 23.4835
      vertex 22.4829 -0.75 6.31315
      vertex 19.3613 -0.75 23.3928
    endloop
  endfacet
  facet normal 0 -1 0
    outer loop
      vertex 22.4829 -0.75 6.31315
      vertex -19.5365 -0.75 23.3234
      vertex -19.7189 -0.75 23.2766
    endloop
  endfacet
  facet normal 0 -1 0
    outer loop
      vertex 19.3613 -0.75 23.3928
      vertex 22.4829 -0.75 6.31315
      vertex 19.5365 -0.75 23.3234
    endloop
  endfacet
  facet normal 0 -1 0
    outer loop
      vertex 22.4829 -0.75 6.31315
      vertex -19.7189 -0.75 23.2766
      vertex -19.9058 -0.75 23.253
    endloop
  endfacet
  facet normal 0 -1 0
    outer loop
      vertex 19.5365 -0.75 23.3234
      vertex 22.4829 -0.75 6.31315
      vertex 19.7189 -0.75 23.2766
    endloop
  endfacet
  facet normal 0 -1 0
    outer loop
      vertex -21.3145 -0.75 25.4726
      vertex -30.5478 -0.75 29.1865
      vertex -30.5478 -0.75 27.1426
    endloop
  endfacet
  facet normal 0 -1 0
    outer loop
      vertex -30.5478 -0.75 29.1865
      vertex 19.9058 -0.75 26.247
      vertex 46.2652 -0.75 29.1865
    endloop
  endfacet
  facet normal 0 -1 0
    outer loop
      vertex -30.5478 -0.75 29.1865
      vertex -20.0942 -0.75 26.247
      vertex -19.9058 -0.75 26.247
    endloop
  endfacet
  facet normal 0 -1 0
    outer loop
      vertex -30.5478 -0.75 29.1865
      vertex -20.2811 -0.75 26.2234
      vertex -20.0942 -0.75 26.247
    endloop
  endfacet
  facet normal 0 -1 0
    outer loop
      vertex -30.5478 -0.75 29.1865
      vertex -20.4635 -0.75 26.1766
      vertex -20.2811 -0.75 26.2234
    endloop
  endfacet
  facet normal 0 -1 0
    outer loop
      vertex -30.5478 -0.75 29.1865
      vertex -20.6387 -0.75 26.1072
      vertex -20.4635 -0.75 26.1766
    endloop
  endfacet
  facet normal 0 -1 0
    outer loop
      vertex -30.5478 -0.75 29.1865
      vertex -20.8037 -0.75 26.0165
      vertex -20.6387 -0.75 26.1072
    endloop
  endfacet
  facet normal 0 -1 0
    outer loop
      vertex -30.5478 -0.75 29.1865
      vertex -20.9561 -0.75 25.9058
      vertex -20.8037 -0.75 26.0165
    endloop
  endfacet
  facet normal 0 -1 0
    outer loop
      vertex -30.5478 -0.75 29.1865
      vertex -21.0935 -0.75 25.7768
      vertex -20.9561 -0.75 25.9058
    endloop
  endfacet
  facet normal 0 -1 0
    outer loop
      vertex -30.5478 -0.75 29.1865
      vertex -21.2135 -0.75 25.6317
      vertex -21.0935 -0.75 25.7768
    endloop
  endfacet
  facet normal 0 -1 0
    outer loop
      vertex -30.5478 -0.75 29.1865
      vertex -21.3145 -0.75 25.4726
      vertex -21.2135 -0.75 25.6317
    endloop
  endfacet
  facet normal 0 -1 0
    outer loop
      vertex -30.5478 -0.75 27.1426
      vertex -21.3947 -0.75 25.3022
      vertex -21.3145 -0.75 25.4726
    endloop
  endfacet
  facet normal 0 -1 0
    outer loop
      vertex -30.5478 -0.75 27.1426
      vertex -21.4529 -0.75 25.123
      vertex -21.3947 -0.75 25.3022
    endloop
  endfacet
  facet normal 0 -1 0
    outer loop
      vertex -30.5478 -0.75 27.1426
      vertex -21.4882 -0.75 24.938
      vertex -21.4529 -0.75 25.123
    endloop
  endfacet
  facet normal 0 -1 0
    outer loop
      vertex -30.5478 -0.75 27.1426
      vertex -21.5 -0.75 24.75
      vertex -21.4882 -0.75 24.938
    endloop
  endfacet
  facet normal 0 -1 0
    outer loop
      vertex -30.5478 -0.75 27.1426
      vertex -21.4882 -0.75 24.562
      vertex -21.5 -0.75 24.75
    endloop
  endfacet
  facet normal 0 -1 0
    outer loop
      vertex -30.5478 -0.75 27.1426
      vertex -21.4529 -0.75 24.377
      vertex -21.4882 -0.75 24.562
    endloop
  endfacet
  facet normal 0 -1 0
    outer loop
      vertex -30.5478 -0.75 27.1426
      vertex -21.3947 -0.75 24.1978
      vertex -21.4529 -0.75 24.377
    endloop
  endfacet
  facet normal 0 -1 0
    outer loop
      vertex -30.5478 -0.75 27.1426
      vertex -21.3145 -0.75 24.0274
      vertex -21.3947 -0.75 24.1978
    endloop
  endfacet
  facet normal 0 -1 0
    outer loop
      vertex -30.5478 -0.75 27.1426
      vertex -21.2135 -0.75 23.8683
      vertex -21.3145 -0.75 24.0274
    endloop
  endfacet
  facet normal 0 -1 0
    outer loop
      vertex -30.5478 -0.75 27.1426
      vertex -21.0935 -0.75 23.7232
      vertex -21.2135 -0.75 23.8683
    endloop
  endfacet
  facet normal 0 -1 0
    outer loop
      vertex -30.5478 -0.75 27.1426
      vertex -20.9561 -0.75 23.5942
      vertex -21.0935 -0.75 23.7232
    endloop
  endfacet
  facet normal 0 -1 0
    outer loop
      vertex -30.5478 -0.75 27.1426
      vertex -20.8037 -0.75 23.4835
      vertex -20.9561 -0.75 23.5942
    endloop
  endfacet
  facet normal 0 -1 0
    outer loop
      vertex -30.5478 -0.75 27.1426
      vertex -20.6387 -0.75 23.3928
      vertex -20.8037 -0.75 23.4835
    endloop
  endfacet
  facet normal 0 -1 0
    outer loop
      vertex -30.5478 -0.75 27.1426
      vertex -20.4635 -0.75 23.3234
      vertex -20.6387 -0.75 23.3928
    endloop
  endfacet
  facet normal 0 -1 0
    outer loop
      vertex 22.4829 -0.75 6.31315
      vertex -19.9058 -0.75 23.253
      vertex -20.0942 -0.75 23.253
    endloop
  endfacet
  facet normal 0 -1 0
    outer loop
      vertex 19.7189 -0.75 23.2766
      vertex 22.4829 -0.75 6.31315
      vertex 19.9058 -0.75 23.253
    endloop
  endfacet
  facet normal 0 -1 0
    outer loop
      vertex 19.9058 -0.75 23.253
      vertex 22.4829 -0.75 6.31315
      vertex 20.0942 -0.75 23.253
    endloop
  endfacet
  facet normal 0 -1 0
    outer loop
      vertex -20.2811 -0.75 23.2766
      vertex 22.4829 -0.75 6.31315
      vertex -20.0942 -0.75 23.253
    endloop
  endfacet
  facet normal 0 -1 0
    outer loop
      vertex -20.4635 -0.75 23.3234
      vertex 22.4829 -0.75 6.31315
      vertex -20.2811 -0.75 23.2766
    endloop
  endfacet
  facet normal 0 -1 0
    outer loop
      vertex 22.4829 -0.75 6.31315
      vertex -20.4635 -0.75 23.3234
      vertex -30.5478 -0.75 27.1426
    endloop
  endfacet
  facet normal 0 -1 0
    outer loop
      vertex -19.7189 -0.75 26.2234
      vertex -30.5478 -0.75 29.1865
      vertex -19.9058 -0.75 26.247
    endloop
  endfacet
  facet normal 0 -1 0
    outer loop
      vertex 20.0942 -0.75 26.247
      vertex 46.2652 -0.75 29.1865
      vertex 19.9058 -0.75 26.247
    endloop
  endfacet
  facet normal 0 -1 0
    outer loop
      vertex 20.2811 -0.75 26.2234
      vertex 46.2652 -0.75 29.1865
      vertex 20.0942 -0.75 26.247
    endloop
  endfacet
  facet normal 0 -1 0
    outer loop
      vertex 20.4635 -0.75 26.1766
      vertex 46.2652 -0.75 29.1865
      vertex 20.2811 -0.75 26.2234
    endloop
  endfacet
  facet normal 0 -1 0
    outer loop
      vertex 20.6387 -0.75 26.1072
      vertex 46.2652 -0.75 29.1865
      vertex 20.4635 -0.75 26.1766
    endloop
  endfacet
  facet normal 0 -1 0
    outer loop
      vertex 20.8037 -0.75 26.0165
      vertex 46.2652 -0.75 29.1865
      vertex 20.6387 -0.75 26.1072
    endloop
  endfacet
  facet normal 0 -1 0
    outer loop
      vertex 20.9561 -0.75 25.9058
      vertex 46.2652 -0.75 29.1865
      vertex 20.8037 -0.75 26.0165
    endloop
  endfacet
  facet normal 0 -1 0
    outer loop
      vertex 21.0935 -0.75 25.7768
      vertex 46.2652 -0.75 29.1865
      vertex 20.9561 -0.75 25.9058
    endloop
  endfacet
  facet normal 0 -1 0
    outer loop
      vertex 21.2135 -0.75 25.6317
      vertex 46.2652 -0.75 29.1865
      vertex 21.0935 -0.75 25.7768
    endloop
  endfacet
  facet normal 0 -1 0
    outer loop
      vertex 21.3145 -0.75 25.4726
      vertex 46.2652 -0.75 29.1865
      vertex 21.2135 -0.75 25.6317
    endloop
  endfacet
  facet normal 0 -1 0
    outer loop
      vertex 21.3947 -0.75 25.3022
      vertex 46.2652 -0.75 29.1865
      vertex 21.3145 -0.75 25.4726
    endloop
  endfacet
  facet normal 0 -1 0
    outer loop
      vertex 21.4529 -0.75 25.123
      vertex 46.2652 -0.75 29.1865
      vertex 21.3947 -0.75 25.3022
    endloop
  endfacet
  facet normal 0 -1 -0
    outer loop
      vertex 46.2652 -0.75 29.1865
      vertex 21.4529 -0.75 25.123
      vertex 46.2652 -0.75 27.1383
    endloop
  endfacet
  facet normal 0 -1 0
    outer loop
      vertex 21.4882 -0.75 24.938
      vertex 46.2652 -0.75 27.1383
      vertex 21.4529 -0.75 25.123
    endloop
  endfacet
  facet normal 0 -1 0
    outer loop
      vertex 21.5 -0.75 24.75
      vertex 46.2652 -0.75 27.1383
      vertex 21.4882 -0.75 24.938
    endloop
  endfacet
  facet normal 0 -1 0
    outer loop
      vertex 21.4882 -0.75 24.562
      vertex 46.2652 -0.75 27.1383
      vertex 21.5 -0.75 24.75
    endloop
  endfacet
  facet normal 0 -1 0
    outer loop
      vertex 21.4529 -0.75 24.377
      vertex 46.2652 -0.75 27.1383
      vertex 21.4882 -0.75 24.562
    endloop
  endfacet
  facet normal 0 -1 0
    outer loop
      vertex 21.3947 -0.75 24.1978
      vertex 46.2652 -0.75 27.1383
      vertex 21.4529 -0.75 24.377
    endloop
  endfacet
  facet normal 0 -1 0
    outer loop
      vertex 21.3145 -0.75 24.0274
      vertex 46.2652 -0.75 27.1383
      vertex 21.3947 -0.75 24.1978
    endloop
  endfacet
  facet normal 0 -1 0
    outer loop
      vertex 22.4829 -0.75 6.31315
      vertex 21.3145 -0.75 24.0274
      vertex 21.2135 -0.75 23.8683
    endloop
  endfacet
  facet normal 0 -1 0
    outer loop
      vertex 22.4829 -0.75 6.31315
      vertex 21.2135 -0.75 23.8683
      vertex 21.0935 -0.75 23.7232
    endloop
  endfacet
  facet normal 0 -1 0
    outer loop
      vertex 22.4829 -0.75 6.31315
      vertex 21.0935 -0.75 23.7232
      vertex 20.9561 -0.75 23.5942
    endloop
  endfacet
  facet normal 0 -1 0
    outer loop
      vertex 22.4829 -0.75 6.31315
      vertex 20.9561 -0.75 23.5942
      vertex 20.8037 -0.75 23.4835
    endloop
  endfacet
  facet normal 0 -1 0
    outer loop
      vertex 22.4829 -0.75 6.31315
      vertex 20.8037 -0.75 23.4835
      vertex 20.6387 -0.75 23.3928
    endloop
  endfacet
  facet normal 0 -1 0
    outer loop
      vertex 22.4829 -0.75 6.31315
      vertex 20.6387 -0.75 23.3928
      vertex 20.4635 -0.75 23.3234
    endloop
  endfacet
  facet normal 0 -1 0
    outer loop
      vertex 22.4829 -0.75 6.31315
      vertex 20.4635 -0.75 23.3234
      vertex 20.2811 -0.75 23.2766
    endloop
  endfacet
  facet normal 0 -1 0
    outer loop
      vertex 21.3145 -0.75 24.0274
      vertex 22.4829 -0.75 6.31315
      vertex 46.2652 -0.75 27.1383
    endloop
  endfacet
  facet normal 0 -1 0
    outer loop
      vertex 22.4829 -0.75 6.31315
      vertex 20.2811 -0.75 23.2766
      vertex 20.0942 -0.75 23.253
    endloop
  endfacet
  facet normal 7.89927e-09 -1 -1.67931e-08
    outer loop
      vertex -4.76472 -0.749999 -17.519
      vertex -30.5478 -0.75 27.1426
      vertex -30.816 -0.75 27.0165
    endloop
  endfacet
  facet normal 0 -1 0
    outer loop
      vertex -46.2439 -0.75 14.702
      vertex -39.0459 -0.75 23.5703
      vertex -43.2218 -0.75 21.7989
    endloop
  endfacet
  facet normal 0 -1 0
    outer loop
      vertex -45.0013 -0.75 20.3093
      vertex -43.2218 -0.75 21.7989
      vertex -44.1735 -0.75 21.1672
    endloop
  endfacet
  facet normal 0 -1 0
    outer loop
      vertex -43.2218 -0.75 21.7989
      vertex -45.0013 -0.75 20.3093
      vertex -46.1989 -0.75 17.3724
    endloop
  endfacet
  facet normal 0 -1 0
    outer loop
      vertex -46.1989 -0.75 17.3724
      vertex -45.0013 -0.75 20.3093
      vertex -45.6625 -0.75 19.2791
    endloop
  endfacet
  facet normal 0 -1 0
    outer loop
      vertex -46.1989 -0.75 17.3724
      vertex -45.6625 -0.75 19.2791
      vertex -46.1148 -0.75 18.1307
    endloop
  endfacet
  facet normal 0 -1 0
    outer loop
      vertex -43.2218 -0.75 21.7989
      vertex -46.1989 -0.75 17.3724
      vertex -46.2439 -0.75 14.702
    endloop
  endfacet
  facet normal 0 -1 -0
    outer loop
      vertex -39.0459 -0.75 23.5703
      vertex -46.2439 -0.75 14.702
      vertex -30.816 -0.75 27.0165
    endloop
  endfacet
  facet normal 4.21797e-08 -1 -5.28437e-08
    outer loop
      vertex -30.816 -0.75 27.0165
      vertex -46.2439 -0.75 14.702
      vertex -46.2652 -0.749999 -3.36212
    endloop
  endfacet
  facet normal -9.12578e-09 -1 -2.6752e-08
    outer loop
      vertex -4.76472 -0.749999 -17.519
      vertex -30.816 -0.75 27.0165
      vertex -46.2652 -0.749999 -3.36212
    endloop
  endfacet
  facet normal 0 -1 0
    outer loop
      vertex -30.4241 -0.749999 -29.1865
      vertex -46.2652 -0.749999 -3.36212
      vertex -46.2439 -0.749999 -21.4262
    endloop
  endfacet
  facet normal 0 -1 0
    outer loop
      vertex -39.8763 -0.749999 -29.1646
      vertex -46.2439 -0.749999 -21.4262
      vertex -46.199 -0.749999 -24.0967
    endloop
  endfacet
  facet normal 0 -1 0
    outer loop
      vertex -46.2652 -0.749999 -3.36212
      vertex -12.341 -0.749999 -24.1137
      vertex -4.76472 -0.749999 -17.519
    endloop
  endfacet
  facet normal 0 -1 0
    outer loop
      vertex -45.8533 -0.749999 -25.6057
      vertex -46.199 -0.749999 -24.0967
      vertex -46.1148 -0.749999 -24.8549
    endloop
  endfacet
  facet normal 0 -1 0
    outer loop
      vertex -45.5078 -0.749999 -26.3008
      vertex -46.199 -0.749999 -24.0967
      vertex -45.8533 -0.749999 -25.6057
    endloop
  endfacet
  facet normal 0 -1 0
    outer loop
      vertex -45.0829 -0.749999 -26.9354
      vertex -46.199 -0.749999 -24.0967
      vertex -45.5078 -0.749999 -26.3008
    endloop
  endfacet
  facet normal 0 -1 0
    outer loop
      vertex -46.199 -0.749999 -24.0967
      vertex -45.0829 -0.749999 -26.9354
      vertex -39.8763 -0.749999 -29.1646
    endloop
  endfacet
  facet normal 0 -1 0
    outer loop
      vertex -39.8763 -0.749999 -29.1646
      vertex -45.0829 -0.749999 -26.9354
      vertex -44.5835 -0.749999 -27.5047
    endloop
  endfacet
  facet normal -0 -1 0
    outer loop
      vertex -23.4615 -0.749999 -29.1833
      vertex -46.2652 -0.749999 -3.36212
      vertex -30.4241 -0.749999 -29.1865
    endloop
  endfacet
  facet normal 0 -1 0
    outer loop
      vertex -41.3793 -0.749999 -29.1195
      vertex -44.5835 -0.749999 -27.5047
      vertex -44.0141 -0.749999 -28.0042
    endloop
  endfacet
  facet normal 0 -1 0
    outer loop
      vertex -46.2652 -0.749999 -3.36212
      vertex -23.4615 -0.749999 -29.1833
      vertex -12.341 -0.749999 -24.1137
    endloop
  endfacet
  facet normal 0 -1 0
    outer loop
      vertex -41.3793 -0.749999 -29.1195
      vertex -44.0141 -0.749999 -28.0042
      vertex -43.3795 -0.749999 -28.429
    endloop
  endfacet
  facet normal 0 -1 0
    outer loop
      vertex -12.341 -0.749999 -24.1137
      vertex -23.4615 -0.749999 -29.1833
      vertex -16.6367 -0.749999 -27.8316
    endloop
  endfacet
  facet normal 0 -1 0
    outer loop
      vertex -41.3793 -0.749999 -29.1195
      vertex -43.3795 -0.749999 -28.429
      vertex -42.6845 -0.749999 -28.7746
    endloop
  endfacet
  facet normal -0 -1 0
    outer loop
      vertex -19.9977 -0.749999 -29.1297
      vertex -16.6367 -0.749999 -27.8316
      vertex -23.4615 -0.749999 -29.1833
    endloop
  endfacet
  facet normal 0 -1 0
    outer loop
      vertex -41.3793 -0.749999 -29.1195
      vertex -42.6845 -0.749999 -28.7746
      vertex -41.9336 -0.749999 -29.0361
    endloop
  endfacet
  facet normal -0 -1 0
    outer loop
      vertex -17.8007 -0.749999 -28.6055
      vertex -16.6367 -0.749999 -27.8316
      vertex -19.9977 -0.749999 -29.1297
    endloop
  endfacet
  facet normal 0 -1 0
    outer loop
      vertex -44.5835 -0.749999 -27.5047
      vertex -41.3793 -0.749999 -29.1195
      vertex -39.8763 -0.749999 -29.1646
    endloop
  endfacet
  facet normal 0 -1 0
    outer loop
      vertex -16.6367 -0.749999 -27.8316
      vertex -17.8007 -0.749999 -28.6055
      vertex -17.3306 -0.749999 -28.3565
    endloop
  endfacet
  facet normal 0 -1 0
    outer loop
      vertex -46.2439 -0.749999 -21.4262
      vertex -39.8763 -0.749999 -29.1646
      vertex -30.4241 -0.749999 -29.1865
    endloop
  endfacet
  facet normal -0 -1 0
    outer loop
      vertex -19.1275 -0.749999 -29.0632
      vertex -17.8007 -0.749999 -28.6055
      vertex -19.9977 -0.749999 -29.1297
    endloop
  endfacet
  facet normal 0 -1 0
    outer loop
      vertex -17.8007 -0.749999 -28.6055
      vertex -19.1275 -0.749999 -29.0632
      vertex -18.5913 -0.749999 -28.9592
    endloop
  endfacet
  facet normal 1.08467e-08 1 2.76151e-08
    outer loop
      vertex -4.76472 0.75 -17.519
      vertex -14.909 0.749999 21
      vertex 22.4829 0.749999 6.31315
    endloop
  endfacet
  facet normal 9.85799e-09 1 2.73547e-08
    outer loop
      vertex -14.909 0.749999 21
      vertex -4.76472 0.75 -17.519
      vertex -27.0017 0.749999 21
    endloop
  endfacet
  facet normal 0 1 0
    outer loop
      vertex 39.2553 0.749999 21
      vertex 22.4829 0.749999 6.31315
      vertex -14.909 0.749999 21
    endloop
  endfacet
  facet normal 0 1 2.16637e-08
    outer loop
      vertex -27.0017 0.749999 21
      vertex -4.76472 0.75 -17.519
      vertex -27.2966 0.749999 21
    endloop
  endfacet
  facet normal 0 1 -0
    outer loop
      vertex -31 0.749999 26.8696
      vertex -39.0459 0.749999 23.5703
      vertex -31 0.749999 26.9394
    endloop
  endfacet
  facet normal 0 1 0
    outer loop
      vertex -46.2439 0.749999 14.702
      vertex -39.0459 0.749999 23.5703
      vertex -31 0.749999 26.8696
    endloop
  endfacet
  facet normal 0 1 0
    outer loop
      vertex -39.0459 0.749999 23.5703
      vertex -46.2439 0.749999 14.702
      vertex -43.2218 0.749999 21.7989
    endloop
  endfacet
  facet normal -0 1 0
    outer loop
      vertex -46.1989 0.749999 17.3724
      vertex -43.2218 0.749999 21.7989
      vertex -46.2439 0.749999 14.702
    endloop
  endfacet
  facet normal -0 1 0
    outer loop
      vertex -45.0013 0.749999 20.3093
      vertex -43.2218 0.749999 21.7989
      vertex -46.1989 0.749999 17.3724
    endloop
  endfacet
  facet normal 0 1 0
    outer loop
      vertex -43.2218 0.749999 21.7989
      vertex -45.0013 0.749999 20.3093
      vertex -44.1735 0.749999 21.1672
    endloop
  endfacet
  facet normal 0 1 0
    outer loop
      vertex -45.6625 0.749999 19.2791
      vertex -46.1989 0.749999 17.3724
      vertex -46.1148 0.749999 18.1307
    endloop
  endfacet
  facet normal 0 1 0
    outer loop
      vertex -45.0013 0.749999 20.3093
      vertex -46.1989 0.749999 17.3724
      vertex -45.6625 0.749999 19.2791
    endloop
  endfacet
  facet normal 0 1 -0
    outer loop
      vertex -31 0.749999 26.6546
      vertex -46.2439 0.749999 14.702
      vertex -31 0.749999 26.8696
    endloop
  endfacet
  facet normal -4.14338e-08 1 5.28428e-08
    outer loop
      vertex -46.2439 0.749999 14.702
      vertex -31 0.749999 26.6546
      vertex -46.2652 0.75 -3.36212
    endloop
  endfacet
  facet normal 1.60945e-08 1 2.17212e-08
    outer loop
      vertex -27.2966 0.749999 21
      vertex -46.2652 0.75 -3.36212
      vertex -31 0.749999 21
    endloop
  endfacet
  facet normal 9.23228e-09 1 2.70642e-08
    outer loop
      vertex -46.2652 0.75 -3.36212
      vertex -27.2966 0.749999 21
      vertex -4.76472 0.75 -17.519
    endloop
  endfacet
  facet normal 2.92742e-10 1 3.16225e-08
    outer loop
      vertex -31 0.749999 26.6546
      vertex -31 0.749999 21
      vertex -46.2652 0.75 -3.36212
    endloop
  endfacet
  facet normal 0 1 -0
    outer loop
      vertex -12.341 0.75 -24.1137
      vertex -46.2652 0.75 -3.36212
      vertex -4.76472 0.75 -17.519
    endloop
  endfacet
  facet normal 0 1 -0
    outer loop
      vertex -23.4615 0.75 -29.1833
      vertex -46.2652 0.75 -3.36212
      vertex -12.341 0.75 -24.1137
    endloop
  endfacet
  facet normal 0 1 0
    outer loop
      vertex -46.2652 0.75 -3.36212
      vertex -30.4241 0.75 -29.1865
      vertex -46.2439 0.75 -21.4262
    endloop
  endfacet
  facet normal -0 1 -0
    outer loop
      vertex -39.8763 0.75 -29.1646
      vertex -46.2439 0.75 -21.4262
      vertex -30.4241 0.75 -29.1865
    endloop
  endfacet
  facet normal 0 1 0
    outer loop
      vertex -46.2439 0.75 -21.4262
      vertex -39.8763 0.75 -29.1646
      vertex -46.199 0.75 -24.0967
    endloop
  endfacet
  facet normal -0 1 -0
    outer loop
      vertex -45.0829 0.75 -26.9354
      vertex -46.199 0.75 -24.0967
      vertex -39.8763 0.75 -29.1646
    endloop
  endfacet
  facet normal 0 1 0
    outer loop
      vertex -46.199 0.75 -24.0967
      vertex -45.8533 0.75 -25.6057
      vertex -46.1148 0.75 -24.8549
    endloop
  endfacet
  facet normal 0 1 0
    outer loop
      vertex -46.199 0.75 -24.0967
      vertex -45.5078 0.75 -26.3008
      vertex -45.8533 0.75 -25.6057
    endloop
  endfacet
  facet normal 0 1 0
    outer loop
      vertex -23.4615 0.75 -29.1833
      vertex -12.341 0.75 -24.1137
      vertex -16.6367 0.75 -27.8316
    endloop
  endfacet
  facet normal 0 1 0
    outer loop
      vertex -46.199 0.75 -24.0967
      vertex -45.0829 0.75 -26.9354
      vertex -45.5078 0.75 -26.3008
    endloop
  endfacet
  facet normal 0 1 0
    outer loop
      vertex -17.8007 0.75 -28.6055
      vertex -16.6367 0.75 -27.8316
      vertex -17.3306 0.75 -28.3565
    endloop
  endfacet
  facet normal 0 1 0
    outer loop
      vertex -45.0829 0.75 -26.9354
      vertex -39.8763 0.75 -29.1646
      vertex -44.5835 0.75 -27.5047
    endloop
  endfacet
  facet normal 0 1 0
    outer loop
      vertex -16.6367 0.75 -27.8316
      vertex -17.8007 0.75 -28.6055
      vertex -19.9977 0.75 -29.1297
    endloop
  endfacet
  facet normal -0 1 -0
    outer loop
      vertex -41.3793 0.75 -29.1195
      vertex -44.5835 0.75 -27.5047
      vertex -39.8763 0.75 -29.1646
    endloop
  endfacet
  facet normal 0 1 0
    outer loop
      vertex -19.1275 0.75 -29.0632
      vertex -17.8007 0.75 -28.6055
      vertex -18.5913 0.75 -28.9592
    endloop
  endfacet
  facet normal 0 1 0
    outer loop
      vertex -44.5835 0.75 -27.5047
      vertex -41.3793 0.75 -29.1195
      vertex -44.0141 0.75 -28.0042
    endloop
  endfacet
  facet normal 0 1 0
    outer loop
      vertex -17.8007 0.75 -28.6055
      vertex -19.1275 0.75 -29.0632
      vertex -19.9977 0.75 -29.1297
    endloop
  endfacet
  facet normal 0 1 0
    outer loop
      vertex -44.0141 0.75 -28.0042
      vertex -41.3793 0.75 -29.1195
      vertex -43.3795 0.75 -28.429
    endloop
  endfacet
  facet normal 0 1 0
    outer loop
      vertex -16.6367 0.75 -27.8316
      vertex -19.9977 0.75 -29.1297
      vertex -23.4615 0.75 -29.1833
    endloop
  endfacet
  facet normal 0 1 0
    outer loop
      vertex -43.3795 0.75 -28.429
      vertex -41.3793 0.75 -29.1195
      vertex -42.6845 0.75 -28.7746
    endloop
  endfacet
  facet normal 0 1 0
    outer loop
      vertex -46.2652 0.75 -3.36212
      vertex -23.4615 0.75 -29.1833
      vertex -30.4241 0.75 -29.1865
    endloop
  endfacet
  facet normal 0 1 0
    outer loop
      vertex -42.6845 0.75 -28.7746
      vertex -41.3793 0.75 -29.1195
      vertex -41.9336 0.75 -29.0361
    endloop
  endfacet
  facet normal 0.0154867 0 -0.99988
    outer loop
      vertex -23.4615 -0.749999 -29.1833
      vertex -19.9977 0.75 -29.1297
      vertex -19.9977 -0.749999 -29.1297
    endloop
  endfacet
  facet normal 0.0154867 0 -0.99988
    outer loop
      vertex -19.9977 0.75 -29.1297
      vertex -23.4615 -0.749999 -29.1833
      vertex -23.4615 0.75 -29.1833
    endloop
  endfacet
  facet normal 0.076189 0 -0.997093
    outer loop
      vertex -19.9977 -0.749999 -29.1297
      vertex -19.1275 0.75 -29.0632
      vertex -19.1275 -0.749999 -29.0632
    endloop
  endfacet
  facet normal 0.076189 0 -0.997093
    outer loop
      vertex -19.1275 0.75 -29.0632
      vertex -19.9977 -0.749999 -29.1297
      vertex -19.9977 0.75 -29.1297
    endloop
  endfacet
  facet normal 0.190454 0 -0.981696
    outer loop
      vertex -19.1275 -0.749999 -29.0632
      vertex -18.5913 0.75 -28.9592
      vertex -18.5913 -0.749999 -28.9592
    endloop
  endfacet
  facet normal 0.190454 0 -0.981696
    outer loop
      vertex -18.5913 0.75 -28.9592
      vertex -19.1275 -0.749999 -29.0632
      vertex -19.1275 0.75 -29.0632
    endloop
  endfacet
  facet normal 0.408366 0 -0.912818
    outer loop
      vertex -18.5913 -0.749999 -28.9592
      vertex -17.8007 0.75 -28.6055
      vertex -17.8007 -0.749999 -28.6055
    endloop
  endfacet
  facet normal 0.408366 0 -0.912818
    outer loop
      vertex -17.8007 0.75 -28.6055
      vertex -18.5913 -0.749999 -28.9592
      vertex -18.5913 0.75 -28.9592
    endloop
  endfacet
  facet normal 0.467973 0 -0.883743
    outer loop
      vertex -17.8007 -0.749999 -28.6055
      vertex -17.3306 0.75 -28.3565
      vertex -17.3306 -0.749999 -28.3565
    endloop
  endfacet
  facet normal 0.467973 0 -0.883743
    outer loop
      vertex -17.3306 0.75 -28.3565
      vertex -17.8007 -0.749999 -28.6055
      vertex -17.8007 0.75 -28.6055
    endloop
  endfacet
  facet normal 0.603321 0 -0.797498
    outer loop
      vertex -17.3306 -0.749999 -28.3565
      vertex -16.6367 0.75 -27.8316
      vertex -16.6367 -0.749999 -27.8316
    endloop
  endfacet
  facet normal 0.603321 0 -0.797498
    outer loop
      vertex -16.6367 0.75 -27.8316
      vertex -17.3306 -0.749999 -28.3565
      vertex -17.3306 0.75 -28.3565
    endloop
  endfacet
  facet normal 0.654425 0 -0.756127
    outer loop
      vertex -16.6367 -0.749999 -27.8316
      vertex -12.341 0.75 -24.1137
      vertex -12.341 -0.749999 -24.1137
    endloop
  endfacet
  facet normal 0.654425 0 -0.756127
    outer loop
      vertex -12.341 0.75 -24.1137
      vertex -16.6367 -0.749999 -27.8316
      vertex -16.6367 0.75 -27.8316
    endloop
  endfacet
  facet normal 0.656555 0 -0.754278
    outer loop
      vertex -12.341 -0.749999 -24.1137
      vertex -4.76472 0.75 -17.519
      vertex -4.76472 -0.749999 -17.519
    endloop
  endfacet
  facet normal 0.656555 0 -0.754278
    outer loop
      vertex -4.76472 0.75 -17.519
      vertex -12.341 -0.749999 -24.1137
      vertex -12.341 0.75 -24.1137
    endloop
  endfacet
  facet normal 0.658356 0 -0.752707
    outer loop
      vertex -4.76472 -0.749999 -17.519
      vertex 22.4829 0.749999 6.31315
      vertex 22.4829 -0.75 6.31315
    endloop
  endfacet
  facet normal 0.658356 0 -0.752707
    outer loop
      vertex 22.4829 0.749999 6.31315
      vertex -4.76472 -0.749999 -17.519
      vertex -4.76472 0.75 -17.519
    endloop
  endfacet
  facet normal 0.658784 0 -0.752332
    outer loop
      vertex 46.2652 -0.75 27.1383
      vertex 39.2553 0.7 21
      vertex 46.2652 0.7 27.1383
    endloop
  endfacet
  facet normal 0.658784 7.18717e-07 -0.752332
    outer loop
      vertex 22.4829 -0.75 6.31315
      vertex 39.2553 0.7 21
      vertex 46.2652 -0.75 27.1383
    endloop
  endfacet
  facet normal 0.658784 0 -0.752332
    outer loop
      vertex 22.4829 0.749999 6.31315
      vertex 39.2553 0.7 21
      vertex 22.4829 -0.75 6.31315
    endloop
  endfacet
  facet normal 0.658784 0 -0.752332
    outer loop
      vertex 39.2553 0.7 21
      vertex 22.4829 0.749999 6.31315
      vertex 39.2553 0.749999 21
    endloop
  endfacet
  facet normal 1 -0 0
    outer loop
      vertex 46.2652 -0.75 29.1865
      vertex 46.2652 0.7 27.1383
      vertex 46.2652 0.7 29.1865
    endloop
  endfacet
  facet normal 1 0 0
    outer loop
      vertex 46.2652 0.7 27.1383
      vertex 46.2652 -0.75 29.1865
      vertex 46.2652 -0.75 27.1383
    endloop
  endfacet
  facet normal -0 0 1
    outer loop
      vertex -30.5478 0.7 29.1865
      vertex 46.2652 -0.75 29.1865
      vertex 46.2652 0.7 29.1865
    endloop
  endfacet
  facet normal 0 0 1
    outer loop
      vertex 46.2652 -0.75 29.1865
      vertex -30.5478 0.7 29.1865
      vertex -30.5478 -0.75 29.1865
    endloop
  endfacet
  facet normal -1 0 0
    outer loop
      vertex -30.5478 -0.75 27.1426
      vertex -30.5478 0.7 29.1865
      vertex -30.5478 0.7 27.1426
    endloop
  endfacet
  facet normal -1 -0 0
    outer loop
      vertex -30.5478 0.7 29.1865
      vertex -30.5478 -0.75 27.1426
      vertex -30.5478 -0.75 29.1865
    endloop
  endfacet
  facet normal -0.425649 0 0.904889
    outer loop
      vertex -30.816 0.7 27.0165
      vertex -30.5478 -0.75 27.1426
      vertex -30.5478 0.7 27.1426
    endloop
  endfacet
  facet normal -0.425649 0 0.904889
    outer loop
      vertex -30.5478 -0.75 27.1426
      vertex -30.816 0.7 27.0165
      vertex -30.816 -0.75 27.0165
    endloop
  endfacet
  facet normal -0.386241 0 0.922398
    outer loop
      vertex -31 0.749999 26.9394
      vertex -39.0459 0.749999 23.5703
      vertex -31 0.7 26.9394
    endloop
  endfacet
  facet normal -0.386239 0 0.922399
    outer loop
      vertex -31 0.7 26.9394
      vertex -30.816 -0.75 27.0165
      vertex -30.816 0.7 27.0165
    endloop
  endfacet
  facet normal -0.386241 0 0.922398
    outer loop
      vertex -39.0459 -0.75 23.5703
      vertex -31 0.7 26.9394
      vertex -39.0459 0.749999 23.5703
    endloop
  endfacet
  facet normal -0.386241 -3.91242e-07 0.922398
    outer loop
      vertex -31 0.7 26.9394
      vertex -39.0459 -0.75 23.5703
      vertex -30.816 -0.75 27.0165
    endloop
  endfacet
  facet normal -0.390526 0 0.920592
    outer loop
      vertex -43.2218 0.749999 21.7989
      vertex -39.0459 -0.75 23.5703
      vertex -39.0459 0.749999 23.5703
    endloop
  endfacet
  facet normal -0.390526 0 0.920592
    outer loop
      vertex -39.0459 -0.75 23.5703
      vertex -43.2218 0.749999 21.7989
      vertex -43.2218 -0.75 21.7989
    endloop
  endfacet
  facet normal -0.553032 0 0.83316
    outer loop
      vertex -44.1735 0.749999 21.1672
      vertex -43.2218 -0.75 21.7989
      vertex -43.2218 0.749999 21.7989
    endloop
  endfacet
  facet normal -0.553032 0 0.83316
    outer loop
      vertex -43.2218 -0.75 21.7989
      vertex -44.1735 0.749999 21.1672
      vertex -44.1735 -0.75 21.1672
    endloop
  endfacet
  facet normal -0.719626 0 0.694361
    outer loop
      vertex -45.0013 -0.75 20.3093
      vertex -44.1735 0.749999 21.1672
      vertex -45.0013 0.749999 20.3093
    endloop
  endfacet
  facet normal -0.719626 0 0.694361
    outer loop
      vertex -44.1735 0.749999 21.1672
      vertex -45.0013 -0.75 20.3093
      vertex -44.1735 -0.75 21.1672
    endloop
  endfacet
  facet normal -0.841528 0 0.540213
    outer loop
      vertex -45.6625 -0.75 19.2791
      vertex -45.0013 0.749999 20.3093
      vertex -45.6625 0.749999 19.2791
    endloop
  endfacet
  facet normal -0.841528 0 0.540213
    outer loop
      vertex -45.0013 0.749999 20.3093
      vertex -45.6625 -0.75 19.2791
      vertex -45.0013 -0.75 20.3093
    endloop
  endfacet
  facet normal -0.930445 0 0.36643
    outer loop
      vertex -46.1148 -0.75 18.1307
      vertex -45.6625 0.749999 19.2791
      vertex -46.1148 0.749999 18.1307
    endloop
  endfacet
  facet normal -0.930445 0 0.36643
    outer loop
      vertex -45.6625 0.749999 19.2791
      vertex -46.1148 -0.75 18.1307
      vertex -45.6625 -0.75 19.2791
    endloop
  endfacet
  facet normal -0.993902 0 0.11027
    outer loop
      vertex -46.1989 -0.75 17.3724
      vertex -46.1148 0.749999 18.1307
      vertex -46.1989 0.749999 17.3724
    endloop
  endfacet
  facet normal -0.993902 0 0.11027
    outer loop
      vertex -46.1148 0.749999 18.1307
      vertex -46.1989 -0.75 17.3724
      vertex -46.1148 -0.75 18.1307
    endloop
  endfacet
  facet normal -0.999858 0 0.0168351
    outer loop
      vertex -46.2439 -0.75 14.702
      vertex -46.1989 0.749999 17.3724
      vertex -46.2439 0.749999 14.702
    endloop
  endfacet
  facet normal -0.999858 0 0.0168351
    outer loop
      vertex -46.1989 0.749999 17.3724
      vertex -46.2439 -0.75 14.702
      vertex -46.1989 -0.75 17.3724
    endloop
  endfacet
  facet normal -0.999999 0 0.00117921
    outer loop
      vertex -46.2652 -0.749999 -3.36212
      vertex -46.2439 0.749999 14.702
      vertex -46.2652 0.75 -3.36212
    endloop
  endfacet
  facet normal -0.999999 0 0.00117921
    outer loop
      vertex -46.2439 0.749999 14.702
      vertex -46.2652 -0.749999 -3.36212
      vertex -46.2439 -0.75 14.702
    endloop
  endfacet
  facet normal -0.999999 0 -0.00117899
    outer loop
      vertex -46.2439 -0.749999 -21.4262
      vertex -46.2652 0.75 -3.36212
      vertex -46.2439 0.75 -21.4262
    endloop
  endfacet
  facet normal -0.999999 -0 -0.00117899
    outer loop
      vertex -46.2652 0.75 -3.36212
      vertex -46.2439 -0.749999 -21.4262
      vertex -46.2652 -0.749999 -3.36212
    endloop
  endfacet
  facet normal -0.999858 0 -0.0168336
    outer loop
      vertex -46.199 -0.749999 -24.0967
      vertex -46.2439 0.75 -21.4262
      vertex -46.199 0.75 -24.0967
    endloop
  endfacet
  facet normal -0.999858 -0 -0.0168336
    outer loop
      vertex -46.2439 0.75 -21.4262
      vertex -46.199 -0.749999 -24.0967
      vertex -46.2439 -0.749999 -21.4262
    endloop
  endfacet
  facet normal -0.993901 0 -0.110279
    outer loop
      vertex -46.1148 -0.749999 -24.8549
      vertex -46.199 0.75 -24.0967
      vertex -46.1148 0.75 -24.8549
    endloop
  endfacet
  facet normal -0.993901 -0 -0.110279
    outer loop
      vertex -46.199 0.75 -24.0967
      vertex -46.1148 -0.749999 -24.8549
      vertex -46.199 -0.749999 -24.0967
    endloop
  endfacet
  facet normal -0.944355 0 -0.328928
    outer loop
      vertex -45.8533 -0.749999 -25.6057
      vertex -46.1148 0.75 -24.8549
      vertex -45.8533 0.75 -25.6057
    endloop
  endfacet
  facet normal -0.944355 -0 -0.328928
    outer loop
      vertex -46.1148 0.75 -24.8549
      vertex -45.8533 -0.749999 -25.6057
      vertex -46.1148 -0.749999 -24.8549
    endloop
  endfacet
  facet normal -0.895448 0 -0.445166
    outer loop
      vertex -45.5078 -0.749999 -26.3008
      vertex -45.8533 0.75 -25.6057
      vertex -45.5078 0.75 -26.3008
    endloop
  endfacet
  facet normal -0.895448 -0 -0.445166
    outer loop
      vertex -45.8533 0.75 -25.6057
      vertex -45.5078 -0.749999 -26.3008
      vertex -45.8533 -0.749999 -25.6057
    endloop
  endfacet
  facet normal -0.830953 0 -0.556343
    outer loop
      vertex -45.0829 -0.749999 -26.9354
      vertex -45.5078 0.75 -26.3008
      vertex -45.0829 0.75 -26.9354
    endloop
  endfacet
  facet normal -0.830953 -0 -0.556343
    outer loop
      vertex -45.5078 0.75 -26.3008
      vertex -45.0829 -0.749999 -26.9354
      vertex -45.5078 -0.749999 -26.3008
    endloop
  endfacet
  facet normal -0.751747 0 -0.659451
    outer loop
      vertex -44.5835 -0.749999 -27.5047
      vertex -45.0829 0.75 -26.9354
      vertex -44.5835 0.75 -27.5047
    endloop
  endfacet
  facet normal -0.751747 -0 -0.659451
    outer loop
      vertex -45.0829 0.75 -26.9354
      vertex -44.5835 -0.749999 -27.5047
      vertex -45.0829 -0.749999 -26.9354
    endloop
  endfacet
  facet normal -0.65945 0 -0.751749
    outer loop
      vertex -44.5835 -0.749999 -27.5047
      vertex -44.0141 0.75 -28.0042
      vertex -44.0141 -0.749999 -28.0042
    endloop
  endfacet
  facet normal -0.65945 0 -0.751749
    outer loop
      vertex -44.0141 0.75 -28.0042
      vertex -44.5835 -0.749999 -27.5047
      vertex -44.5835 0.75 -27.5047
    endloop
  endfacet
  facet normal -0.556347 0 -0.83095
    outer loop
      vertex -44.0141 -0.749999 -28.0042
      vertex -43.3795 0.75 -28.429
      vertex -43.3795 -0.749999 -28.429
    endloop
  endfacet
  facet normal -0.556347 0 -0.83095
    outer loop
      vertex -43.3795 0.75 -28.429
      vertex -44.0141 -0.749999 -28.0042
      vertex -44.0141 0.75 -28.0042
    endloop
  endfacet
  facet normal -0.445164 0 -0.895449
    outer loop
      vertex -43.3795 -0.749999 -28.429
      vertex -42.6845 0.75 -28.7746
      vertex -42.6845 -0.749999 -28.7746
    endloop
  endfacet
  facet normal -0.445164 0 -0.895449
    outer loop
      vertex -42.6845 0.75 -28.7746
      vertex -43.3795 -0.749999 -28.429
      vertex -43.3795 0.75 -28.429
    endloop
  endfacet
  facet normal -0.328922 0 -0.944357
    outer loop
      vertex -42.6845 -0.749999 -28.7746
      vertex -41.9336 0.75 -29.0361
      vertex -41.9336 -0.749999 -29.0361
    endloop
  endfacet
  facet normal -0.328922 0 -0.944357
    outer loop
      vertex -41.9336 0.75 -29.0361
      vertex -42.6845 -0.749999 -28.7746
      vertex -42.6845 0.75 -28.7746
    endloop
  endfacet
  facet normal -0.148847 0 -0.98886
    outer loop
      vertex -41.9336 -0.749999 -29.0361
      vertex -41.3793 0.75 -29.1195
      vertex -41.3793 -0.749999 -29.1195
    endloop
  endfacet
  facet normal -0.148847 0 -0.98886
    outer loop
      vertex -41.3793 0.75 -29.1195
      vertex -41.9336 -0.749999 -29.0361
      vertex -41.9336 0.75 -29.0361
    endloop
  endfacet
  facet normal -0.0299521 0 -0.999551
    outer loop
      vertex -41.3793 -0.749999 -29.1195
      vertex -39.8763 0.75 -29.1646
      vertex -39.8763 -0.749999 -29.1646
    endloop
  endfacet
  facet normal -0.0299521 0 -0.999551
    outer loop
      vertex -39.8763 0.75 -29.1646
      vertex -41.3793 -0.749999 -29.1195
      vertex -41.3793 0.75 -29.1195
    endloop
  endfacet
  facet normal -0.00231853 0 -0.999997
    outer loop
      vertex -39.8763 -0.749999 -29.1646
      vertex -30.4241 0.75 -29.1865
      vertex -30.4241 -0.749999 -29.1865
    endloop
  endfacet
  facet normal -0.00231853 0 -0.999997
    outer loop
      vertex -30.4241 0.75 -29.1865
      vertex -39.8763 -0.749999 -29.1646
      vertex -39.8763 0.75 -29.1646
    endloop
  endfacet
  facet normal 0.000450634 0 -1
    outer loop
      vertex -30.4241 -0.749999 -29.1865
      vertex -23.4615 0.75 -29.1833
      vertex -23.4615 -0.749999 -29.1833
    endloop
  endfacet
  facet normal 0.000450634 0 -1
    outer loop
      vertex -23.4615 0.75 -29.1833
      vertex -30.4241 -0.749999 -29.1865
      vertex -30.4241 0.75 -29.1865
    endloop
  endfacet
  facet normal -0.998027 0 -0.062788
    outer loop
      vertex -18.5 -0.75 24.75
      vertex -18.5118 0.7 24.938
      vertex -18.5 0.7 24.75
    endloop
  endfacet
  facet normal -0.998027 -0 -0.062788
    outer loop
      vertex -18.5118 0.7 24.938
      vertex -18.5 -0.75 24.75
      vertex -18.5118 -0.75 24.938
    endloop
  endfacet
  facet normal -0.982287 0 -0.187381
    outer loop
      vertex -18.5118 -0.75 24.938
      vertex -18.5471 0.7 25.123
      vertex -18.5118 0.7 24.938
    endloop
  endfacet
  facet normal -0.982287 -0 -0.187381
    outer loop
      vertex -18.5471 0.7 25.123
      vertex -18.5118 -0.75 24.938
      vertex -18.5471 -0.75 25.123
    endloop
  endfacet
  facet normal 0.998026 0 -0.0627981
    outer loop
      vertex -21.4882 -0.75 24.938
      vertex -21.5 0.7 24.75
      vertex -21.4882 0.7 24.938
    endloop
  endfacet
  facet normal 0.998026 0 -0.0627981
    outer loop
      vertex -21.5 0.7 24.75
      vertex -21.4882 -0.75 24.938
      vertex -21.5 -0.75 24.75
    endloop
  endfacet
  facet normal -0.684547 0 -0.728968
    outer loop
      vertex -19.0439 -0.75 25.9058
      vertex -18.9065 0.7 25.7768
      vertex -18.9065 -0.75 25.7768
    endloop
  endfacet
  facet normal -0.684547 0 -0.728968
    outer loop
      vertex -18.9065 0.7 25.7768
      vertex -19.0439 -0.75 25.9058
      vertex -19.0439 0.7 25.9058
    endloop
  endfacet
  facet normal 0.684542 0 -0.728973
    outer loop
      vertex -21.0935 -0.75 25.7768
      vertex -20.9561 0.7 25.9058
      vertex -20.9561 -0.75 25.9058
    endloop
  endfacet
  facet normal 0.684542 0 -0.728973
    outer loop
      vertex -20.9561 0.7 25.9058
      vertex -21.0935 -0.75 25.7768
      vertex -21.0935 0.7 25.7768
    endloop
  endfacet
  facet normal -0.844328 0 0.535827
    outer loop
      vertex -18.7865 -0.75 23.8683
      vertex -18.6855 0.7 24.0274
      vertex -18.7865 0.7 23.8683
    endloop
  endfacet
  facet normal -0.844328 0 0.535827
    outer loop
      vertex -18.6855 0.7 24.0274
      vertex -18.7865 -0.75 23.8683
      vertex -18.6855 -0.75 24.0274
    endloop
  endfacet
  facet normal -0.904829 0 -0.425775
    outer loop
      vertex -18.6053 -0.75 25.3022
      vertex -18.6855 0.7 25.4726
      vertex -18.6053 0.7 25.3022
    endloop
  endfacet
  facet normal -0.904829 -0 -0.425775
    outer loop
      vertex -18.6855 0.7 25.4726
      vertex -18.6053 -0.75 25.3022
      vertex -18.6855 -0.75 25.4726
    endloop
  endfacet
  facet normal -0.368133 0 -0.929773
    outer loop
      vertex -19.5365 -0.75 26.1766
      vertex -19.3613 0.7 26.1072
      vertex -19.3613 -0.75 26.1072
    endloop
  endfacet
  facet normal -0.368133 0 -0.929773
    outer loop
      vertex -19.3613 0.7 26.1072
      vertex -19.5365 -0.75 26.1766
      vertex -19.5365 0.7 26.1766
    endloop
  endfacet
  facet normal -0.481745 0 -0.876311
    outer loop
      vertex -19.3613 -0.75 26.1072
      vertex -19.1963 0.7 26.0165
      vertex -19.1963 -0.75 26.0165
    endloop
  endfacet
  facet normal -0.481745 0 -0.876311
    outer loop
      vertex -19.1963 0.7 26.0165
      vertex -19.3613 -0.75 26.1072
      vertex -19.3613 0.7 26.1072
    endloop
  endfacet
  facet normal 0.904829 0 -0.425775
    outer loop
      vertex -21.3145 -0.75 25.4726
      vertex -21.3947 0.7 25.3022
      vertex -21.3145 0.7 25.4726
    endloop
  endfacet
  facet normal 0.904829 0 -0.425775
    outer loop
      vertex -21.3947 0.7 25.3022
      vertex -21.3145 -0.75 25.4726
      vertex -21.3947 -0.75 25.3022
    endloop
  endfacet
  facet normal 0.770518 0 -0.637418
    outer loop
      vertex -21.0935 -0.75 25.7768
      vertex -21.2135 0.7 25.6317
      vertex -21.0935 0.7 25.7768
    endloop
  endfacet
  facet normal 0.770518 0 -0.637418
    outer loop
      vertex -21.2135 0.7 25.6317
      vertex -21.0935 -0.75 25.7768
      vertex -21.2135 -0.75 25.6317
    endloop
  endfacet
  facet normal 0.125333 0 -0.992115
    outer loop
      vertex -20.2811 -0.75 26.2234
      vertex -20.0942 0.7 26.247
      vertex -20.0942 -0.75 26.247
    endloop
  endfacet
  facet normal 0.125333 0 -0.992115
    outer loop
      vertex -20.0942 0.7 26.247
      vertex -20.2811 -0.75 26.2234
      vertex -20.2811 0.7 26.2234
    endloop
  endfacet
  facet normal -0.982287 0 0.187381
    outer loop
      vertex -18.5471 -0.75 24.377
      vertex -18.5118 0.7 24.562
      vertex -18.5471 0.7 24.377
    endloop
  endfacet
  facet normal -0.982287 0 0.187381
    outer loop
      vertex -18.5118 0.7 24.562
      vertex -18.5471 -0.75 24.377
      vertex -18.5118 -0.75 24.562
    endloop
  endfacet
  facet normal -0.125332 0 0.992115
    outer loop
      vertex -19.9058 0.7 23.253
      vertex -19.7189 -0.75 23.2766
      vertex -19.7189 0.7 23.2766
    endloop
  endfacet
  facet normal -0.125332 0 0.992115
    outer loop
      vertex -19.7189 -0.75 23.2766
      vertex -19.9058 0.7 23.253
      vertex -19.9058 -0.75 23.253
    endloop
  endfacet
  facet normal -0.770513 0 -0.637425
    outer loop
      vertex -18.7865 -0.75 25.6317
      vertex -18.9065 0.7 25.7768
      vertex -18.7865 0.7 25.6317
    endloop
  endfacet
  facet normal -0.770513 -0 -0.637425
    outer loop
      vertex -18.9065 0.7 25.7768
      vertex -18.7865 -0.75 25.6317
      vertex -18.9065 -0.75 25.7768
    endloop
  endfacet
  facet normal -0.844328 0 -0.535827
    outer loop
      vertex -18.6855 -0.75 25.4726
      vertex -18.7865 0.7 25.6317
      vertex -18.6855 0.7 25.4726
    endloop
  endfacet
  facet normal -0.844328 -0 -0.535827
    outer loop
      vertex -18.7865 0.7 25.6317
      vertex -18.6855 -0.75 25.4726
      vertex -18.7865 -0.75 25.6317
    endloop
  endfacet
  facet normal -0.248692 0 -0.968583
    outer loop
      vertex -19.7189 -0.75 26.2234
      vertex -19.5365 0.7 26.1766
      vertex -19.5365 -0.75 26.1766
    endloop
  endfacet
  facet normal -0.248692 0 -0.968583
    outer loop
      vertex -19.5365 0.7 26.1766
      vertex -19.7189 -0.75 26.2234
      vertex -19.7189 0.7 26.2234
    endloop
  endfacet
  facet normal -0.587785 0 -0.809017
    outer loop
      vertex -19.1963 -0.75 26.0165
      vertex -19.0439 0.7 25.9058
      vertex -19.0439 -0.75 25.9058
    endloop
  endfacet
  facet normal -0.587785 0 -0.809017
    outer loop
      vertex -19.0439 0.7 25.9058
      vertex -19.1963 -0.75 26.0165
      vertex -19.1963 0.7 26.0165
    endloop
  endfacet
  facet normal 0.951058 0 -0.309013
    outer loop
      vertex -21.3947 -0.75 25.3022
      vertex -21.4529 0.7 25.123
      vertex -21.3947 0.7 25.3022
    endloop
  endfacet
  facet normal 0.951058 0 -0.309013
    outer loop
      vertex -21.4529 0.7 25.123
      vertex -21.3947 -0.75 25.3022
      vertex -21.4529 -0.75 25.123
    endloop
  endfacet
  facet normal 0.844323 0 -0.535834
    outer loop
      vertex -21.2135 -0.75 25.6317
      vertex -21.3145 0.7 25.4726
      vertex -21.2135 0.7 25.6317
    endloop
  endfacet
  facet normal 0.844323 0 -0.535834
    outer loop
      vertex -21.3145 0.7 25.4726
      vertex -21.2135 -0.75 25.6317
      vertex -21.3145 -0.75 25.4726
    endloop
  endfacet
  facet normal 0.48175 0 -0.876309
    outer loop
      vertex -20.8037 -0.75 26.0165
      vertex -20.6387 0.7 26.1072
      vertex -20.6387 -0.75 26.1072
    endloop
  endfacet
  facet normal 0.48175 0 -0.876309
    outer loop
      vertex -20.6387 0.7 26.1072
      vertex -20.8037 -0.75 26.0165
      vertex -20.8037 0.7 26.0165
    endloop
  endfacet
  facet normal 0.587785 0 -0.809017
    outer loop
      vertex -20.9561 -0.75 25.9058
      vertex -20.8037 0.7 26.0165
      vertex -20.8037 -0.75 26.0165
    endloop
  endfacet
  facet normal 0.587785 0 -0.809017
    outer loop
      vertex -20.8037 0.7 26.0165
      vertex -20.9561 -0.75 25.9058
      vertex -20.9561 0.7 25.9058
    endloop
  endfacet
  facet normal -0.998027 0 0.062788
    outer loop
      vertex -18.5118 -0.75 24.562
      vertex -18.5 0.7 24.75
      vertex -18.5118 0.7 24.562
    endloop
  endfacet
  facet normal -0.998027 0 0.062788
    outer loop
      vertex -18.5 0.7 24.75
      vertex -18.5118 -0.75 24.562
      vertex -18.5 -0.75 24.75
    endloop
  endfacet
  facet normal -0.587785 0 0.809017
    outer loop
      vertex -19.1963 0.7 23.4835
      vertex -19.0439 -0.75 23.5942
      vertex -19.0439 0.7 23.5942
    endloop
  endfacet
  facet normal -0.587785 0 0.809017
    outer loop
      vertex -19.0439 -0.75 23.5942
      vertex -19.1963 0.7 23.4835
      vertex -19.1963 -0.75 23.4835
    endloop
  endfacet
  facet normal 0.684542 0 0.728973
    outer loop
      vertex -21.0935 0.7 23.7232
      vertex -20.9561 -0.75 23.5942
      vertex -20.9561 0.7 23.5942
    endloop
  endfacet
  facet normal 0.684542 0 0.728973
    outer loop
      vertex -20.9561 -0.75 23.5942
      vertex -21.0935 0.7 23.7232
      vertex -21.0935 -0.75 23.7232
    endloop
  endfacet
  facet normal -0 0 1
    outer loop
      vertex -20.0942 0.7 23.253
      vertex -19.9058 -0.75 23.253
      vertex -19.9058 0.7 23.253
    endloop
  endfacet
  facet normal 0 0 1
    outer loop
      vertex -19.9058 -0.75 23.253
      vertex -20.0942 0.7 23.253
      vertex -20.0942 -0.75 23.253
    endloop
  endfacet
  facet normal -0.951055 0 -0.309022
    outer loop
      vertex -18.5471 -0.75 25.123
      vertex -18.6053 0.7 25.3022
      vertex -18.5471 0.7 25.123
    endloop
  endfacet
  facet normal -0.951055 -0 -0.309022
    outer loop
      vertex -18.6053 0.7 25.3022
      vertex -18.5471 -0.75 25.123
      vertex -18.6053 -0.75 25.3022
    endloop
  endfacet
  facet normal -0.125332 0 -0.992115
    outer loop
      vertex -19.9058 -0.75 26.247
      vertex -19.7189 0.7 26.2234
      vertex -19.7189 -0.75 26.2234
    endloop
  endfacet
  facet normal -0.125332 0 -0.992115
    outer loop
      vertex -19.7189 0.7 26.2234
      vertex -19.9058 -0.75 26.247
      vertex -19.9058 0.7 26.247
    endloop
  endfacet
  facet normal 0 0 -1
    outer loop
      vertex -20.0942 -0.75 26.247
      vertex -19.9058 0.7 26.247
      vertex -19.9058 -0.75 26.247
    endloop
  endfacet
  facet normal -0 0 -1
    outer loop
      vertex -19.9058 0.7 26.247
      vertex -20.0942 -0.75 26.247
      vertex -20.0942 0.7 26.247
    endloop
  endfacet
  facet normal 0.982287 0 -0.187381
    outer loop
      vertex -21.4529 -0.75 25.123
      vertex -21.4882 0.7 24.938
      vertex -21.4529 0.7 25.123
    endloop
  endfacet
  facet normal 0.982287 0 -0.187381
    outer loop
      vertex -21.4882 0.7 24.938
      vertex -21.4529 -0.75 25.123
      vertex -21.4882 -0.75 24.938
    endloop
  endfacet
  facet normal 0.248692 0 -0.968583
    outer loop
      vertex -20.4635 -0.75 26.1766
      vertex -20.2811 0.7 26.2234
      vertex -20.2811 -0.75 26.2234
    endloop
  endfacet
  facet normal 0.248692 0 -0.968583
    outer loop
      vertex -20.2811 0.7 26.2234
      vertex -20.4635 -0.75 26.1766
      vertex -20.4635 0.7 26.1766
    endloop
  endfacet
  facet normal 0.368129 0 -0.929775
    outer loop
      vertex -20.6387 -0.75 26.1072
      vertex -20.4635 0.7 26.1766
      vertex -20.4635 -0.75 26.1766
    endloop
  endfacet
  facet normal 0.368129 0 -0.929775
    outer loop
      vertex -20.4635 0.7 26.1766
      vertex -20.6387 -0.75 26.1072
      vertex -20.6387 0.7 26.1072
    endloop
  endfacet
  facet normal -0.904829 0 0.425775
    outer loop
      vertex -18.6855 -0.75 24.0274
      vertex -18.6053 0.7 24.1978
      vertex -18.6855 0.7 24.0274
    endloop
  endfacet
  facet normal -0.904829 0 0.425775
    outer loop
      vertex -18.6053 0.7 24.1978
      vertex -18.6855 -0.75 24.0274
      vertex -18.6053 -0.75 24.1978
    endloop
  endfacet
  facet normal -0.770509 0 0.637429
    outer loop
      vertex -18.9065 -0.75 23.7232
      vertex -18.7865 0.7 23.8683
      vertex -18.9065 0.7 23.7232
    endloop
  endfacet
  facet normal -0.770509 0 0.637429
    outer loop
      vertex -18.7865 0.7 23.8683
      vertex -18.9065 -0.75 23.7232
      vertex -18.7865 -0.75 23.8683
    endloop
  endfacet
  facet normal 0.844323 -0 0.535834
    outer loop
      vertex -21.3145 -0.75 24.0274
      vertex -21.2135 0.7 23.8683
      vertex -21.3145 0.7 24.0274
    endloop
  endfacet
  facet normal 0.844323 0 0.535834
    outer loop
      vertex -21.2135 0.7 23.8683
      vertex -21.3145 -0.75 24.0274
      vertex -21.2135 -0.75 23.8683
    endloop
  endfacet
  facet normal 0.951059 -0 0.30901
    outer loop
      vertex -21.4529 -0.75 24.377
      vertex -21.3947 0.7 24.1978
      vertex -21.4529 0.7 24.377
    endloop
  endfacet
  facet normal 0.951059 0 0.30901
    outer loop
      vertex -21.3947 0.7 24.1978
      vertex -21.4529 -0.75 24.377
      vertex -21.3947 -0.75 24.1978
    endloop
  endfacet
  facet normal 0.998026 -0 0.0627981
    outer loop
      vertex -21.5 -0.75 24.75
      vertex -21.4882 0.7 24.562
      vertex -21.5 0.7 24.75
    endloop
  endfacet
  facet normal 0.998026 0 0.0627981
    outer loop
      vertex -21.4882 0.7 24.562
      vertex -21.5 -0.75 24.75
      vertex -21.4882 -0.75 24.562
    endloop
  endfacet
  facet normal -0.248682 0 0.968585
    outer loop
      vertex -19.7189 0.7 23.2766
      vertex -19.5365 -0.75 23.3234
      vertex -19.5365 0.7 23.3234
    endloop
  endfacet
  facet normal -0.248682 0 0.968585
    outer loop
      vertex -19.5365 -0.75 23.3234
      vertex -19.7189 0.7 23.2766
      vertex -19.7189 -0.75 23.2766
    endloop
  endfacet
  facet normal -0.684547 0 0.728968
    outer loop
      vertex -19.0439 0.7 23.5942
      vertex -18.9065 -0.75 23.7232
      vertex -18.9065 0.7 23.7232
    endloop
  endfacet
  facet normal -0.684547 0 0.728968
    outer loop
      vertex -18.9065 -0.75 23.7232
      vertex -19.0439 0.7 23.5942
      vertex -19.0439 -0.75 23.5942
    endloop
  endfacet
  facet normal -0.951056 0 0.309019
    outer loop
      vertex -18.6053 -0.75 24.1978
      vertex -18.5471 0.7 24.377
      vertex -18.6053 0.7 24.1978
    endloop
  endfacet
  facet normal -0.951056 0 0.309019
    outer loop
      vertex -18.5471 0.7 24.377
      vertex -18.6053 -0.75 24.1978
      vertex -18.5471 -0.75 24.377
    endloop
  endfacet
  facet normal 0.904829 -0 0.425775
    outer loop
      vertex -21.3947 -0.75 24.1978
      vertex -21.3145 0.7 24.0274
      vertex -21.3947 0.7 24.1978
    endloop
  endfacet
  facet normal 0.904829 0 0.425775
    outer loop
      vertex -21.3145 0.7 24.0274
      vertex -21.3947 -0.75 24.1978
      vertex -21.3145 -0.75 24.0274
    endloop
  endfacet
  facet normal 0.982287 -0 0.187381
    outer loop
      vertex -21.4882 -0.75 24.562
      vertex -21.4529 0.7 24.377
      vertex -21.4882 0.7 24.562
    endloop
  endfacet
  facet normal 0.982287 0 0.187381
    outer loop
      vertex -21.4529 0.7 24.377
      vertex -21.4882 -0.75 24.562
      vertex -21.4529 -0.75 24.377
    endloop
  endfacet
  facet normal 0.587785 0 0.809017
    outer loop
      vertex -20.9561 0.7 23.5942
      vertex -20.8037 -0.75 23.4835
      vertex -20.8037 0.7 23.4835
    endloop
  endfacet
  facet normal 0.587785 0 0.809017
    outer loop
      vertex -20.8037 -0.75 23.4835
      vertex -20.9561 0.7 23.5942
      vertex -20.9561 -0.75 23.5942
    endloop
  endfacet
  facet normal -0.368133 0 0.929773
    outer loop
      vertex -19.5365 0.7 23.3234
      vertex -19.3613 -0.75 23.3928
      vertex -19.3613 0.7 23.3928
    endloop
  endfacet
  facet normal -0.368133 0 0.929773
    outer loop
      vertex -19.3613 -0.75 23.3928
      vertex -19.5365 0.7 23.3234
      vertex -19.5365 -0.75 23.3234
    endloop
  endfacet
  facet normal -0.481753 0 0.876307
    outer loop
      vertex -19.3613 0.7 23.3928
      vertex -19.1963 -0.75 23.4835
      vertex -19.1963 0.7 23.4835
    endloop
  endfacet
  facet normal -0.481753 0 0.876307
    outer loop
      vertex -19.1963 -0.75 23.4835
      vertex -19.3613 0.7 23.3928
      vertex -19.3613 -0.75 23.3928
    endloop
  endfacet
  facet normal 0.248682 0 0.968585
    outer loop
      vertex -20.4635 0.7 23.3234
      vertex -20.2811 -0.75 23.2766
      vertex -20.2811 0.7 23.2766
    endloop
  endfacet
  facet normal 0.248682 0 0.968585
    outer loop
      vertex -20.2811 -0.75 23.2766
      vertex -20.4635 0.7 23.3234
      vertex -20.4635 -0.75 23.3234
    endloop
  endfacet
  facet normal 0.125333 0 0.992115
    outer loop
      vertex -20.2811 0.7 23.2766
      vertex -20.0942 -0.75 23.253
      vertex -20.0942 0.7 23.253
    endloop
  endfacet
  facet normal 0.125333 0 0.992115
    outer loop
      vertex -20.0942 -0.75 23.253
      vertex -20.2811 0.7 23.2766
      vertex -20.2811 -0.75 23.2766
    endloop
  endfacet
  facet normal 0.770514 -0 0.637423
    outer loop
      vertex -21.2135 -0.75 23.8683
      vertex -21.0935 0.7 23.7232
      vertex -21.2135 0.7 23.8683
    endloop
  endfacet
  facet normal 0.770514 0 0.637423
    outer loop
      vertex -21.0935 0.7 23.7232
      vertex -21.2135 -0.75 23.8683
      vertex -21.0935 -0.75 23.7232
    endloop
  endfacet
  facet normal 0.481757 0 0.876305
    outer loop
      vertex -20.8037 0.7 23.4835
      vertex -20.6387 -0.75 23.3928
      vertex -20.6387 0.7 23.3928
    endloop
  endfacet
  facet normal 0.481757 0 0.876305
    outer loop
      vertex -20.6387 -0.75 23.3928
      vertex -20.8037 0.7 23.4835
      vertex -20.8037 -0.75 23.4835
    endloop
  endfacet
  facet normal 0.368129 0 0.929775
    outer loop
      vertex -20.6387 0.7 23.3928
      vertex -20.4635 -0.75 23.3234
      vertex -20.4635 0.7 23.3234
    endloop
  endfacet
  facet normal 0.368129 0 0.929775
    outer loop
      vertex -20.4635 -0.75 23.3234
      vertex -20.6387 0.7 23.3928
      vertex -20.6387 -0.75 23.3928
    endloop
  endfacet
  facet normal -0.998026 0 -0.0627981
    outer loop
      vertex 21.5 -0.75 24.75
      vertex 21.4882 0.7 24.938
      vertex 21.5 0.7 24.75
    endloop
  endfacet
  facet normal -0.998026 -0 -0.0627981
    outer loop
      vertex 21.4882 0.7 24.938
      vertex 21.5 -0.75 24.75
      vertex 21.4882 -0.75 24.938
    endloop
  endfacet
  facet normal -0.982287 0 -0.187381
    outer loop
      vertex 21.4882 -0.75 24.938
      vertex 21.4529 0.7 25.123
      vertex 21.4882 0.7 24.938
    endloop
  endfacet
  facet normal -0.982287 -0 -0.187381
    outer loop
      vertex 21.4529 0.7 25.123
      vertex 21.4882 -0.75 24.938
      vertex 21.4529 -0.75 25.123
    endloop
  endfacet
  facet normal 0.125332 0 -0.992115
    outer loop
      vertex 19.7189 -0.75 26.2234
      vertex 19.9058 0.7 26.247
      vertex 19.9058 -0.75 26.247
    endloop
  endfacet
  facet normal 0.125332 0 -0.992115
    outer loop
      vertex 19.9058 0.7 26.247
      vertex 19.7189 -0.75 26.2234
      vertex 19.7189 0.7 26.2234
    endloop
  endfacet
  facet normal -0.684542 0 -0.728973
    outer loop
      vertex 20.9561 -0.75 25.9058
      vertex 21.0935 0.7 25.7768
      vertex 21.0935 -0.75 25.7768
    endloop
  endfacet
  facet normal -0.684542 0 -0.728973
    outer loop
      vertex 21.0935 0.7 25.7768
      vertex 20.9561 -0.75 25.9058
      vertex 20.9561 0.7 25.9058
    endloop
  endfacet
  facet normal 0.770513 0 -0.637425
    outer loop
      vertex 18.9065 -0.75 25.7768
      vertex 18.7865 0.7 25.6317
      vertex 18.9065 0.7 25.7768
    endloop
  endfacet
  facet normal 0.770513 0 -0.637425
    outer loop
      vertex 18.7865 0.7 25.6317
      vertex 18.9065 -0.75 25.7768
      vertex 18.7865 -0.75 25.6317
    endloop
  endfacet
  facet normal 0.481745 0 -0.876311
    outer loop
      vertex 19.1963 -0.75 26.0165
      vertex 19.3613 0.7 26.1072
      vertex 19.3613 -0.75 26.1072
    endloop
  endfacet
  facet normal 0.481745 0 -0.876311
    outer loop
      vertex 19.3613 0.7 26.1072
      vertex 19.1963 -0.75 26.0165
      vertex 19.1963 0.7 26.0165
    endloop
  endfacet
  facet normal -0.844323 0 0.535834
    outer loop
      vertex 21.2135 -0.75 23.8683
      vertex 21.3145 0.7 24.0274
      vertex 21.2135 0.7 23.8683
    endloop
  endfacet
  facet normal -0.844323 0 0.535834
    outer loop
      vertex 21.3145 0.7 24.0274
      vertex 21.2135 -0.75 23.8683
      vertex 21.3145 -0.75 24.0274
    endloop
  endfacet
  facet normal -0.904829 0 -0.425775
    outer loop
      vertex 21.3947 -0.75 25.3022
      vertex 21.3145 0.7 25.4726
      vertex 21.3947 0.7 25.3022
    endloop
  endfacet
  facet normal -0.904829 -0 -0.425775
    outer loop
      vertex 21.3145 0.7 25.4726
      vertex 21.3947 -0.75 25.3022
      vertex 21.3145 -0.75 25.4726
    endloop
  endfacet
  facet normal -0.248692 0 -0.968583
    outer loop
      vertex 20.2811 -0.75 26.2234
      vertex 20.4635 0.7 26.1766
      vertex 20.4635 -0.75 26.1766
    endloop
  endfacet
  facet normal -0.248692 0 -0.968583
    outer loop
      vertex 20.4635 0.7 26.1766
      vertex 20.2811 -0.75 26.2234
      vertex 20.2811 0.7 26.2234
    endloop
  endfacet
  facet normal -0.48175 0 -0.876309
    outer loop
      vertex 20.6387 -0.75 26.1072
      vertex 20.8037 0.7 26.0165
      vertex 20.8037 -0.75 26.0165
    endloop
  endfacet
  facet normal -0.48175 0 -0.876309
    outer loop
      vertex 20.8037 0.7 26.0165
      vertex 20.6387 -0.75 26.1072
      vertex 20.6387 0.7 26.1072
    endloop
  endfacet
  facet normal 0.844328 0 -0.535827
    outer loop
      vertex 18.7865 -0.75 25.6317
      vertex 18.6855 0.7 25.4726
      vertex 18.7865 0.7 25.6317
    endloop
  endfacet
  facet normal 0.844328 0 -0.535827
    outer loop
      vertex 18.6855 0.7 25.4726
      vertex 18.7865 -0.75 25.6317
      vertex 18.6855 -0.75 25.4726
    endloop
  endfacet
  facet normal 0.248692 0 -0.968583
    outer loop
      vertex 19.5365 -0.75 26.1766
      vertex 19.7189 0.7 26.2234
      vertex 19.7189 -0.75 26.2234
    endloop
  endfacet
  facet normal 0.248692 0 -0.968583
    outer loop
      vertex 19.7189 0.7 26.2234
      vertex 19.5365 -0.75 26.1766
      vertex 19.5365 0.7 26.1766
    endloop
  endfacet
  facet normal -0.248682 0 0.968585
    outer loop
      vertex 20.2811 0.7 23.2766
      vertex 20.4635 -0.75 23.3234
      vertex 20.4635 0.7 23.3234
    endloop
  endfacet
  facet normal -0.248682 0 0.968585
    outer loop
      vertex 20.4635 -0.75 23.3234
      vertex 20.2811 0.7 23.2766
      vertex 20.2811 -0.75 23.2766
    endloop
  endfacet
  facet normal -0.770518 0 -0.637418
    outer loop
      vertex 21.2135 -0.75 25.6317
      vertex 21.0935 0.7 25.7768
      vertex 21.2135 0.7 25.6317
    endloop
  endfacet
  facet normal -0.770518 -0 -0.637418
    outer loop
      vertex 21.0935 0.7 25.7768
      vertex 21.2135 -0.75 25.6317
      vertex 21.0935 -0.75 25.7768
    endloop
  endfacet
  facet normal -0.844323 0 -0.535834
    outer loop
      vertex 21.3145 -0.75 25.4726
      vertex 21.2135 0.7 25.6317
      vertex 21.3145 0.7 25.4726
    endloop
  endfacet
  facet normal -0.844323 -0 -0.535834
    outer loop
      vertex 21.2135 0.7 25.6317
      vertex 21.3145 -0.75 25.4726
      vertex 21.2135 -0.75 25.6317
    endloop
  endfacet
  facet normal -0.125333 0 -0.992115
    outer loop
      vertex 20.0942 -0.75 26.247
      vertex 20.2811 0.7 26.2234
      vertex 20.2811 -0.75 26.2234
    endloop
  endfacet
  facet normal -0.125333 0 -0.992115
    outer loop
      vertex 20.2811 0.7 26.2234
      vertex 20.0942 -0.75 26.247
      vertex 20.0942 0.7 26.247
    endloop
  endfacet
  facet normal -0.587785 0 -0.809017
    outer loop
      vertex 20.8037 -0.75 26.0165
      vertex 20.9561 0.7 25.9058
      vertex 20.9561 -0.75 25.9058
    endloop
  endfacet
  facet normal -0.587785 0 -0.809017
    outer loop
      vertex 20.9561 0.7 25.9058
      vertex 20.8037 -0.75 26.0165
      vertex 20.8037 0.7 26.0165
    endloop
  endfacet
  facet normal 0.982287 0 -0.187381
    outer loop
      vertex 18.5471 -0.75 25.123
      vertex 18.5118 0.7 24.938
      vertex 18.5471 0.7 25.123
    endloop
  endfacet
  facet normal 0.982287 0 -0.187381
    outer loop
      vertex 18.5118 0.7 24.938
      vertex 18.5471 -0.75 25.123
      vertex 18.5118 -0.75 24.938
    endloop
  endfacet
  facet normal 0.951055 0 -0.309022
    outer loop
      vertex 18.6053 -0.75 25.3022
      vertex 18.5471 0.7 25.123
      vertex 18.6053 0.7 25.3022
    endloop
  endfacet
  facet normal 0.951055 0 -0.309022
    outer loop
      vertex 18.5471 0.7 25.123
      vertex 18.6053 -0.75 25.3022
      vertex 18.5471 -0.75 25.123
    endloop
  endfacet
  facet normal 0.904829 0 -0.425775
    outer loop
      vertex 18.6855 -0.75 25.4726
      vertex 18.6053 0.7 25.3022
      vertex 18.6855 0.7 25.4726
    endloop
  endfacet
  facet normal 0.904829 0 -0.425775
    outer loop
      vertex 18.6053 0.7 25.3022
      vertex 18.6855 -0.75 25.4726
      vertex 18.6053 -0.75 25.3022
    endloop
  endfacet
  facet normal 0.587785 0 -0.809017
    outer loop
      vertex 19.0439 -0.75 25.9058
      vertex 19.1963 0.7 26.0165
      vertex 19.1963 -0.75 26.0165
    endloop
  endfacet
  facet normal 0.587785 0 -0.809017
    outer loop
      vertex 19.1963 0.7 26.0165
      vertex 19.0439 -0.75 25.9058
      vertex 19.0439 0.7 25.9058
    endloop
  endfacet
  facet normal 0.982287 -0 0.187381
    outer loop
      vertex 18.5118 -0.75 24.562
      vertex 18.5471 0.7 24.377
      vertex 18.5118 0.7 24.562
    endloop
  endfacet
  facet normal 0.982287 0 0.187381
    outer loop
      vertex 18.5471 0.7 24.377
      vertex 18.5118 -0.75 24.562
      vertex 18.5471 -0.75 24.377
    endloop
  endfacet
  facet normal 0.684547 0 0.728968
    outer loop
      vertex 18.9065 0.7 23.7232
      vertex 19.0439 -0.75 23.5942
      vertex 19.0439 0.7 23.5942
    endloop
  endfacet
  facet normal 0.684547 0 0.728968
    outer loop
      vertex 19.0439 -0.75 23.5942
      vertex 18.9065 0.7 23.7232
      vertex 18.9065 -0.75 23.7232
    endloop
  endfacet
  facet normal -0.125333 0 0.992115
    outer loop
      vertex 20.0942 0.7 23.253
      vertex 20.2811 -0.75 23.2766
      vertex 20.2811 0.7 23.2766
    endloop
  endfacet
  facet normal -0.125333 0 0.992115
    outer loop
      vertex 20.2811 -0.75 23.2766
      vertex 20.0942 0.7 23.253
      vertex 20.0942 -0.75 23.253
    endloop
  endfacet
  facet normal -0.481757 0 0.876305
    outer loop
      vertex 20.6387 0.7 23.3928
      vertex 20.8037 -0.75 23.4835
      vertex 20.8037 0.7 23.4835
    endloop
  endfacet
  facet normal -0.481757 0 0.876305
    outer loop
      vertex 20.8037 -0.75 23.4835
      vertex 20.6387 0.7 23.3928
      vertex 20.6387 -0.75 23.3928
    endloop
  endfacet
  facet normal -0.368129 0 0.929775
    outer loop
      vertex 20.4635 0.7 23.3234
      vertex 20.6387 -0.75 23.3928
      vertex 20.6387 0.7 23.3928
    endloop
  endfacet
  facet normal -0.368129 0 0.929775
    outer loop
      vertex 20.6387 -0.75 23.3928
      vertex 20.4635 0.7 23.3234
      vertex 20.4635 -0.75 23.3234
    endloop
  endfacet
  facet normal -0.951058 0 -0.309013
    outer loop
      vertex 21.4529 -0.75 25.123
      vertex 21.3947 0.7 25.3022
      vertex 21.4529 0.7 25.123
    endloop
  endfacet
  facet normal -0.951058 -0 -0.309013
    outer loop
      vertex 21.3947 0.7 25.3022
      vertex 21.4529 -0.75 25.123
      vertex 21.3947 -0.75 25.3022
    endloop
  endfacet
  facet normal 0 0 -1
    outer loop
      vertex 19.9058 -0.75 26.247
      vertex 20.0942 0.7 26.247
      vertex 20.0942 -0.75 26.247
    endloop
  endfacet
  facet normal -0 0 -1
    outer loop
      vertex 20.0942 0.7 26.247
      vertex 19.9058 -0.75 26.247
      vertex 19.9058 0.7 26.247
    endloop
  endfacet
  facet normal -0.368129 0 -0.929775
    outer loop
      vertex 20.4635 -0.75 26.1766
      vertex 20.6387 0.7 26.1072
      vertex 20.6387 -0.75 26.1072
    endloop
  endfacet
  facet normal -0.368129 0 -0.929775
    outer loop
      vertex 20.6387 0.7 26.1072
      vertex 20.4635 -0.75 26.1766
      vertex 20.4635 0.7 26.1766
    endloop
  endfacet
  facet normal 0.998027 0 -0.062788
    outer loop
      vertex 18.5118 -0.75 24.938
      vertex 18.5 0.7 24.75
      vertex 18.5118 0.7 24.938
    endloop
  endfacet
  facet normal 0.998027 0 -0.062788
    outer loop
      vertex 18.5 0.7 24.75
      vertex 18.5118 -0.75 24.938
      vertex 18.5 -0.75 24.75
    endloop
  endfacet
  facet normal 0.998027 -0 0.062788
    outer loop
      vertex 18.5 -0.75 24.75
      vertex 18.5118 0.7 24.562
      vertex 18.5 0.7 24.75
    endloop
  endfacet
  facet normal 0.998027 0 0.062788
    outer loop
      vertex 18.5118 0.7 24.562
      vertex 18.5 -0.75 24.75
      vertex 18.5118 -0.75 24.562
    endloop
  endfacet
  facet normal 0.684547 0 -0.728968
    outer loop
      vertex 18.9065 -0.75 25.7768
      vertex 19.0439 0.7 25.9058
      vertex 19.0439 -0.75 25.9058
    endloop
  endfacet
  facet normal 0.684547 0 -0.728968
    outer loop
      vertex 19.0439 0.7 25.9058
      vertex 18.9065 -0.75 25.7768
      vertex 18.9065 0.7 25.7768
    endloop
  endfacet
  facet normal 0.368133 0 -0.929773
    outer loop
      vertex 19.3613 -0.75 26.1072
      vertex 19.5365 0.7 26.1766
      vertex 19.5365 -0.75 26.1766
    endloop
  endfacet
  facet normal 0.368133 0 -0.929773
    outer loop
      vertex 19.5365 0.7 26.1766
      vertex 19.3613 -0.75 26.1072
      vertex 19.3613 0.7 26.1072
    endloop
  endfacet
  facet normal -0.770514 0 0.637423
    outer loop
      vertex 21.0935 -0.75 23.7232
      vertex 21.2135 0.7 23.8683
      vertex 21.0935 0.7 23.7232
    endloop
  endfacet
  facet normal -0.770514 0 0.637423
    outer loop
      vertex 21.2135 0.7 23.8683
      vertex 21.0935 -0.75 23.7232
      vertex 21.2135 -0.75 23.8683
    endloop
  endfacet
  facet normal -0.982287 0 0.187381
    outer loop
      vertex 21.4529 -0.75 24.377
      vertex 21.4882 0.7 24.562
      vertex 21.4529 0.7 24.377
    endloop
  endfacet
  facet normal -0.982287 0 0.187381
    outer loop
      vertex 21.4882 0.7 24.562
      vertex 21.4529 -0.75 24.377
      vertex 21.4882 -0.75 24.562
    endloop
  endfacet
  facet normal -0.998026 0 0.0627981
    outer loop
      vertex 21.4882 -0.75 24.562
      vertex 21.5 0.7 24.75
      vertex 21.4882 0.7 24.562
    endloop
  endfacet
  facet normal -0.998026 0 0.0627981
    outer loop
      vertex 21.5 0.7 24.75
      vertex 21.4882 -0.75 24.562
      vertex 21.5 -0.75 24.75
    endloop
  endfacet
  facet normal -0.587785 0 0.809017
    outer loop
      vertex 20.8037 0.7 23.4835
      vertex 20.9561 -0.75 23.5942
      vertex 20.9561 0.7 23.5942
    endloop
  endfacet
  facet normal -0.587785 0 0.809017
    outer loop
      vertex 20.9561 -0.75 23.5942
      vertex 20.8037 0.7 23.4835
      vertex 20.8037 -0.75 23.4835
    endloop
  endfacet
  facet normal -0.684542 0 0.728973
    outer loop
      vertex 20.9561 0.7 23.5942
      vertex 21.0935 -0.75 23.7232
      vertex 21.0935 0.7 23.7232
    endloop
  endfacet
  facet normal -0.684542 0 0.728973
    outer loop
      vertex 21.0935 -0.75 23.7232
      vertex 20.9561 0.7 23.5942
      vertex 20.9561 -0.75 23.5942
    endloop
  endfacet
  facet normal -0.904829 0 0.425775
    outer loop
      vertex 21.3145 -0.75 24.0274
      vertex 21.3947 0.7 24.1978
      vertex 21.3145 0.7 24.0274
    endloop
  endfacet
  facet normal -0.904829 0 0.425775
    outer loop
      vertex 21.3947 0.7 24.1978
      vertex 21.3145 -0.75 24.0274
      vertex 21.3947 -0.75 24.1978
    endloop
  endfacet
  facet normal -0.951059 0 0.30901
    outer loop
      vertex 21.3947 -0.75 24.1978
      vertex 21.4529 0.7 24.377
      vertex 21.3947 0.7 24.1978
    endloop
  endfacet
  facet normal -0.951059 0 0.30901
    outer loop
      vertex 21.4529 0.7 24.377
      vertex 21.3947 -0.75 24.1978
      vertex 21.4529 -0.75 24.377
    endloop
  endfacet
  facet normal 0.125332 0 0.992115
    outer loop
      vertex 19.7189 0.7 23.2766
      vertex 19.9058 -0.75 23.253
      vertex 19.9058 0.7 23.253
    endloop
  endfacet
  facet normal 0.125332 0 0.992115
    outer loop
      vertex 19.9058 -0.75 23.253
      vertex 19.7189 0.7 23.2766
      vertex 19.7189 -0.75 23.2766
    endloop
  endfacet
  facet normal -0 0 1
    outer loop
      vertex 19.9058 0.7 23.253
      vertex 20.0942 -0.75 23.253
      vertex 20.0942 0.7 23.253
    endloop
  endfacet
  facet normal 0 0 1
    outer loop
      vertex 20.0942 -0.75 23.253
      vertex 19.9058 0.7 23.253
      vertex 19.9058 -0.75 23.253
    endloop
  endfacet
  facet normal 0.844328 -0 0.535827
    outer loop
      vertex 18.6855 -0.75 24.0274
      vertex 18.7865 0.7 23.8683
      vertex 18.6855 0.7 24.0274
    endloop
  endfacet
  facet normal 0.844328 0 0.535827
    outer loop
      vertex 18.7865 0.7 23.8683
      vertex 18.6855 -0.75 24.0274
      vertex 18.7865 -0.75 23.8683
    endloop
  endfacet
  facet normal 0.770509 -0 0.637429
    outer loop
      vertex 18.7865 -0.75 23.8683
      vertex 18.9065 0.7 23.7232
      vertex 18.7865 0.7 23.8683
    endloop
  endfacet
  facet normal 0.770509 0 0.637429
    outer loop
      vertex 18.9065 0.7 23.7232
      vertex 18.7865 -0.75 23.8683
      vertex 18.9065 -0.75 23.7232
    endloop
  endfacet
  facet normal 0.951056 -0 0.309019
    outer loop
      vertex 18.5471 -0.75 24.377
      vertex 18.6053 0.7 24.1978
      vertex 18.5471 0.7 24.377
    endloop
  endfacet
  facet normal 0.951056 0 0.309019
    outer loop
      vertex 18.6053 0.7 24.1978
      vertex 18.5471 -0.75 24.377
      vertex 18.6053 -0.75 24.1978
    endloop
  endfacet
  facet normal 0.587785 0 0.809017
    outer loop
      vertex 19.0439 0.7 23.5942
      vertex 19.1963 -0.75 23.4835
      vertex 19.1963 0.7 23.4835
    endloop
  endfacet
  facet normal 0.587785 0 0.809017
    outer loop
      vertex 19.1963 -0.75 23.4835
      vertex 19.0439 0.7 23.5942
      vertex 19.0439 -0.75 23.5942
    endloop
  endfacet
  facet normal 0.481753 0 0.876307
    outer loop
      vertex 19.1963 0.7 23.4835
      vertex 19.3613 -0.75 23.3928
      vertex 19.3613 0.7 23.3928
    endloop
  endfacet
  facet normal 0.481753 0 0.876307
    outer loop
      vertex 19.3613 -0.75 23.3928
      vertex 19.1963 0.7 23.4835
      vertex 19.1963 -0.75 23.4835
    endloop
  endfacet
  facet normal 0.904829 -0 0.425775
    outer loop
      vertex 18.6053 -0.75 24.1978
      vertex 18.6855 0.7 24.0274
      vertex 18.6053 0.7 24.1978
    endloop
  endfacet
  facet normal 0.904829 0 0.425775
    outer loop
      vertex 18.6855 0.7 24.0274
      vertex 18.6053 -0.75 24.1978
      vertex 18.6855 -0.75 24.0274
    endloop
  endfacet
  facet normal 0.368133 0 0.929773
    outer loop
      vertex 19.3613 0.7 23.3928
      vertex 19.5365 -0.75 23.3234
      vertex 19.5365 0.7 23.3234
    endloop
  endfacet
  facet normal 0.368133 0 0.929773
    outer loop
      vertex 19.5365 -0.75 23.3234
      vertex 19.3613 0.7 23.3928
      vertex 19.3613 -0.75 23.3928
    endloop
  endfacet
  facet normal 0.248682 0 0.968585
    outer loop
      vertex 19.5365 0.7 23.3234
      vertex 19.7189 -0.75 23.2766
      vertex 19.7189 0.7 23.2766
    endloop
  endfacet
  facet normal 0.248682 0 0.968585
    outer loop
      vertex 19.7189 -0.75 23.2766
      vertex 19.5365 0.7 23.3234
      vertex 19.5365 -0.75 23.3234
    endloop
  endfacet
  facet normal 1 -0 0
    outer loop
      vertex -31 0.7 26.9394
      vertex -31 0.749999 26.8696
      vertex -31 0.749999 26.9394
    endloop
  endfacet
  facet normal 1 0 0
    outer loop
      vertex -31 0.749999 26.8696
      vertex -31 0.7 26.9394
      vertex -31 0.749999 26.6546
    endloop
  endfacet
  facet normal 1 0 0
    outer loop
      vertex -31 0.7 21
      vertex -31 0.749999 26.6546
      vertex -31 0.7 26.9394
    endloop
  endfacet
  facet normal 1 0 0
    outer loop
      vertex -31 0.749999 26.6546
      vertex -31 0.7 21
      vertex -31 0.749999 21
    endloop
  endfacet
  facet normal -0 0 1
    outer loop
      vertex -14.909 0.749999 21
      vertex 39.2553 0.7 21
      vertex 39.2553 0.749999 21
    endloop
  endfacet
  facet normal 0 0 1
    outer loop
      vertex -31 0.7 21
      vertex -14.909 0.749999 21
      vertex -27.0017 0.749999 21
    endloop
  endfacet
  facet normal 0 0 1
    outer loop
      vertex -31 0.7 21
      vertex -27.0017 0.749999 21
      vertex -27.2966 0.749999 21
    endloop
  endfacet
  facet normal 0 0 1
    outer loop
      vertex -31 0.7 21
      vertex -27.2966 0.749999 21
      vertex -31 0.749999 21
    endloop
  endfacet
  facet normal 0 0 1
    outer loop
      vertex -14.909 0.749999 21
      vertex -31 0.7 21
      vertex 39.2553 0.7 21
    endloop
  endfacet
  facet normal 0 1 -0
    outer loop
      vertex -19.7189 0.7 26.2234
      vertex -30.5478 0.7 29.1865
      vertex 19.7189 0.7 26.2234
    endloop
  endfacet
  facet normal 0 1 0
    outer loop
      vertex -30.5478 0.7 29.1865
      vertex -19.7189 0.7 26.2234
      vertex -19.9058 0.7 26.247
    endloop
  endfacet
  facet normal 0 1 -0
    outer loop
      vertex 19.5365 0.7 26.1766
      vertex -19.7189 0.7 26.2234
      vertex 19.7189 0.7 26.2234
    endloop
  endfacet
  facet normal 0 1 0
    outer loop
      vertex 19.5365 0.7 26.1766
      vertex -19.5365 0.7 26.1766
      vertex -19.7189 0.7 26.2234
    endloop
  endfacet
  facet normal 0 1 -0
    outer loop
      vertex 19.3613 0.7 26.1072
      vertex -19.5365 0.7 26.1766
      vertex 19.5365 0.7 26.1766
    endloop
  endfacet
  facet normal 0 1 0
    outer loop
      vertex 19.3613 0.7 26.1072
      vertex -19.3613 0.7 26.1072
      vertex -19.5365 0.7 26.1766
    endloop
  endfacet
  facet normal 0 1 -0
    outer loop
      vertex 19.1963 0.7 26.0165
      vertex -19.3613 0.7 26.1072
      vertex 19.3613 0.7 26.1072
    endloop
  endfacet
  facet normal 0 1 0
    outer loop
      vertex 19.1963 0.7 26.0165
      vertex -19.1963 0.7 26.0165
      vertex -19.3613 0.7 26.1072
    endloop
  endfacet
  facet normal 0 1 -0
    outer loop
      vertex 19.0439 0.7 25.9058
      vertex -19.1963 0.7 26.0165
      vertex 19.1963 0.7 26.0165
    endloop
  endfacet
  facet normal 0 1 0
    outer loop
      vertex 19.0439 0.7 25.9058
      vertex -19.0439 0.7 25.9058
      vertex -19.1963 0.7 26.0165
    endloop
  endfacet
  facet normal 0 1 -0
    outer loop
      vertex 18.9065 0.7 25.7768
      vertex -19.0439 0.7 25.9058
      vertex 19.0439 0.7 25.9058
    endloop
  endfacet
  facet normal 0 1 0
    outer loop
      vertex 18.9065 0.7 25.7768
      vertex -18.9065 0.7 25.7768
      vertex -19.0439 0.7 25.9058
    endloop
  endfacet
  facet normal 0 1 -0
    outer loop
      vertex 18.7865 0.7 25.6317
      vertex -18.9065 0.7 25.7768
      vertex 18.9065 0.7 25.7768
    endloop
  endfacet
  facet normal 0 1 0
    outer loop
      vertex 18.7865 0.7 25.6317
      vertex -18.7865 0.7 25.6317
      vertex -18.9065 0.7 25.7768
    endloop
  endfacet
  facet normal 0 1 -0
    outer loop
      vertex 18.6855 0.7 25.4726
      vertex -18.7865 0.7 25.6317
      vertex 18.7865 0.7 25.6317
    endloop
  endfacet
  facet normal 0 1 0
    outer loop
      vertex 18.6855 0.7 25.4726
      vertex -18.6855 0.7 25.4726
      vertex -18.7865 0.7 25.6317
    endloop
  endfacet
  facet normal 0 1 -0
    outer loop
      vertex 18.6053 0.7 25.3022
      vertex -18.6855 0.7 25.4726
      vertex 18.6855 0.7 25.4726
    endloop
  endfacet
  facet normal 0 1 0
    outer loop
      vertex 18.6053 0.7 25.3022
      vertex -18.6053 0.7 25.3022
      vertex -18.6855 0.7 25.4726
    endloop
  endfacet
  facet normal 0 1 -0
    outer loop
      vertex 18.5471 0.7 25.123
      vertex -18.6053 0.7 25.3022
      vertex 18.6053 0.7 25.3022
    endloop
  endfacet
  facet normal 0 1 0
    outer loop
      vertex 18.5471 0.7 25.123
      vertex -18.5471 0.7 25.123
      vertex -18.6053 0.7 25.3022
    endloop
  endfacet
  facet normal 0 1 -0
    outer loop
      vertex 18.5118 0.7 24.938
      vertex -18.5471 0.7 25.123
      vertex 18.5471 0.7 25.123
    endloop
  endfacet
  facet normal 0 1 0
    outer loop
      vertex 18.5118 0.7 24.938
      vertex -18.5118 0.7 24.938
      vertex -18.5471 0.7 25.123
    endloop
  endfacet
  facet normal 0 1 -0
    outer loop
      vertex 18.5 0.7 24.75
      vertex -18.5118 0.7 24.938
      vertex 18.5118 0.7 24.938
    endloop
  endfacet
  facet normal 0 1 0
    outer loop
      vertex 18.5 0.7 24.75
      vertex -18.5 0.7 24.75
      vertex -18.5118 0.7 24.938
    endloop
  endfacet
  facet normal 0 1 0
    outer loop
      vertex 18.5118 0.7 24.562
      vertex -18.5 0.7 24.75
      vertex 18.5 0.7 24.75
    endloop
  endfacet
  facet normal 0 1 0
    outer loop
      vertex 18.5118 0.7 24.562
      vertex -18.5118 0.7 24.562
      vertex -18.5 0.7 24.75
    endloop
  endfacet
  facet normal 0 1 0
    outer loop
      vertex 18.5471 0.7 24.377
      vertex -18.5118 0.7 24.562
      vertex 18.5118 0.7 24.562
    endloop
  endfacet
  facet normal 0 1 0
    outer loop
      vertex 18.5471 0.7 24.377
      vertex -18.5471 0.7 24.377
      vertex -18.5118 0.7 24.562
    endloop
  endfacet
  facet normal 0 1 0
    outer loop
      vertex 18.6053 0.7 24.1978
      vertex -18.5471 0.7 24.377
      vertex 18.5471 0.7 24.377
    endloop
  endfacet
  facet normal 0 1 0
    outer loop
      vertex 18.6053 0.7 24.1978
      vertex -18.6053 0.7 24.1978
      vertex -18.5471 0.7 24.377
    endloop
  endfacet
  facet normal 0 1 0
    outer loop
      vertex 18.6855 0.7 24.0274
      vertex -18.6053 0.7 24.1978
      vertex 18.6053 0.7 24.1978
    endloop
  endfacet
  facet normal 0 1 0
    outer loop
      vertex 18.6855 0.7 24.0274
      vertex -18.6855 0.7 24.0274
      vertex -18.6053 0.7 24.1978
    endloop
  endfacet
  facet normal 0 1 0
    outer loop
      vertex 18.7865 0.7 23.8683
      vertex -18.6855 0.7 24.0274
      vertex 18.6855 0.7 24.0274
    endloop
  endfacet
  facet normal 0 1 0
    outer loop
      vertex 18.7865 0.7 23.8683
      vertex -18.7865 0.7 23.8683
      vertex -18.6855 0.7 24.0274
    endloop
  endfacet
  facet normal 0 1 0
    outer loop
      vertex 18.9065 0.7 23.7232
      vertex -18.7865 0.7 23.8683
      vertex 18.7865 0.7 23.8683
    endloop
  endfacet
  facet normal 0 1 0
    outer loop
      vertex 18.9065 0.7 23.7232
      vertex -18.9065 0.7 23.7232
      vertex -18.7865 0.7 23.8683
    endloop
  endfacet
  facet normal 0 1 0
    outer loop
      vertex 19.0439 0.7 23.5942
      vertex -18.9065 0.7 23.7232
      vertex 18.9065 0.7 23.7232
    endloop
  endfacet
  facet normal 0 1 0
    outer loop
      vertex 19.0439 0.7 23.5942
      vertex -19.0439 0.7 23.5942
      vertex -18.9065 0.7 23.7232
    endloop
  endfacet
  facet normal 0 1 0
    outer loop
      vertex 19.1963 0.7 23.4835
      vertex -19.0439 0.7 23.5942
      vertex 19.0439 0.7 23.5942
    endloop
  endfacet
  facet normal 0 1 0
    outer loop
      vertex 19.1963 0.7 23.4835
      vertex -19.1963 0.7 23.4835
      vertex -19.0439 0.7 23.5942
    endloop
  endfacet
  facet normal 0 1 0
    outer loop
      vertex 19.3613 0.7 23.3928
      vertex -19.1963 0.7 23.4835
      vertex 19.1963 0.7 23.4835
    endloop
  endfacet
  facet normal 0 1 0
    outer loop
      vertex 19.3613 0.7 23.3928
      vertex -19.3613 0.7 23.3928
      vertex -19.1963 0.7 23.4835
    endloop
  endfacet
  facet normal 0 1 0
    outer loop
      vertex 19.5365 0.7 23.3234
      vertex -19.3613 0.7 23.3928
      vertex 19.3613 0.7 23.3928
    endloop
  endfacet
  facet normal 0 1 0
    outer loop
      vertex 19.5365 0.7 23.3234
      vertex -19.5365 0.7 23.3234
      vertex -19.3613 0.7 23.3928
    endloop
  endfacet
  facet normal 0 1 0
    outer loop
      vertex 19.7189 0.7 23.2766
      vertex -19.5365 0.7 23.3234
      vertex 19.5365 0.7 23.3234
    endloop
  endfacet
  facet normal 0 1 0
    outer loop
      vertex 19.7189 0.7 23.2766
      vertex -19.7189 0.7 23.2766
      vertex -19.5365 0.7 23.3234
    endloop
  endfacet
  facet normal 0 1 0
    outer loop
      vertex -31 0.7 21
      vertex 19.7189 0.7 23.2766
      vertex 19.9058 0.7 23.253
    endloop
  endfacet
  facet normal 0 1 0
    outer loop
      vertex 19.7189 0.7 23.2766
      vertex -31 0.7 21
      vertex -19.7189 0.7 23.2766
    endloop
  endfacet
  facet normal 0 1 -0
    outer loop
      vertex 19.9058 0.7 26.247
      vertex -30.5478 0.7 29.1865
      vertex 46.2652 0.7 29.1865
    endloop
  endfacet
  facet normal 0 1 0
    outer loop
      vertex 39.2553 0.7 21
      vertex 46.2652 0.7 29.1865
      vertex 46.2652 0.7 27.1383
    endloop
  endfacet
  facet normal 0 1 -0
    outer loop
      vertex 19.7189 0.7 26.2234
      vertex -30.5478 0.7 29.1865
      vertex 19.9058 0.7 26.247
    endloop
  endfacet
  facet normal 0 1 -0
    outer loop
      vertex -20.0942 0.7 26.247
      vertex -30.5478 0.7 29.1865
      vertex -19.9058 0.7 26.247
    endloop
  endfacet
  facet normal 0 1 0
    outer loop
      vertex 46.2652 0.7 29.1865
      vertex 20.0942 0.7 26.247
      vertex 19.9058 0.7 26.247
    endloop
  endfacet
  facet normal 0 1 0
    outer loop
      vertex 46.2652 0.7 29.1865
      vertex 20.2811 0.7 26.2234
      vertex 20.0942 0.7 26.247
    endloop
  endfacet
  facet normal 0 1 0
    outer loop
      vertex 46.2652 0.7 29.1865
      vertex 20.4635 0.7 26.1766
      vertex 20.2811 0.7 26.2234
    endloop
  endfacet
  facet normal 0 1 0
    outer loop
      vertex 46.2652 0.7 29.1865
      vertex 20.6387 0.7 26.1072
      vertex 20.4635 0.7 26.1766
    endloop
  endfacet
  facet normal 0 1 0
    outer loop
      vertex 46.2652 0.7 29.1865
      vertex 20.8037 0.7 26.0165
      vertex 20.6387 0.7 26.1072
    endloop
  endfacet
  facet normal 0 1 0
    outer loop
      vertex 46.2652 0.7 29.1865
      vertex 20.9561 0.7 25.9058
      vertex 20.8037 0.7 26.0165
    endloop
  endfacet
  facet normal 0 1 0
    outer loop
      vertex 46.2652 0.7 29.1865
      vertex 21.0935 0.7 25.7768
      vertex 20.9561 0.7 25.9058
    endloop
  endfacet
  facet normal 0 1 0
    outer loop
      vertex 46.2652 0.7 29.1865
      vertex 21.2135 0.7 25.6317
      vertex 21.0935 0.7 25.7768
    endloop
  endfacet
  facet normal 0 1 0
    outer loop
      vertex 46.2652 0.7 29.1865
      vertex 39.2553 0.7 21
      vertex 21.2135 0.7 25.6317
    endloop
  endfacet
  facet normal 0 1 0
    outer loop
      vertex 21.2135 0.7 25.6317
      vertex 39.2553 0.7 21
      vertex 21.3145 0.7 25.4726
    endloop
  endfacet
  facet normal 0 1 0
    outer loop
      vertex 21.3145 0.7 25.4726
      vertex 39.2553 0.7 21
      vertex 21.3947 0.7 25.3022
    endloop
  endfacet
  facet normal 0 1 0
    outer loop
      vertex 21.3947 0.7 25.3022
      vertex 39.2553 0.7 21
      vertex 21.4529 0.7 25.123
    endloop
  endfacet
  facet normal 0 1 0
    outer loop
      vertex 21.4529 0.7 25.123
      vertex 39.2553 0.7 21
      vertex 21.4882 0.7 24.938
    endloop
  endfacet
  facet normal 0 1 0
    outer loop
      vertex 21.4882 0.7 24.938
      vertex 39.2553 0.7 21
      vertex 21.5 0.7 24.75
    endloop
  endfacet
  facet normal 0 1 0
    outer loop
      vertex 21.5 0.7 24.75
      vertex 39.2553 0.7 21
      vertex 21.4882 0.7 24.562
    endloop
  endfacet
  facet normal 0 1 0
    outer loop
      vertex 21.4882 0.7 24.562
      vertex 39.2553 0.7 21
      vertex 21.4529 0.7 24.377
    endloop
  endfacet
  facet normal 0 1 0
    outer loop
      vertex 21.4529 0.7 24.377
      vertex 39.2553 0.7 21
      vertex 21.3947 0.7 24.1978
    endloop
  endfacet
  facet normal 0 1 0
    outer loop
      vertex 21.3947 0.7 24.1978
      vertex 39.2553 0.7 21
      vertex 21.3145 0.7 24.0274
    endloop
  endfacet
  facet normal 0 1 0
    outer loop
      vertex 21.3145 0.7 24.0274
      vertex 39.2553 0.7 21
      vertex 21.2135 0.7 23.8683
    endloop
  endfacet
  facet normal 0 1 0
    outer loop
      vertex 21.2135 0.7 23.8683
      vertex 39.2553 0.7 21
      vertex 21.0935 0.7 23.7232
    endloop
  endfacet
  facet normal 0 1 0
    outer loop
      vertex 21.0935 0.7 23.7232
      vertex 39.2553 0.7 21
      vertex 20.9561 0.7 23.5942
    endloop
  endfacet
  facet normal 0 1 0
    outer loop
      vertex 20.9561 0.7 23.5942
      vertex 39.2553 0.7 21
      vertex 20.8037 0.7 23.4835
    endloop
  endfacet
  facet normal 0 1 0
    outer loop
      vertex 20.8037 0.7 23.4835
      vertex 39.2553 0.7 21
      vertex 20.6387 0.7 23.3928
    endloop
  endfacet
  facet normal 0 1 0
    outer loop
      vertex 20.6387 0.7 23.3928
      vertex 39.2553 0.7 21
      vertex 20.4635 0.7 23.3234
    endloop
  endfacet
  facet normal 0 1 0
    outer loop
      vertex 39.2553 0.7 21
      vertex 19.9058 0.7 23.253
      vertex 20.0942 0.7 23.253
    endloop
  endfacet
  facet normal 0 1 0
    outer loop
      vertex -19.7189 0.7 23.2766
      vertex -31 0.7 21
      vertex -19.9058 0.7 23.253
    endloop
  endfacet
  facet normal 0 1 0
    outer loop
      vertex 19.9058 0.7 23.253
      vertex 39.2553 0.7 21
      vertex -31 0.7 21
    endloop
  endfacet
  facet normal 0 1 0
    outer loop
      vertex 20.2811 0.7 23.2766
      vertex 39.2553 0.7 21
      vertex 20.0942 0.7 23.253
    endloop
  endfacet
  facet normal 0 1 0
    outer loop
      vertex 20.4635 0.7 23.3234
      vertex 39.2553 0.7 21
      vertex 20.2811 0.7 23.2766
    endloop
  endfacet
  facet normal 0 1 -0
    outer loop
      vertex -20.2811 0.7 26.2234
      vertex -30.5478 0.7 29.1865
      vertex -20.0942 0.7 26.247
    endloop
  endfacet
  facet normal 0 1 -0
    outer loop
      vertex -20.4635 0.7 26.1766
      vertex -30.5478 0.7 29.1865
      vertex -20.2811 0.7 26.2234
    endloop
  endfacet
  facet normal 0 1 -0
    outer loop
      vertex -20.6387 0.7 26.1072
      vertex -30.5478 0.7 29.1865
      vertex -20.4635 0.7 26.1766
    endloop
  endfacet
  facet normal 0 1 -0
    outer loop
      vertex -20.8037 0.7 26.0165
      vertex -30.5478 0.7 29.1865
      vertex -20.6387 0.7 26.1072
    endloop
  endfacet
  facet normal 0 1 -0
    outer loop
      vertex -20.9561 0.7 25.9058
      vertex -30.5478 0.7 29.1865
      vertex -20.8037 0.7 26.0165
    endloop
  endfacet
  facet normal 0 1 -0
    outer loop
      vertex -21.0935 0.7 25.7768
      vertex -30.5478 0.7 29.1865
      vertex -20.9561 0.7 25.9058
    endloop
  endfacet
  facet normal 0 1 -0
    outer loop
      vertex -21.2135 0.7 25.6317
      vertex -30.5478 0.7 29.1865
      vertex -21.0935 0.7 25.7768
    endloop
  endfacet
  facet normal 0 1 -0
    outer loop
      vertex -21.3145 0.7 25.4726
      vertex -30.5478 0.7 29.1865
      vertex -21.2135 0.7 25.6317
    endloop
  endfacet
  facet normal 0 1 0
    outer loop
      vertex -30.5478 0.7 29.1865
      vertex -21.3145 0.7 25.4726
      vertex -30.5478 0.7 27.1426
    endloop
  endfacet
  facet normal 0 1 -0
    outer loop
      vertex -21.3947 0.7 25.3022
      vertex -30.5478 0.7 27.1426
      vertex -21.3145 0.7 25.4726
    endloop
  endfacet
  facet normal 0 1 -0
    outer loop
      vertex -21.4529 0.7 25.123
      vertex -30.5478 0.7 27.1426
      vertex -21.3947 0.7 25.3022
    endloop
  endfacet
  facet normal 0 1 -0
    outer loop
      vertex -21.4882 0.7 24.938
      vertex -30.5478 0.7 27.1426
      vertex -21.4529 0.7 25.123
    endloop
  endfacet
  facet normal 0 1 -0
    outer loop
      vertex -21.5 0.7 24.75
      vertex -30.5478 0.7 27.1426
      vertex -21.4882 0.7 24.938
    endloop
  endfacet
  facet normal 0 1 0
    outer loop
      vertex -21.4882 0.7 24.562
      vertex -30.5478 0.7 27.1426
      vertex -21.5 0.7 24.75
    endloop
  endfacet
  facet normal 0 1 0
    outer loop
      vertex -31 0.7 21
      vertex -30.5478 0.7 27.1426
      vertex -21.4882 0.7 24.562
    endloop
  endfacet
  facet normal 0 1 0
    outer loop
      vertex -30.5478 0.7 27.1426
      vertex -31 0.7 21
      vertex -30.816 0.7 27.0165
    endloop
  endfacet
  facet normal 0 1 0
    outer loop
      vertex -31 0.7 21
      vertex -21.4882 0.7 24.562
      vertex -21.4529 0.7 24.377
    endloop
  endfacet
  facet normal 0 1 0
    outer loop
      vertex -31 0.7 21
      vertex -21.4529 0.7 24.377
      vertex -21.3947 0.7 24.1978
    endloop
  endfacet
  facet normal 0 1 0
    outer loop
      vertex -31 0.7 21
      vertex -21.3947 0.7 24.1978
      vertex -21.3145 0.7 24.0274
    endloop
  endfacet
  facet normal 0 1 0
    outer loop
      vertex -31 0.7 21
      vertex -21.3145 0.7 24.0274
      vertex -21.2135 0.7 23.8683
    endloop
  endfacet
  facet normal 0 1 0
    outer loop
      vertex -31 0.7 21
      vertex -21.2135 0.7 23.8683
      vertex -21.0935 0.7 23.7232
    endloop
  endfacet
  facet normal 0 1 0
    outer loop
      vertex -31 0.7 21
      vertex -21.0935 0.7 23.7232
      vertex -20.9561 0.7 23.5942
    endloop
  endfacet
  facet normal 0 1 0
    outer loop
      vertex -31 0.7 21
      vertex -20.9561 0.7 23.5942
      vertex -20.8037 0.7 23.4835
    endloop
  endfacet
  facet normal 0 1 0
    outer loop
      vertex -31 0.7 21
      vertex -20.8037 0.7 23.4835
      vertex -20.6387 0.7 23.3928
    endloop
  endfacet
  facet normal 0 1 0
    outer loop
      vertex -31 0.7 21
      vertex -20.6387 0.7 23.3928
      vertex -20.4635 0.7 23.3234
    endloop
  endfacet
  facet normal 0 1 0
    outer loop
      vertex -30.816 0.7 27.0165
      vertex -31 0.7 21
      vertex -31 0.7 26.9394
    endloop
  endfacet
  facet normal 0 1 0
    outer loop
      vertex -20.2811 0.7 23.2766
      vertex -31 0.7 21
      vertex -20.4635 0.7 23.3234
    endloop
  endfacet
  facet normal 0 1 0
    outer loop
      vertex -20.0942 0.7 23.253
      vertex -31 0.7 21
      vertex -20.2811 0.7 23.2766
    endloop
  endfacet
  facet normal 0 1 0
    outer loop
      vertex -19.9058 0.7 23.253
      vertex -31 0.7 21
      vertex -20.0942 0.7 23.253
    endloop
  endfacet
endsolid OpenSCAD_Model
