solid OpenSCAD_Model
  facet normal 0.7485107499821915 -0.6631226561964966 0
    outer loop
      vertex 3.453278496861458 -1.81242036819458 0
      vertex 2.215452514588833 -3.209637075662613 5
      vertex 2.215452514588833 -3.209637075662613 0
    endloop
  endfacet
  facet normal 0.7485107499821915 -0.6631226561964966 0
    outer loop
      vertex 3.453278496861458 -1.81242036819458 0
      vertex 3.453278496861458 -1.81242036819458 5
      vertex 2.215452514588833 -3.209637075662613 5
    endloop
  endfacet
  facet normal 0.9709418171297659 -0.23931566548963792 0
    outer loop
      vertex 3.899999998509884 0 0
      vertex 3.453278496861458 -1.81242036819458 5
      vertex 3.453278496861458 -1.81242036819458 0
    endloop
  endfacet
  facet normal 0.9709418171297659 -0.23931566548963792 0
    outer loop
      vertex 3.899999998509884 0 0
      vertex 3.899999998509884 0 5
      vertex 3.453278496861458 -1.81242036819458 5
    endloop
  endfacet
  facet normal 0.9709418171297659 0.23931566548963792 0
    outer loop
      vertex 3.453278496861458 1.81242036819458 0
      vertex 3.899999998509884 0 5
      vertex 3.899999998509884 0 0
    endloop
  endfacet
  facet normal 0.9709418171297659 0.23931566548963792 0
    outer loop
      vertex 3.453278496861458 1.81242036819458 0
      vertex 3.453278496861458 1.81242036819458 5
      vertex 3.899999998509884 0 5
    endloop
  endfacet
  facet normal 0.7485107499821915 0.6631226561964966 0
    outer loop
      vertex 2.215452514588833 3.209637075662613 0
      vertex 3.453278496861458 1.81242036819458 5
      vertex 3.453278496861458 1.81242036819458 0
    endloop
  endfacet
  facet normal 0.7485107499821915 0.6631226561964966 0
    outer loop
      vertex 2.215452514588833 3.209637075662613 0
      vertex 2.215452514588833 3.209637075662613 5
      vertex 3.453278496861458 1.81242036819458 5
    endloop
  endfacet
  facet normal 0.3546048891959922 0.9350162418687166 0
    outer loop
      vertex 0.4700930565595627 3.8715646117925644 0
      vertex 2.215452514588833 3.209637075662613 5
      vertex 2.215452514588833 3.209637075662613 0
    endloop
  endfacet
  facet normal 0.3546048891959922 0.9350162418687166 0
    outer loop
      vertex 0.4700930565595627 3.8715646117925644 0
      vertex 0.4700930565595627 3.8715646117925644 5
      vertex 2.215452514588833 3.209637075662613 5
    endloop
  endfacet
  facet normal -0.12053668291446955 0.9927088737751751 0
    outer loop
      vertex -1.382959060370922 3.646563343703747 0
      vertex 0.4700930565595627 3.8715646117925644 5
      vertex 0.4700930565595627 3.8715646117925644 0
    endloop
  endfacet
  facet normal -0.12053668291446955 0.9927088737751751 0
    outer loop
      vertex -1.382959060370922 3.646563343703747 0
      vertex -1.382959060370922 3.646563343703747 5
      vertex 0.4700930565595627 3.8715646117925644 5
    endloop
  endfacet
  facet normal -0.5680647446295932 0.8229838673442603 0
    outer loop
      vertex -2.9191919192671776 2.586178369820118 0
      vertex -1.382959060370922 3.646563343703747 5
      vertex -1.382959060370922 3.646563343703747 0
    endloop
  endfacet
  facet normal -0.5680647446295932 0.8229838673442603 0
    outer loop
      vertex -2.9191919192671776 2.586178369820118 0
      vertex -2.9191919192671776 2.586178369820118 5
      vertex -1.382959060370922 3.646563343703747 5
    endloop
  endfacet
  facet normal -0.8854560259283698 0.46472317151949527 0
    outer loop
      vertex -3.786673091351986 0.933331087231636 0
      vertex -2.9191919192671776 2.586178369820118 5
      vertex -2.9191919192671776 2.586178369820118 0
    endloop
  endfacet
  facet normal -0.8854560259283698 0.46472317151949527 0
    outer loop
      vertex -3.786673091351986 0.933331087231636 0
      vertex -3.786673091351986 0.933331087231636 5
      vertex -2.9191919192671776 2.586178369820118 5
    endloop
  endfacet
  facet normal -1 0 0
    outer loop
      vertex -3.786673091351986 -0.933331087231636 0
      vertex -3.786673091351986 0.933331087231636 5
      vertex -3.786673091351986 0.933331087231636 0
    endloop
  endfacet
  facet normal -1 0 0
    outer loop
      vertex -3.786673091351986 -0.933331087231636 0
      vertex -3.786673091351986 -0.933331087231636 5
      vertex -3.786673091351986 0.933331087231636 5
    endloop
  endfacet
  facet normal -0.8854560259283698 -0.46472317151949527 0
    outer loop
      vertex -2.9191919192671776 -2.586178369820118 0
      vertex -3.786673091351986 -0.933331087231636 5
      vertex -3.786673091351986 -0.933331087231636 0
    endloop
  endfacet
  facet normal -0.8854560259283698 -0.46472317151949527 0
    outer loop
      vertex -2.9191919192671776 -2.586178369820118 0
      vertex -2.9191919192671776 -2.586178369820118 5
      vertex -3.786673091351986 -0.933331087231636 5
    endloop
  endfacet
  facet normal -0.5680647446295932 -0.8229838673442603 0
    outer loop
      vertex -1.382959060370922 -3.646563343703747 0
      vertex -2.9191919192671776 -2.586178369820118 5
      vertex -2.9191919192671776 -2.586178369820118 0
    endloop
  endfacet
  facet normal -0.5680647446295932 -0.8229838673442603 0
    outer loop
      vertex -1.382959060370922 -3.646563343703747 0
      vertex -1.382959060370922 -3.646563343703747 5
      vertex -2.9191919192671776 -2.586178369820118 5
    endloop
  endfacet
  facet normal -0.12053668291446955 -0.9927088737751751 0
    outer loop
      vertex 0.4700930565595627 -3.8715646117925644 0
      vertex -1.382959060370922 -3.646563343703747 5
      vertex -1.382959060370922 -3.646563343703747 0
    endloop
  endfacet
  facet normal -0.12053668291446955 -0.9927088737751751 0
    outer loop
      vertex 0.4700930565595627 -3.8715646117925644 0
      vertex 0.4700930565595627 -3.8715646117925644 5
      vertex -1.382959060370922 -3.646563343703747 5
    endloop
  endfacet
  facet normal 0.3546048891959922 -0.9350162418687166 0
    outer loop
      vertex 2.215452514588833 -3.209637075662613 0
      vertex 0.4700930565595627 -3.8715646117925644 5
      vertex 0.4700930565595627 -3.8715646117925644 0
    endloop
  endfacet
  facet normal 0.3546048891959922 -0.9350162418687166 0
    outer loop
      vertex 2.215452514588833 -3.209637075662613 0
      vertex 2.215452514588833 -3.209637075662613 5
      vertex 0.4700930565595627 -3.8715646117925644 5
    endloop
  endfacet
  facet normal 0.5877852543643627 0.8090169928696315 0
    outer loop
      vertex -2.507952682673931 -1.8221342787146568 0
      vertex -2.507952682673931 -1.8221342787146568 5
      vertex -0.9579526856541634 -2.948275201022625 0
    endloop
  endfacet
  facet normal 0.5877852543643627 0.8090169928696315 0
    outer loop
      vertex -0.9579526856541634 -2.948275201022625 5
      vertex -0.9579526856541634 -2.948275201022625 0
      vertex -2.507952682673931 -1.8221342787146568 5
    endloop
  endfacet
  facet normal 0.9510565159146308 0.30901699554607603 0
    outer loop
      vertex -3.100000001490116 0 0
      vertex -3.100000001490116 0 5
      vertex -2.507952682673931 -1.8221342787146568 0
    endloop
  endfacet
  facet normal 0.9510565159146308 0.30901699554607603 0
    outer loop
      vertex -2.507952682673931 -1.8221342787146568 5
      vertex -2.507952682673931 -1.8221342787146568 0
      vertex -3.100000001490116 0 5
    endloop
  endfacet
  facet normal 0.9510565159146308 -0.30901699554607603 0
    outer loop
      vertex -2.507952682673931 1.8221342787146568 0
      vertex -2.507952682673931 1.8221342787146568 5
      vertex -3.100000001490116 0 0
    endloop
  endfacet
  facet normal 0.9510565159146308 -0.30901699554607603 0
    outer loop
      vertex -3.100000001490116 0 5
      vertex -3.100000001490116 0 0
      vertex -2.507952682673931 1.8221342787146568 5
    endloop
  endfacet
  facet normal 0.5877852543643627 -0.8090169928696315 0
    outer loop
      vertex -0.9579526856541634 2.948275201022625 0
      vertex -0.9579526856541634 2.948275201022625 5
      vertex -2.507952682673931 1.8221342787146568 0
    endloop
  endfacet
  facet normal 0.5877852543643627 -0.8090169928696315 0
    outer loop
      vertex -2.507952682673931 1.8221342787146568 5
      vertex -2.507952682673931 1.8221342787146568 0
      vertex -0.9579526856541634 2.948275201022625 5
    endloop
  endfacet
  facet normal 0 -1 0
    outer loop
      vertex 0.9579526856541634 2.948275201022625 0
      vertex 0.9579526856541634 2.948275201022625 5
      vertex -0.9579526856541634 2.948275201022625 0
    endloop
  endfacet
  facet normal 0 -1 0
    outer loop
      vertex -0.9579526856541634 2.948275201022625 5
      vertex -0.9579526856541634 2.948275201022625 0
      vertex 0.9579526856541634 2.948275201022625 5
    endloop
  endfacet
  facet normal -0.5877852543643627 -0.8090169928696315 0
    outer loop
      vertex 2.507952682673931 1.8221342787146568 0
      vertex 2.507952682673931 1.8221342787146568 5
      vertex 0.9579526856541634 2.948275201022625 0
    endloop
  endfacet
  facet normal -0.5877852543643627 -0.8090169928696315 0
    outer loop
      vertex 0.9579526856541634 2.948275201022625 5
      vertex 0.9579526856541634 2.948275201022625 0
      vertex 2.507952682673931 1.8221342787146568 5
    endloop
  endfacet
  facet normal -0.9510565159146308 -0.30901699554607603 0
    outer loop
      vertex 3.100000001490116 0 0
      vertex 3.100000001490116 0 5
      vertex 2.507952682673931 1.8221342787146568 0
    endloop
  endfacet
  facet normal -0.9510565159146308 -0.30901699554607603 0
    outer loop
      vertex 2.507952682673931 1.8221342787146568 5
      vertex 2.507952682673931 1.8221342787146568 0
      vertex 3.100000001490116 0 5
    endloop
  endfacet
  facet normal -0.9510565159146308 0.30901699554607603 0
    outer loop
      vertex 2.507952682673931 -1.8221342787146568 0
      vertex 2.507952682673931 -1.8221342787146568 5
      vertex 3.100000001490116 0 0
    endloop
  endfacet
  facet normal -0.9510565159146308 0.30901699554607603 0
    outer loop
      vertex 3.100000001490116 0 5
      vertex 3.100000001490116 0 0
      vertex 2.507952682673931 -1.8221342787146568 5
    endloop
  endfacet
  facet normal -0.5877852543643627 0.8090169928696315 0
    outer loop
      vertex 0.9579526856541634 -2.948275201022625 0
      vertex 0.9579526856541634 -2.948275201022625 5
      vertex 2.507952682673931 -1.8221342787146568 0
    endloop
  endfacet
  facet normal -0.5877852543643627 0.8090169928696315 0
    outer loop
      vertex 2.507952682673931 -1.8221342787146568 5
      vertex 2.507952682673931 -1.8221342787146568 0
      vertex 0.9579526856541634 -2.948275201022625 5
    endloop
  endfacet
  facet normal 0 1 0
    outer loop
      vertex -0.9579526856541634 -2.948275201022625 0
      vertex -0.9579526856541634 -2.948275201022625 5
      vertex 0.9579526856541634 -2.948275201022625 0
    endloop
  endfacet
  facet normal 0 1 0
    outer loop
      vertex 0.9579526856541634 -2.948275201022625 5
      vertex 0.9579526856541634 -2.948275201022625 0
      vertex -0.9579526856541634 -2.948275201022625 5
    endloop
  endfacet
  facet normal 0 0 -1
    outer loop
      vertex 3.453278496861458 1.81242036819458 0
      vertex 3.899999998509884 0 0
      vertex 3.100000001490116 0 0
    endloop
  endfacet
  facet normal 0 0 -1
    outer loop
      vertex 3.453278496861458 1.81242036819458 0
      vertex 3.100000001490116 0 0
      vertex 2.507952682673931 1.8221342787146568 0
    endloop
  endfacet
  facet normal 0 0 -1
    outer loop
      vertex 2.215452514588833 3.209637075662613 0
      vertex 3.453278496861458 1.81242036819458 0
      vertex 2.507952682673931 1.8221342787146568 0
    endloop
  endfacet
  facet normal 0 0 -1
    outer loop
      vertex 2.215452514588833 3.209637075662613 0
      vertex 2.507952682673931 1.8221342787146568 0
      vertex 0.9579526856541634 2.948275201022625 0
    endloop
  endfacet
  facet normal 0 0 -1
    outer loop
      vertex 0.4700930565595627 3.8715646117925644 0
      vertex 2.215452514588833 3.209637075662613 0
      vertex 0.9579526856541634 2.948275201022625 0
    endloop
  endfacet
  facet normal 0 0 -1
    outer loop
      vertex 0.4700930565595627 3.8715646117925644 0
      vertex 0.9579526856541634 2.948275201022625 0
      vertex -0.9579526856541634 2.948275201022625 0
    endloop
  endfacet
  facet normal 0 0 -1
    outer loop
      vertex -1.382959060370922 3.646563343703747 0
      vertex 0.4700930565595627 3.8715646117925644 0
      vertex -0.9579526856541634 2.948275201022625 0
    endloop
  endfacet
  facet normal 0 0 -1
    outer loop
      vertex 3.100000001490116 0 0
      vertex 3.899999998509884 0 0
      vertex 3.453278496861458 -1.81242036819458 0
    endloop
  endfacet
  facet normal 0 0 -1
    outer loop
      vertex 2.507952682673931 -1.8221342787146568 0
      vertex 3.100000001490116 0 0
      vertex 3.453278496861458 -1.81242036819458 0
    endloop
  endfacet
  facet normal 0 0 -1
    outer loop
      vertex 2.507952682673931 -1.8221342787146568 0
      vertex 3.453278496861458 -1.81242036819458 0
      vertex 2.215452514588833 -3.209637075662613 0
    endloop
  endfacet
  facet normal 0 0 -1
    outer loop
      vertex 0.9579526856541634 -2.948275201022625 0
      vertex 2.507952682673931 -1.8221342787146568 0
      vertex 2.215452514588833 -3.209637075662613 0
    endloop
  endfacet
  facet normal 0 0 -1
    outer loop
      vertex 0.9579526856541634 -2.948275201022625 0
      vertex 2.215452514588833 -3.209637075662613 0
      vertex 0.4700930565595627 -3.8715646117925644 0
    endloop
  endfacet
  facet normal 0 0 -1
    outer loop
      vertex -0.9579526856541634 -2.948275201022625 0
      vertex 0.9579526856541634 -2.948275201022625 0
      vertex 0.4700930565595627 -3.8715646117925644 0
    endloop
  endfacet
  facet normal 0 0 -1
    outer loop
      vertex -0.9579526856541634 -2.948275201022625 0
      vertex 0.4700930565595627 -3.8715646117925644 0
      vertex -1.382959060370922 -3.646563343703747 0
    endloop
  endfacet
  facet normal 0 0 -1
    outer loop
      vertex -2.9191919192671776 2.586178369820118 0
      vertex -1.382959060370922 3.646563343703747 0
      vertex -0.9579526856541634 2.948275201022625 0
    endloop
  endfacet
  facet normal 0 0 -1
    outer loop
      vertex -2.9191919192671776 2.586178369820118 0
      vertex -0.9579526856541634 2.948275201022625 0
      vertex -2.507952682673931 1.8221342787146568 0
    endloop
  endfacet
  facet normal 0 0 -1
    outer loop
      vertex -3.786673091351986 0.933331087231636 0
      vertex -2.9191919192671776 2.586178369820118 0
      vertex -2.507952682673931 1.8221342787146568 0
    endloop
  endfacet
  facet normal 0 0 -1
    outer loop
      vertex -3.786673091351986 0.933331087231636 0
      vertex -2.507952682673931 1.8221342787146568 0
      vertex -3.100000001490116 0 0
    endloop
  endfacet
  facet normal 0 0 -1
    outer loop
      vertex -3.786673091351986 -0.933331087231636 0
      vertex -3.786673091351986 0.933331087231636 0
      vertex -3.100000001490116 0 0
    endloop
  endfacet
  facet normal 0 0 -1
    outer loop
      vertex -3.786673091351986 -0.933331087231636 0
      vertex -3.100000001490116 0 0
      vertex -2.507952682673931 -1.8221342787146568 0
    endloop
  endfacet
  facet normal 0 0 -1
    outer loop
      vertex -2.9191919192671776 -2.586178369820118 0
      vertex -3.786673091351986 -0.933331087231636 0
      vertex -2.507952682673931 -1.8221342787146568 0
    endloop
  endfacet
  facet normal 0 0 -1
    outer loop
      vertex -2.9191919192671776 -2.586178369820118 0
      vertex -2.507952682673931 -1.8221342787146568 0
      vertex -0.9579526856541634 -2.948275201022625 0
    endloop
  endfacet
  facet normal 0 0 -1
    outer loop
      vertex -1.382959060370922 -3.646563343703747 0
      vertex -2.9191919192671776 -2.586178369820118 0
      vertex -0.9579526856541634 -2.948275201022625 0
    endloop
  endfacet
  facet normal 0 0 1
    outer loop
      vertex 3.100000001490116 0 5
      vertex 3.899999998509884 0 5
      vertex 3.453278496861458 1.81242036819458 5
    endloop
  endfacet
  facet normal 0 0 1
    outer loop
      vertex 2.507952682673931 1.8221342787146568 5
      vertex 3.100000001490116 0 5
      vertex 3.453278496861458 1.81242036819458 5
    endloop
  endfacet
  facet normal 0 0 1
    outer loop
      vertex 2.507952682673931 1.8221342787146568 5
      vertex 3.453278496861458 1.81242036819458 5
      vertex 2.215452514588833 3.209637075662613 5
    endloop
  endfacet
  facet normal 0 0 1
    outer loop
      vertex 0.9579526856541634 2.948275201022625 5
      vertex 2.507952682673931 1.8221342787146568 5
      vertex 2.215452514588833 3.209637075662613 5
    endloop
  endfacet
  facet normal 0 0 1
    outer loop
      vertex 0.9579526856541634 2.948275201022625 5
      vertex 2.215452514588833 3.209637075662613 5
      vertex 0.4700930565595627 3.8715646117925644 5
    endloop
  endfacet
  facet normal 0 0 1
    outer loop
      vertex -0.9579526856541634 2.948275201022625 5
      vertex 0.9579526856541634 2.948275201022625 5
      vertex 0.4700930565595627 3.8715646117925644 5
    endloop
  endfacet
  facet normal 0 0 1
    outer loop
      vertex -0.9579526856541634 2.948275201022625 5
      vertex 0.4700930565595627 3.8715646117925644 5
      vertex -1.382959060370922 3.646563343703747 5
    endloop
  endfacet
  facet normal 0 0 1
    outer loop
      vertex 3.453278496861458 -1.81242036819458 5
      vertex 3.899999998509884 0 5
      vertex 3.100000001490116 0 5
    endloop
  endfacet
  facet normal 0 0 1
    outer loop
      vertex 3.453278496861458 -1.81242036819458 5
      vertex 3.100000001490116 0 5
      vertex 2.507952682673931 -1.8221342787146568 5
    endloop
  endfacet
  facet normal 0 0 1
    outer loop
      vertex 2.215452514588833 -3.209637075662613 5
      vertex 3.453278496861458 -1.81242036819458 5
      vertex 2.507952682673931 -1.8221342787146568 5
    endloop
  endfacet
  facet normal 0 0 1
    outer loop
      vertex 2.215452514588833 -3.209637075662613 5
      vertex 2.507952682673931 -1.8221342787146568 5
      vertex 0.9579526856541634 -2.948275201022625 5
    endloop
  endfacet
  facet normal 0 0 1
    outer loop
      vertex 0.4700930565595627 -3.8715646117925644 5
      vertex 2.215452514588833 -3.209637075662613 5
      vertex 0.9579526856541634 -2.948275201022625 5
    endloop
  endfacet
  facet normal 0 0 1
    outer loop
      vertex 0.4700930565595627 -3.8715646117925644 5
      vertex 0.9579526856541634 -2.948275201022625 5
      vertex -0.9579526856541634 -2.948275201022625 5
    endloop
  endfacet
  facet normal 0 0 1
    outer loop
      vertex -1.382959060370922 -3.646563343703747 5
      vertex 0.4700930565595627 -3.8715646117925644 5
      vertex -0.9579526856541634 -2.948275201022625 5
    endloop
  endfacet
  facet normal 0 0 1
    outer loop
      vertex -0.9579526856541634 2.948275201022625 5
      vertex -1.382959060370922 3.646563343703747 5
      vertex -2.9191919192671776 2.586178369820118 5
    endloop
  endfacet
  facet normal 0 0 1
    outer loop
      vertex -2.507952682673931 1.8221342787146568 5
      vertex -0.9579526856541634 2.948275201022625 5
      vertex -2.9191919192671776 2.586178369820118 5
    endloop
  endfacet
  facet normal 0 0 1
    outer loop
      vertex -2.507952682673931 1.8221342787146568 5
      vertex -2.9191919192671776 2.586178369820118 5
      vertex -3.786673091351986 0.933331087231636 5
    endloop
  endfacet
  facet normal 0 0 1
    outer loop
      vertex -3.100000001490116 0 5
      vertex -2.507952682673931 1.8221342787146568 5
      vertex -3.786673091351986 0.933331087231636 5
    endloop
  endfacet
  facet normal 0 0 1
    outer loop
      vertex -3.100000001490116 0 5
      vertex -3.786673091351986 0.933331087231636 5
      vertex -3.786673091351986 -0.933331087231636 5
    endloop
  endfacet
  facet normal 0 0 1
    outer loop
      vertex -2.507952682673931 -1.8221342787146568 5
      vertex -3.100000001490116 0 5
      vertex -3.786673091351986 -0.933331087231636 5
    endloop
  endfacet
  facet normal 0 0 1
    outer loop
      vertex -2.507952682673931 -1.8221342787146568 5
      vertex -3.786673091351986 -0.933331087231636 5
      vertex -2.9191919192671776 -2.586178369820118 5
    endloop
  endfacet
  facet normal 0 0 1
    outer loop
      vertex -0.9579526856541634 -2.948275201022625 5
      vertex -2.507952682673931 -1.8221342787146568 5
      vertex -2.9191919192671776 -2.586178369820118 5
    endloop
  endfacet
  facet normal 0 0 1
    outer loop
      vertex -0.9579526856541634 -2.948275201022625 5
      vertex -2.9191919192671776 -2.586178369820118 5
      vertex -1.382959060370922 -3.646563343703747 5
    endloop
  endfacet
endsolid OpenSCAD_Model
