solid OpenSCAD_Model
  facet normal 0.4067366425725064 -0.9135454578666817 0
    outer loop
      vertex 6.225000001490116 -10.782016277313232 0
      vertex 3.8472615778446198 -11.840653628110886 5
      vertex 3.8472615778446198 -11.840653628110886 0
    endloop
  endfacet
  facet normal 0.4067366425725064 -0.9135454578666817 0
    outer loop
      vertex 6.225000001490116 -10.782016277313232 0
      vertex 6.225000001490116 -10.782016277313232 5
      vertex 3.8472615778446198 -11.840653628110886 5
    endloop
  endfacet
  facet normal 0.5877852528879218 -0.8090169939423286 0
    outer loop
      vertex 8.330676048994064 -9.25215307623148 0
      vertex 6.225000001490116 -10.782016277313232 5
      vertex 6.225000001490116 -10.782016277313232 0
    endloop
  endfacet
  facet normal 0.5877852528879218 -0.8090169939423286 0
    outer loop
      vertex 8.330676048994064 -9.25215307623148 0
      vertex 8.330676048994064 -9.25215307623148 5
      vertex 6.225000001490116 -10.782016277313232 5
    endloop
  endfacet
  facet normal 0.7431448252418085 -0.6691306066205027 0
    outer loop
      vertex 10.072261579334736 -7.31792639195919 0
      vertex 8.330676048994064 -9.25215307623148 5
      vertex 8.330676048994064 -9.25215307623148 0
    endloop
  endfacet
  facet normal 0.7431448252418085 -0.6691306066205027 0
    outer loop
      vertex 10.072261579334736 -7.31792639195919 0
      vertex 10.072261579334736 -7.31792639195919 5
      vertex 8.330676048994064 -9.25215307623148 5
    endloop
  endfacet
  facet normal 0.8660254040065115 -0.49999999961535874 0
    outer loop
      vertex 11.373640947043896 -5.063871204853058 0
      vertex 10.072261579334736 -7.31792639195919 5
      vertex 10.072261579334736 -7.31792639195919 0
    endloop
  endfacet
  facet normal 0.8660254040065115 -0.49999999961535874 0
    outer loop
      vertex 11.373640947043896 -5.063871204853058 0
      vertex 11.373640947043896 -5.063871204853058 5
      vertex 10.072261579334736 -7.31792639195919 5
    endloop
  endfacet
  facet normal 0.9510565163892419 -0.30901699408537303 0
    outer loop
      vertex 12.177937626838684 -2.588500551879406 0
      vertex 11.373640947043896 -5.063871204853058 5
      vertex 11.373640947043896 -5.063871204853058 0
    endloop
  endfacet
  facet normal 0.9510565163892419 -0.30901699408537303 0
    outer loop
      vertex 12.177937626838684 -2.588500551879406 0
      vertex 12.177937626838684 -2.588500551879406 5
      vertex 11.373640947043896 -5.063871204853058 5
    endloop
  endfacet
  facet normal 0.9945218951625198 -0.10452846522526694 0
    outer loop
      vertex 12.450000002980232 0 0
      vertex 12.177937626838684 -2.588500551879406 5
      vertex 12.177937626838684 -2.588500551879406 0
    endloop
  endfacet
  facet normal 0.9945218951625198 -0.10452846522526694 0
    outer loop
      vertex 12.450000002980232 0 0
      vertex 12.450000002980232 0 5
      vertex 12.177937626838684 -2.588500551879406 5
    endloop
  endfacet
  facet normal 0.9945218951625198 0.10452846522526694 0
    outer loop
      vertex 12.177937626838684 2.588500551879406 0
      vertex 12.450000002980232 0 5
      vertex 12.450000002980232 0 0
    endloop
  endfacet
  facet normal 0.9945218951625198 0.10452846522526694 0
    outer loop
      vertex 12.177937626838684 2.588500551879406 0
      vertex 12.177937626838684 2.588500551879406 5
      vertex 12.450000002980232 0 5
    endloop
  endfacet
  facet normal 0.9510565163892419 0.30901699408537303 0
    outer loop
      vertex 11.373640947043896 5.063871204853058 0
      vertex 12.177937626838684 2.588500551879406 5
      vertex 12.177937626838684 2.588500551879406 0
    endloop
  endfacet
  facet normal 0.9510565163892419 0.30901699408537303 0
    outer loop
      vertex 11.373640947043896 5.063871204853058 0
      vertex 11.373640947043896 5.063871204853058 5
      vertex 12.177937626838684 2.588500551879406 5
    endloop
  endfacet
  facet normal 0.8660254040065115 0.49999999961535874 0
    outer loop
      vertex 10.072261579334736 7.31792639195919 0
      vertex 11.373640947043896 5.063871204853058 5
      vertex 11.373640947043896 5.063871204853058 0
    endloop
  endfacet
  facet normal 0.8660254040065115 0.49999999961535874 0
    outer loop
      vertex 10.072261579334736 7.31792639195919 0
      vertex 10.072261579334736 7.31792639195919 5
      vertex 11.373640947043896 5.063871204853058 5
    endloop
  endfacet
  facet normal 0.7431448252418085 0.6691306066205027 0
    outer loop
      vertex 8.330676048994064 9.25215307623148 0
      vertex 10.072261579334736 7.31792639195919 5
      vertex 10.072261579334736 7.31792639195919 0
    endloop
  endfacet
  facet normal 0.7431448252418085 0.6691306066205027 0
    outer loop
      vertex 8.330676048994064 9.25215307623148 0
      vertex 8.330676048994064 9.25215307623148 5
      vertex 10.072261579334736 7.31792639195919 5
    endloop
  endfacet
  facet normal 0.5877852528879218 0.8090169939423286 0
    outer loop
      vertex 6.225000001490116 10.782016277313232 0
      vertex 8.330676048994064 9.25215307623148 5
      vertex 8.330676048994064 9.25215307623148 0
    endloop
  endfacet
  facet normal 0.5877852528879218 0.8090169939423286 0
    outer loop
      vertex 6.225000001490116 10.782016277313232 0
      vertex 6.225000001490116 10.782016277313232 5
      vertex 8.330676048994064 9.25215307623148 5
    endloop
  endfacet
  facet normal 0.4067366425725064 0.9135454578666817 0
    outer loop
      vertex 3.8472615778446198 11.840653628110886 0
      vertex 6.225000001490116 10.782016277313232 5
      vertex 6.225000001490116 10.782016277313232 0
    endloop
  endfacet
  facet normal 0.4067366425725064 0.9135454578666817 0
    outer loop
      vertex 3.8472615778446198 11.840653628110886 0
      vertex 3.8472615778446198 11.840653628110886 5
      vertex 6.225000001490116 10.782016277313232 5
    endloop
  endfacet
  facet normal 0.2079116907067783 0.9781476007573955 0
    outer loop
      vertex 1.3013793677091599 12.381797596812248 0
      vertex 3.8472615778446198 11.840653628110886 5
      vertex 3.8472615778446198 11.840653628110886 0
    endloop
  endfacet
  facet normal 0.2079116907067783 0.9781476007573955 0
    outer loop
      vertex 1.3013793677091599 12.381797596812248 0
      vertex 1.3013793677091599 12.381797596812248 5
      vertex 3.8472615778446198 11.840653628110886 5
    endloop
  endfacet
  facet normal 0 1 0
    outer loop
      vertex -1.3013793677091599 12.381797596812248 0
      vertex 1.3013793677091599 12.381797596812248 5
      vertex 1.3013793677091599 12.381797596812248 0
    endloop
  endfacet
  facet normal 0 1 0
    outer loop
      vertex -1.3013793677091599 12.381797596812248 0
      vertex -1.3013793677091599 12.381797596812248 5
      vertex 1.3013793677091599 12.381797596812248 5
    endloop
  endfacet
  facet normal -0.2079116907067783 0.9781476007573955 0
    outer loop
      vertex -3.8472615778446198 11.840653628110886 0
      vertex -1.3013793677091599 12.381797596812248 5
      vertex -1.3013793677091599 12.381797596812248 0
    endloop
  endfacet
  facet normal -0.2079116907067783 0.9781476007573955 0
    outer loop
      vertex -3.8472615778446198 11.840653628110886 0
      vertex -3.8472615778446198 11.840653628110886 5
      vertex -1.3013793677091599 12.381797596812248 5
    endloop
  endfacet
  facet normal -0.4067366425725064 0.9135454578666817 0
    outer loop
      vertex -6.225000001490116 10.782016277313232 0
      vertex -3.8472615778446198 11.840653628110886 5
      vertex -3.8472615778446198 11.840653628110886 0
    endloop
  endfacet
  facet normal -0.4067366425725064 0.9135454578666817 0
    outer loop
      vertex -6.225000001490116 10.782016277313232 0
      vertex -6.225000001490116 10.782016277313232 5
      vertex -3.8472615778446198 11.840653628110886 5
    endloop
  endfacet
  facet normal -0.5877852528879218 0.8090169939423286 0
    outer loop
      vertex -8.330676048994064 9.25215307623148 0
      vertex -6.225000001490116 10.782016277313232 5
      vertex -6.225000001490116 10.782016277313232 0
    endloop
  endfacet
  facet normal -0.5877852528879218 0.8090169939423286 0
    outer loop
      vertex -8.330676048994064 9.25215307623148 0
      vertex -8.330676048994064 9.25215307623148 5
      vertex -6.225000001490116 10.782016277313232 5
    endloop
  endfacet
  facet normal -0.7431448252418085 0.6691306066205027 0
    outer loop
      vertex -10.072261579334736 7.31792639195919 0
      vertex -8.330676048994064 9.25215307623148 5
      vertex -8.330676048994064 9.25215307623148 0
    endloop
  endfacet
  facet normal -0.7431448252418085 0.6691306066205027 0
    outer loop
      vertex -10.072261579334736 7.31792639195919 0
      vertex -10.072261579334736 7.31792639195919 5
      vertex -8.330676048994064 9.25215307623148 5
    endloop
  endfacet
  facet normal -0.8660254040065115 0.49999999961535874 0
    outer loop
      vertex -11.373640947043896 5.063871204853058 0
      vertex -10.072261579334736 7.31792639195919 5
      vertex -10.072261579334736 7.31792639195919 0
    endloop
  endfacet
  facet normal -0.8660254040065115 0.49999999961535874 0
    outer loop
      vertex -11.373640947043896 5.063871204853058 0
      vertex -11.373640947043896 5.063871204853058 5
      vertex -10.072261579334736 7.31792639195919 5
    endloop
  endfacet
  facet normal -0.9510565163892419 0.30901699408537303 0
    outer loop
      vertex -12.177937626838684 2.588500551879406 0
      vertex -11.373640947043896 5.063871204853058 5
      vertex -11.373640947043896 5.063871204853058 0
    endloop
  endfacet
  facet normal -0.9510565163892419 0.30901699408537303 0
    outer loop
      vertex -12.177937626838684 2.588500551879406 0
      vertex -12.177937626838684 2.588500551879406 5
      vertex -11.373640947043896 5.063871204853058 5
    endloop
  endfacet
  facet normal -0.9945218951625198 0.10452846522526694 0
    outer loop
      vertex -12.450000002980232 0 0
      vertex -12.177937626838684 2.588500551879406 5
      vertex -12.177937626838684 2.588500551879406 0
    endloop
  endfacet
  facet normal -0.9945218951625198 0.10452846522526694 0
    outer loop
      vertex -12.450000002980232 0 0
      vertex -12.450000002980232 0 5
      vertex -12.177937626838684 2.588500551879406 5
    endloop
  endfacet
  facet normal -0.9945218951625198 -0.10452846522526694 0
    outer loop
      vertex -12.177937626838684 -2.588500551879406 0
      vertex -12.450000002980232 0 5
      vertex -12.450000002980232 0 0
    endloop
  endfacet
  facet normal -0.9945218951625198 -0.10452846522526694 0
    outer loop
      vertex -12.177937626838684 -2.588500551879406 0
      vertex -12.177937626838684 -2.588500551879406 5
      vertex -12.450000002980232 0 5
    endloop
  endfacet
  facet normal -0.9510565163892419 -0.30901699408537303 0
    outer loop
      vertex -11.373640947043896 -5.063871204853058 0
      vertex -12.177937626838684 -2.588500551879406 5
      vertex -12.177937626838684 -2.588500551879406 0
    endloop
  endfacet
  facet normal -0.9510565163892419 -0.30901699408537303 0
    outer loop
      vertex -11.373640947043896 -5.063871204853058 0
      vertex -11.373640947043896 -5.063871204853058 5
      vertex -12.177937626838684 -2.588500551879406 5
    endloop
  endfacet
  facet normal -0.8660254040065115 -0.49999999961535874 0
    outer loop
      vertex -10.072261579334736 -7.31792639195919 0
      vertex -11.373640947043896 -5.063871204853058 5
      vertex -11.373640947043896 -5.063871204853058 0
    endloop
  endfacet
  facet normal -0.8660254040065115 -0.49999999961535874 0
    outer loop
      vertex -10.072261579334736 -7.31792639195919 0
      vertex -10.072261579334736 -7.31792639195919 5
      vertex -11.373640947043896 -5.063871204853058 5
    endloop
  endfacet
  facet normal -0.7431448252418085 -0.6691306066205027 0
    outer loop
      vertex -8.330676048994064 -9.25215307623148 0
      vertex -10.072261579334736 -7.31792639195919 5
      vertex -10.072261579334736 -7.31792639195919 0
    endloop
  endfacet
  facet normal -0.7431448252418085 -0.6691306066205027 0
    outer loop
      vertex -8.330676048994064 -9.25215307623148 0
      vertex -8.330676048994064 -9.25215307623148 5
      vertex -10.072261579334736 -7.31792639195919 5
    endloop
  endfacet
  facet normal -0.5877852528879218 -0.8090169939423286 0
    outer loop
      vertex -6.225000001490116 -10.782016277313232 0
      vertex -8.330676048994064 -9.25215307623148 5
      vertex -8.330676048994064 -9.25215307623148 0
    endloop
  endfacet
  facet normal -0.5877852528879218 -0.8090169939423286 0
    outer loop
      vertex -6.225000001490116 -10.782016277313232 0
      vertex -6.225000001490116 -10.782016277313232 5
      vertex -8.330676048994064 -9.25215307623148 5
    endloop
  endfacet
  facet normal -0.4067366425725064 -0.9135454578666817 0
    outer loop
      vertex -3.8472615778446198 -11.840653628110886 0
      vertex -6.225000001490116 -10.782016277313232 5
      vertex -6.225000001490116 -10.782016277313232 0
    endloop
  endfacet
  facet normal -0.4067366425725064 -0.9135454578666817 0
    outer loop
      vertex -3.8472615778446198 -11.840653628110886 0
      vertex -3.8472615778446198 -11.840653628110886 5
      vertex -6.225000001490116 -10.782016277313232 5
    endloop
  endfacet
  facet normal -0.2079116907067783 -0.9781476007573955 0
    outer loop
      vertex -1.3013793677091599 -12.381797596812248 0
      vertex -3.8472615778446198 -11.840653628110886 5
      vertex -3.8472615778446198 -11.840653628110886 0
    endloop
  endfacet
  facet normal -0.2079116907067783 -0.9781476007573955 0
    outer loop
      vertex -1.3013793677091599 -12.381797596812248 0
      vertex -1.3013793677091599 -12.381797596812248 5
      vertex -3.8472615778446198 -11.840653628110886 5
    endloop
  endfacet
  facet normal 0 -1 0
    outer loop
      vertex 1.3013793677091599 -12.381797596812248 0
      vertex -1.3013793677091599 -12.381797596812248 5
      vertex -1.3013793677091599 -12.381797596812248 0
    endloop
  endfacet
  facet normal 0 -1 0
    outer loop
      vertex 1.3013793677091599 -12.381797596812248 0
      vertex 1.3013793677091599 -12.381797596812248 5
      vertex -1.3013793677091599 -12.381797596812248 5
    endloop
  endfacet
  facet normal 0.2079116907067783 -0.9781476007573955 0
    outer loop
      vertex 3.8472615778446198 -11.840653628110886 0
      vertex 1.3013793677091599 -12.381797596812248 5
      vertex 1.3013793677091599 -12.381797596812248 0
    endloop
  endfacet
  facet normal 0.2079116907067783 -0.9781476007573955 0
    outer loop
      vertex 3.8472615778446198 -11.840653628110886 0
      vertex 3.8472615778446198 -11.840653628110886 5
      vertex 1.3013793677091599 -12.381797596812248 5
    endloop
  endfacet
  facet normal 0.2079116909923588 0.9781476006966934 0
    outer loop
      vertex -3.414637789130211 -10.50917450338602 0
      vertex -3.414637789130211 -10.50917450338602 5
      vertex -1.155039519071579 -10.989466942846775 0
    endloop
  endfacet
  facet normal 0.2079116909923588 0.9781476006966934 0
    outer loop
      vertex -1.155039519071579 -10.989466942846775 5
      vertex -1.155039519071579 -10.989466942846775 0
      vertex -3.414637789130211 -10.50917450338602 5
    endloop
  endfacet
  facet normal 0.40673664305944923 0.9135454576498808 0
    outer loop
      vertex -5.524999998509884 -9.56958071142435 0
      vertex -5.524999998509884 -9.56958071142435 5
      vertex -3.414637789130211 -10.50917450338602 0
    endloop
  endfacet
  facet normal 0.40673664305944923 0.9135454576498808 0
    outer loop
      vertex -3.414637789130211 -10.50917450338602 5
      vertex -3.414637789130211 -10.50917450338602 0
      vertex -5.524999998509884 -9.56958071142435 5
    endloop
  endfacet
  facet normal 0.5877852526327947 0.8090169941276895 0
    outer loop
      vertex -7.393893197178841 -8.211750321090221 0
      vertex -7.393893197178841 -8.211750321090221 5
      vertex -5.524999998509884 -9.56958071142435 0
    endloop
  endfacet
  facet normal 0.5877852526327947 0.8090169941276895 0
    outer loop
      vertex -5.524999998509884 -9.56958071142435 5
      vertex -5.524999998509884 -9.56958071142435 0
      vertex -7.393893197178841 -8.211750321090221 5
    endloop
  endfacet
  facet normal 0.743144825229239 0.6691306066344628 0
    outer loop
      vertex -8.939637787640095 -6.495027035474777 0
      vertex -8.939637787640095 -6.495027035474777 5
      vertex -7.393893197178841 -8.211750321090221 0
    endloop
  endfacet
  facet normal 0.743144825229239 0.6691306066344628 0
    outer loop
      vertex -7.393893197178841 -8.211750321090221 5
      vertex -7.393893197178841 -8.211750321090221 0
      vertex -8.939637787640095 -6.495027035474777 5
    endloop
  endfacet
  facet normal 0.8660254033862795 0.5000000006896319 0
    outer loop
      vertex -10.094677306711674 -4.494439907371998 0
      vertex -10.094677306711674 -4.494439907371998 5
      vertex -8.939637787640095 -6.495027035474777 0
    endloop
  endfacet
  facet normal 0.8660254033862795 0.5000000006896319 0
    outer loop
      vertex -8.939637787640095 -6.495027035474777 5
      vertex -8.939637787640095 -6.495027035474777 0
      vertex -10.094677306711674 -4.494439907371998 5
    endloop
  endfacet
  facet normal 0.9510565166021779 0.3090169934300232 0
    outer loop
      vertex -10.808530986309052 -2.2974241822957993 0
      vertex -10.808530986309052 -2.2974241822957993 5
      vertex -10.094677306711674 -4.494439907371998 0
    endloop
  endfacet
  facet normal 0.9510565166021779 0.3090169934300232 0
    outer loop
      vertex -10.094677306711674 -4.494439907371998 5
      vertex -10.094677306711674 -4.494439907371998 0
      vertex -10.808530986309052 -2.2974241822957993 5
    endloop
  endfacet
  facet normal 0.9945218954155404 0.1045284628179375 0
    outer loop
      vertex -11.049999997019768 0 0
      vertex -11.049999997019768 0 5
      vertex -10.808530986309052 -2.2974241822957993 0
    endloop
  endfacet
  facet normal 0.9945218954155404 0.1045284628179375 0
    outer loop
      vertex -10.808530986309052 -2.2974241822957993 5
      vertex -10.808530986309052 -2.2974241822957993 0
      vertex -11.049999997019768 0 5
    endloop
  endfacet
  facet normal 0.9945218954155404 -0.1045284628179375 0
    outer loop
      vertex -10.808530986309052 2.2974241822957993 0
      vertex -10.808530986309052 2.2974241822957993 5
      vertex -11.049999997019768 0 0
    endloop
  endfacet
  facet normal 0.9945218954155404 -0.1045284628179375 0
    outer loop
      vertex -11.049999997019768 0 5
      vertex -11.049999997019768 0 0
      vertex -10.808530986309052 2.2974241822957993 5
    endloop
  endfacet
  facet normal 0.9510565166021779 -0.3090169934300232 0
    outer loop
      vertex -10.094677306711674 4.494439907371998 0
      vertex -10.094677306711674 4.494439907371998 5
      vertex -10.808530986309052 2.2974241822957993 0
    endloop
  endfacet
  facet normal 0.9510565166021779 -0.3090169934300232 0
    outer loop
      vertex -10.808530986309052 2.2974241822957993 5
      vertex -10.808530986309052 2.2974241822957993 0
      vertex -10.094677306711674 4.494439907371998 5
    endloop
  endfacet
  facet normal 0.8660254033862795 -0.5000000006896319 0
    outer loop
      vertex -8.939637787640095 6.495027035474777 0
      vertex -8.939637787640095 6.495027035474777 5
      vertex -10.094677306711674 4.494439907371998 0
    endloop
  endfacet
  facet normal 0.8660254033862795 -0.5000000006896319 0
    outer loop
      vertex -10.094677306711674 4.494439907371998 5
      vertex -10.094677306711674 4.494439907371998 0
      vertex -8.939637787640095 6.495027035474777 5
    endloop
  endfacet
  facet normal 0.743144825229239 -0.6691306066344628 0
    outer loop
      vertex -7.393893197178841 8.211750321090221 0
      vertex -7.393893197178841 8.211750321090221 5
      vertex -8.939637787640095 6.495027035474777 0
    endloop
  endfacet
  facet normal 0.743144825229239 -0.6691306066344628 0
    outer loop
      vertex -8.939637787640095 6.495027035474777 5
      vertex -8.939637787640095 6.495027035474777 0
      vertex -7.393893197178841 8.211750321090221 5
    endloop
  endfacet
  facet normal 0.5877852526327947 -0.8090169941276895 0
    outer loop
      vertex -5.524999998509884 9.56958071142435 0
      vertex -5.524999998509884 9.56958071142435 5
      vertex -7.393893197178841 8.211750321090221 0
    endloop
  endfacet
  facet normal 0.5877852526327947 -0.8090169941276895 0
    outer loop
      vertex -7.393893197178841 8.211750321090221 5
      vertex -7.393893197178841 8.211750321090221 0
      vertex -5.524999998509884 9.56958071142435 5
    endloop
  endfacet
  facet normal 0.40673664305944923 -0.9135454576498808 0
    outer loop
      vertex -3.414637789130211 10.50917450338602 0
      vertex -3.414637789130211 10.50917450338602 5
      vertex -5.524999998509884 9.56958071142435 0
    endloop
  endfacet
  facet normal 0.40673664305944923 -0.9135454576498808 0
    outer loop
      vertex -5.524999998509884 9.56958071142435 5
      vertex -5.524999998509884 9.56958071142435 0
      vertex -3.414637789130211 10.50917450338602 5
    endloop
  endfacet
  facet normal 0.2079116909923588 -0.9781476006966934 0
    outer loop
      vertex -1.155039519071579 10.989466942846775 0
      vertex -1.155039519071579 10.989466942846775 5
      vertex -3.414637789130211 10.50917450338602 0
    endloop
  endfacet
  facet normal 0.2079116909923588 -0.9781476006966934 0
    outer loop
      vertex -3.414637789130211 10.50917450338602 5
      vertex -3.414637789130211 10.50917450338602 0
      vertex -1.155039519071579 10.989466942846775 5
    endloop
  endfacet
  facet normal 0 -1 0
    outer loop
      vertex 1.155039519071579 10.989466942846775 0
      vertex 1.155039519071579 10.989466942846775 5
      vertex -1.155039519071579 10.989466942846775 0
    endloop
  endfacet
  facet normal 0 -1 0
    outer loop
      vertex -1.155039519071579 10.989466942846775 5
      vertex -1.155039519071579 10.989466942846775 0
      vertex 1.155039519071579 10.989466942846775 5
    endloop
  endfacet
  facet normal -0.2079116909923588 -0.9781476006966934 0
    outer loop
      vertex 3.414637789130211 10.50917450338602 0
      vertex 3.414637789130211 10.50917450338602 5
      vertex 1.155039519071579 10.989466942846775 0
    endloop
  endfacet
  facet normal -0.2079116909923588 -0.9781476006966934 0
    outer loop
      vertex 1.155039519071579 10.989466942846775 5
      vertex 1.155039519071579 10.989466942846775 0
      vertex 3.414637789130211 10.50917450338602 5
    endloop
  endfacet
  facet normal -0.40673664305944923 -0.9135454576498808 0
    outer loop
      vertex 5.524999998509884 9.56958071142435 0
      vertex 5.524999998509884 9.56958071142435 5
      vertex 3.414637789130211 10.50917450338602 0
    endloop
  endfacet
  facet normal -0.40673664305944923 -0.9135454576498808 0
    outer loop
      vertex 3.414637789130211 10.50917450338602 5
      vertex 3.414637789130211 10.50917450338602 0
      vertex 5.524999998509884 9.56958071142435 5
    endloop
  endfacet
  facet normal -0.5877852526327947 -0.8090169941276895 0
    outer loop
      vertex 7.393893197178841 8.211750321090221 0
      vertex 7.393893197178841 8.211750321090221 5
      vertex 5.524999998509884 9.56958071142435 0
    endloop
  endfacet
  facet normal -0.5877852526327947 -0.8090169941276895 0
    outer loop
      vertex 5.524999998509884 9.56958071142435 5
      vertex 5.524999998509884 9.56958071142435 0
      vertex 7.393893197178841 8.211750321090221 5
    endloop
  endfacet
  facet normal -0.743144825229239 -0.6691306066344628 0
    outer loop
      vertex 8.939637787640095 6.495027035474777 0
      vertex 8.939637787640095 6.495027035474777 5
      vertex 7.393893197178841 8.211750321090221 0
    endloop
  endfacet
  facet normal -0.743144825229239 -0.6691306066344628 0
    outer loop
      vertex 7.393893197178841 8.211750321090221 5
      vertex 7.393893197178841 8.211750321090221 0
      vertex 8.939637787640095 6.495027035474777 5
    endloop
  endfacet
  facet normal -0.8660254033862795 -0.5000000006896319 0
    outer loop
      vertex 10.094677306711674 4.494439907371998 0
      vertex 10.094677306711674 4.494439907371998 5
      vertex 8.939637787640095 6.495027035474777 0
    endloop
  endfacet
  facet normal -0.8660254033862795 -0.5000000006896319 0
    outer loop
      vertex 8.939637787640095 6.495027035474777 5
      vertex 8.939637787640095 6.495027035474777 0
      vertex 10.094677306711674 4.494439907371998 5
    endloop
  endfacet
  facet normal -0.9510565166021779 -0.3090169934300232 0
    outer loop
      vertex 10.808530986309052 2.2974241822957993 0
      vertex 10.808530986309052 2.2974241822957993 5
      vertex 10.094677306711674 4.494439907371998 0
    endloop
  endfacet
  facet normal -0.9510565166021779 -0.3090169934300232 0
    outer loop
      vertex 10.094677306711674 4.494439907371998 5
      vertex 10.094677306711674 4.494439907371998 0
      vertex 10.808530986309052 2.2974241822957993 5
    endloop
  endfacet
  facet normal -0.9945218954155404 -0.1045284628179375 0
    outer loop
      vertex 11.049999997019768 0 0
      vertex 11.049999997019768 0 5
      vertex 10.808530986309052 2.2974241822957993 0
    endloop
  endfacet
  facet normal -0.9945218954155404 -0.1045284628179375 0
    outer loop
      vertex 10.808530986309052 2.2974241822957993 5
      vertex 10.808530986309052 2.2974241822957993 0
      vertex 11.049999997019768 0 5
    endloop
  endfacet
  facet normal -0.9945218954155404 0.1045284628179375 0
    outer loop
      vertex 10.808530986309052 -2.2974241822957993 0
      vertex 10.808530986309052 -2.2974241822957993 5
      vertex 11.049999997019768 0 0
    endloop
  endfacet
  facet normal -0.9945218954155404 0.1045284628179375 0
    outer loop
      vertex 11.049999997019768 0 5
      vertex 11.049999997019768 0 0
      vertex 10.808530986309052 -2.2974241822957993 5
    endloop
  endfacet
  facet normal -0.9510565166021779 0.3090169934300232 0
    outer loop
      vertex 10.094677306711674 -4.494439907371998 0
      vertex 10.094677306711674 -4.494439907371998 5
      vertex 10.808530986309052 -2.2974241822957993 0
    endloop
  endfacet
  facet normal -0.9510565166021779 0.3090169934300232 0
    outer loop
      vertex 10.808530986309052 -2.2974241822957993 5
      vertex 10.808530986309052 -2.2974241822957993 0
      vertex 10.094677306711674 -4.494439907371998 5
    endloop
  endfacet
  facet normal -0.8660254033862795 0.5000000006896319 0
    outer loop
      vertex 8.939637787640095 -6.495027035474777 0
      vertex 8.939637787640095 -6.495027035474777 5
      vertex 10.094677306711674 -4.494439907371998 0
    endloop
  endfacet
  facet normal -0.8660254033862795 0.5000000006896319 0
    outer loop
      vertex 10.094677306711674 -4.494439907371998 5
      vertex 10.094677306711674 -4.494439907371998 0
      vertex 8.939637787640095 -6.495027035474777 5
    endloop
  endfacet
  facet normal -0.743144825229239 0.6691306066344628 0
    outer loop
      vertex 7.393893197178841 -8.211750321090221 0
      vertex 7.393893197178841 -8.211750321090221 5
      vertex 8.939637787640095 -6.495027035474777 0
    endloop
  endfacet
  facet normal -0.743144825229239 0.6691306066344628 0
    outer loop
      vertex 8.939637787640095 -6.495027035474777 5
      vertex 8.939637787640095 -6.495027035474777 0
      vertex 7.393893197178841 -8.211750321090221 5
    endloop
  endfacet
  facet normal -0.5877852526327947 0.8090169941276895 0
    outer loop
      vertex 5.524999998509884 -9.56958071142435 0
      vertex 5.524999998509884 -9.56958071142435 5
      vertex 7.393893197178841 -8.211750321090221 0
    endloop
  endfacet
  facet normal -0.5877852526327947 0.8090169941276895 0
    outer loop
      vertex 7.393893197178841 -8.211750321090221 5
      vertex 7.393893197178841 -8.211750321090221 0
      vertex 5.524999998509884 -9.56958071142435 5
    endloop
  endfacet
  facet normal -0.40673664305944923 0.9135454576498808 0
    outer loop
      vertex 3.414637789130211 -10.50917450338602 0
      vertex 3.414637789130211 -10.50917450338602 5
      vertex 5.524999998509884 -9.56958071142435 0
    endloop
  endfacet
  facet normal -0.40673664305944923 0.9135454576498808 0
    outer loop
      vertex 5.524999998509884 -9.56958071142435 5
      vertex 5.524999998509884 -9.56958071142435 0
      vertex 3.414637789130211 -10.50917450338602 5
    endloop
  endfacet
  facet normal -0.2079116909923588 0.9781476006966934 0
    outer loop
      vertex 1.155039519071579 -10.989466942846775 0
      vertex 1.155039519071579 -10.989466942846775 5
      vertex 3.414637789130211 -10.50917450338602 0
    endloop
  endfacet
  facet normal -0.2079116909923588 0.9781476006966934 0
    outer loop
      vertex 3.414637789130211 -10.50917450338602 5
      vertex 3.414637789130211 -10.50917450338602 0
      vertex 1.155039519071579 -10.989466942846775 5
    endloop
  endfacet
  facet normal 0 1 0
    outer loop
      vertex -1.155039519071579 -10.989466942846775 0
      vertex -1.155039519071579 -10.989466942846775 5
      vertex 1.155039519071579 -10.989466942846775 0
    endloop
  endfacet
  facet normal 0 1 0
    outer loop
      vertex 1.155039519071579 -10.989466942846775 5
      vertex 1.155039519071579 -10.989466942846775 0
      vertex -1.155039519071579 -10.989466942846775 5
    endloop
  endfacet
  facet normal 0 0 -1
    outer loop
      vertex 10.808530986309052 -2.2974241822957993 0
      vertex 11.049999997019768 0 0
      vertex 12.450000002980232 0 0
    endloop
  endfacet
  facet normal 0 0 -1
    outer loop
      vertex 10.808530986309052 -2.2974241822957993 0
      vertex 12.450000002980232 0 0
      vertex 12.177937626838684 -2.588500551879406 0
    endloop
  endfacet
  facet normal 0 0 -1
    outer loop
      vertex 10.094677306711674 -4.494439907371998 0
      vertex 10.808530986309052 -2.2974241822957993 0
      vertex 12.177937626838684 -2.588500551879406 0
    endloop
  endfacet
  facet normal 0 0 -1
    outer loop
      vertex 10.094677306711674 -4.494439907371998 0
      vertex 12.177937626838684 -2.588500551879406 0
      vertex 11.373640947043896 -5.063871204853058 0
    endloop
  endfacet
  facet normal 0 0 -1
    outer loop
      vertex 12.450000002980232 0 0
      vertex 11.049999997019768 0 0
      vertex 10.808530986309052 2.2974241822957993 0
    endloop
  endfacet
  facet normal 0 0 -1
    outer loop
      vertex 12.177937626838684 2.588500551879406 0
      vertex 12.450000002980232 0 0
      vertex 10.808530986309052 2.2974241822957993 0
    endloop
  endfacet
  facet normal 0 0 -1
    outer loop
      vertex 12.177937626838684 2.588500551879406 0
      vertex 10.808530986309052 2.2974241822957993 0
      vertex 10.094677306711674 4.494439907371998 0
    endloop
  endfacet
  facet normal 0 0 -1
    outer loop
      vertex 11.373640947043896 5.063871204853058 0
      vertex 12.177937626838684 2.588500551879406 0
      vertex 10.094677306711674 4.494439907371998 0
    endloop
  endfacet
  facet normal 0 0 -1
    outer loop
      vertex 8.939637787640095 -6.495027035474777 0
      vertex 10.094677306711674 -4.494439907371998 0
      vertex 11.373640947043896 -5.063871204853058 0
    endloop
  endfacet
  facet normal 0 0 -1
    outer loop
      vertex 8.939637787640095 -6.495027035474777 0
      vertex 11.373640947043896 -5.063871204853058 0
      vertex 10.072261579334736 -7.31792639195919 0
    endloop
  endfacet
  facet normal 0 0 -1
    outer loop
      vertex 7.393893197178841 -8.211750321090221 0
      vertex 8.939637787640095 -6.495027035474777 0
      vertex 10.072261579334736 -7.31792639195919 0
    endloop
  endfacet
  facet normal 0 0 -1
    outer loop
      vertex 7.393893197178841 -8.211750321090221 0
      vertex 10.072261579334736 -7.31792639195919 0
      vertex 8.330676048994064 -9.25215307623148 0
    endloop
  endfacet
  facet normal 0 0 -1
    outer loop
      vertex 5.524999998509884 -9.56958071142435 0
      vertex 7.393893197178841 -8.211750321090221 0
      vertex 8.330676048994064 -9.25215307623148 0
    endloop
  endfacet
  facet normal 0 0 -1
    outer loop
      vertex 5.524999998509884 -9.56958071142435 0
      vertex 8.330676048994064 -9.25215307623148 0
      vertex 6.225000001490116 -10.782016277313232 0
    endloop
  endfacet
  facet normal 0 0 -1
    outer loop
      vertex 3.414637789130211 -10.50917450338602 0
      vertex 5.524999998509884 -9.56958071142435 0
      vertex 6.225000001490116 -10.782016277313232 0
    endloop
  endfacet
  facet normal 0 0 -1
    outer loop
      vertex 3.414637789130211 -10.50917450338602 0
      vertex 6.225000001490116 -10.782016277313232 0
      vertex 3.8472615778446198 -11.840653628110886 0
    endloop
  endfacet
  facet normal 0 0 -1
    outer loop
      vertex 1.155039519071579 -10.989466942846775 0
      vertex 3.414637789130211 -10.50917450338602 0
      vertex 3.8472615778446198 -11.840653628110886 0
    endloop
  endfacet
  facet normal 0 0 -1
    outer loop
      vertex 1.155039519071579 -10.989466942846775 0
      vertex 3.8472615778446198 -11.840653628110886 0
      vertex 1.3013793677091599 -12.381797596812248 0
    endloop
  endfacet
  facet normal 0 0 -1
    outer loop
      vertex -1.155039519071579 -10.989466942846775 0
      vertex 1.155039519071579 -10.989466942846775 0
      vertex 1.3013793677091599 -12.381797596812248 0
    endloop
  endfacet
  facet normal 0 0 -1
    outer loop
      vertex -1.155039519071579 -10.989466942846775 0
      vertex 1.3013793677091599 -12.381797596812248 0
      vertex -1.3013793677091599 -12.381797596812248 0
    endloop
  endfacet
  facet normal 0 0 -1
    outer loop
      vertex -3.414637789130211 -10.50917450338602 0
      vertex -1.155039519071579 -10.989466942846775 0
      vertex -1.3013793677091599 -12.381797596812248 0
    endloop
  endfacet
  facet normal 0 0 -1
    outer loop
      vertex -3.414637789130211 -10.50917450338602 0
      vertex -1.3013793677091599 -12.381797596812248 0
      vertex -3.8472615778446198 -11.840653628110886 0
    endloop
  endfacet
  facet normal 0 0 -1
    outer loop
      vertex 11.373640947043896 5.063871204853058 0
      vertex 10.094677306711674 4.494439907371998 0
      vertex 8.939637787640095 6.495027035474777 0
    endloop
  endfacet
  facet normal 0 0 -1
    outer loop
      vertex 10.072261579334736 7.31792639195919 0
      vertex 11.373640947043896 5.063871204853058 0
      vertex 8.939637787640095 6.495027035474777 0
    endloop
  endfacet
  facet normal 0 0 -1
    outer loop
      vertex 10.072261579334736 7.31792639195919 0
      vertex 8.939637787640095 6.495027035474777 0
      vertex 7.393893197178841 8.211750321090221 0
    endloop
  endfacet
  facet normal 0 0 -1
    outer loop
      vertex 8.330676048994064 9.25215307623148 0
      vertex 10.072261579334736 7.31792639195919 0
      vertex 7.393893197178841 8.211750321090221 0
    endloop
  endfacet
  facet normal 0 0 -1
    outer loop
      vertex 8.330676048994064 9.25215307623148 0
      vertex 7.393893197178841 8.211750321090221 0
      vertex 5.524999998509884 9.56958071142435 0
    endloop
  endfacet
  facet normal 0 0 -1
    outer loop
      vertex 6.225000001490116 10.782016277313232 0
      vertex 8.330676048994064 9.25215307623148 0
      vertex 5.524999998509884 9.56958071142435 0
    endloop
  endfacet
  facet normal 0 0 -1
    outer loop
      vertex 6.225000001490116 10.782016277313232 0
      vertex 5.524999998509884 9.56958071142435 0
      vertex 3.414637789130211 10.50917450338602 0
    endloop
  endfacet
  facet normal 0 0 -1
    outer loop
      vertex 3.8472615778446198 11.840653628110886 0
      vertex 6.225000001490116 10.782016277313232 0
      vertex 3.414637789130211 10.50917450338602 0
    endloop
  endfacet
  facet normal 0 0 -1
    outer loop
      vertex 3.8472615778446198 11.840653628110886 0
      vertex 3.414637789130211 10.50917450338602 0
      vertex 1.155039519071579 10.989466942846775 0
    endloop
  endfacet
  facet normal 0 0 -1
    outer loop
      vertex 1.3013793677091599 12.381797596812248 0
      vertex 3.8472615778446198 11.840653628110886 0
      vertex 1.155039519071579 10.989466942846775 0
    endloop
  endfacet
  facet normal 0 0 -1
    outer loop
      vertex 1.3013793677091599 12.381797596812248 0
      vertex 1.155039519071579 10.989466942846775 0
      vertex -1.155039519071579 10.989466942846775 0
    endloop
  endfacet
  facet normal 0 0 -1
    outer loop
      vertex -1.3013793677091599 12.381797596812248 0
      vertex 1.3013793677091599 12.381797596812248 0
      vertex -1.155039519071579 10.989466942846775 0
    endloop
  endfacet
  facet normal 0 0 -1
    outer loop
      vertex -1.3013793677091599 12.381797596812248 0
      vertex -1.155039519071579 10.989466942846775 0
      vertex -3.414637789130211 10.50917450338602 0
    endloop
  endfacet
  facet normal 0 0 -1
    outer loop
      vertex -3.8472615778446198 11.840653628110886 0
      vertex -1.3013793677091599 12.381797596812248 0
      vertex -3.414637789130211 10.50917450338602 0
    endloop
  endfacet
  facet normal 0 0 -1
    outer loop
      vertex -5.524999998509884 -9.56958071142435 0
      vertex -3.414637789130211 -10.50917450338602 0
      vertex -3.8472615778446198 -11.840653628110886 0
    endloop
  endfacet
  facet normal 0 0 -1
    outer loop
      vertex -5.524999998509884 -9.56958071142435 0
      vertex -3.8472615778446198 -11.840653628110886 0
      vertex -6.225000001490116 -10.782016277313232 0
    endloop
  endfacet
  facet normal 0 0 -1
    outer loop
      vertex -7.393893197178841 -8.211750321090221 0
      vertex -5.524999998509884 -9.56958071142435 0
      vertex -6.225000001490116 -10.782016277313232 0
    endloop
  endfacet
  facet normal 0 0 -1
    outer loop
      vertex -7.393893197178841 -8.211750321090221 0
      vertex -6.225000001490116 -10.782016277313232 0
      vertex -8.330676048994064 -9.25215307623148 0
    endloop
  endfacet
  facet normal 0 0 -1
    outer loop
      vertex -8.939637787640095 -6.495027035474777 0
      vertex -7.393893197178841 -8.211750321090221 0
      vertex -8.330676048994064 -9.25215307623148 0
    endloop
  endfacet
  facet normal 0 0 -1
    outer loop
      vertex -8.939637787640095 -6.495027035474777 0
      vertex -8.330676048994064 -9.25215307623148 0
      vertex -10.072261579334736 -7.31792639195919 0
    endloop
  endfacet
  facet normal 0 0 -1
    outer loop
      vertex -10.094677306711674 -4.494439907371998 0
      vertex -8.939637787640095 -6.495027035474777 0
      vertex -10.072261579334736 -7.31792639195919 0
    endloop
  endfacet
  facet normal 0 0 -1
    outer loop
      vertex -10.094677306711674 -4.494439907371998 0
      vertex -10.072261579334736 -7.31792639195919 0
      vertex -11.373640947043896 -5.063871204853058 0
    endloop
  endfacet
  facet normal 0 0 -1
    outer loop
      vertex -10.808530986309052 -2.2974241822957993 0
      vertex -10.094677306711674 -4.494439907371998 0
      vertex -11.373640947043896 -5.063871204853058 0
    endloop
  endfacet
  facet normal 0 0 -1
    outer loop
      vertex -10.808530986309052 -2.2974241822957993 0
      vertex -11.373640947043896 -5.063871204853058 0
      vertex -12.177937626838684 -2.588500551879406 0
    endloop
  endfacet
  facet normal 0 0 -1
    outer loop
      vertex -11.049999997019768 0 0
      vertex -10.808530986309052 -2.2974241822957993 0
      vertex -12.177937626838684 -2.588500551879406 0
    endloop
  endfacet
  facet normal 0 0 -1
    outer loop
      vertex -11.049999997019768 0 0
      vertex -12.177937626838684 -2.588500551879406 0
      vertex -12.450000002980232 0 0
    endloop
  endfacet
  facet normal 0 0 -1
    outer loop
      vertex -10.808530986309052 2.2974241822957993 0
      vertex -11.049999997019768 0 0
      vertex -12.450000002980232 0 0
    endloop
  endfacet
  facet normal 0 0 -1
    outer loop
      vertex -10.808530986309052 2.2974241822957993 0
      vertex -12.450000002980232 0 0
      vertex -12.177937626838684 2.588500551879406 0
    endloop
  endfacet
  facet normal 0 0 -1
    outer loop
      vertex -10.094677306711674 4.494439907371998 0
      vertex -10.808530986309052 2.2974241822957993 0
      vertex -12.177937626838684 2.588500551879406 0
    endloop
  endfacet
  facet normal 0 0 -1
    outer loop
      vertex -10.094677306711674 4.494439907371998 0
      vertex -12.177937626838684 2.588500551879406 0
      vertex -11.373640947043896 5.063871204853058 0
    endloop
  endfacet
  facet normal 0 0 -1
    outer loop
      vertex -8.939637787640095 6.495027035474777 0
      vertex -10.094677306711674 4.494439907371998 0
      vertex -11.373640947043896 5.063871204853058 0
    endloop
  endfacet
  facet normal 0 0 -1
    outer loop
      vertex -8.939637787640095 6.495027035474777 0
      vertex -11.373640947043896 5.063871204853058 0
      vertex -10.072261579334736 7.31792639195919 0
    endloop
  endfacet
  facet normal 0 0 -1
    outer loop
      vertex -7.393893197178841 8.211750321090221 0
      vertex -8.939637787640095 6.495027035474777 0
      vertex -10.072261579334736 7.31792639195919 0
    endloop
  endfacet
  facet normal 0 0 -1
    outer loop
      vertex -7.393893197178841 8.211750321090221 0
      vertex -10.072261579334736 7.31792639195919 0
      vertex -8.330676048994064 9.25215307623148 0
    endloop
  endfacet
  facet normal 0 0 -1
    outer loop
      vertex -5.524999998509884 9.56958071142435 0
      vertex -7.393893197178841 8.211750321090221 0
      vertex -8.330676048994064 9.25215307623148 0
    endloop
  endfacet
  facet normal 0 0 -1
    outer loop
      vertex -5.524999998509884 9.56958071142435 0
      vertex -8.330676048994064 9.25215307623148 0
      vertex -6.225000001490116 10.782016277313232 0
    endloop
  endfacet
  facet normal 0 0 -1
    outer loop
      vertex -3.414637789130211 10.50917450338602 0
      vertex -5.524999998509884 9.56958071142435 0
      vertex -6.225000001490116 10.782016277313232 0
    endloop
  endfacet
  facet normal 0 0 -1
    outer loop
      vertex -3.414637789130211 10.50917450338602 0
      vertex -6.225000001490116 10.782016277313232 0
      vertex -3.8472615778446198 11.840653628110886 0
    endloop
  endfacet
  facet normal 0 0 1
    outer loop
      vertex 12.450000002980232 0 5
      vertex 11.049999997019768 0 5
      vertex 10.808530986309052 -2.2974241822957993 5
    endloop
  endfacet
  facet normal 0 0 1
    outer loop
      vertex 12.177937626838684 -2.588500551879406 5
      vertex 12.450000002980232 0 5
      vertex 10.808530986309052 -2.2974241822957993 5
    endloop
  endfacet
  facet normal 0 0 1
    outer loop
      vertex 12.177937626838684 -2.588500551879406 5
      vertex 10.808530986309052 -2.2974241822957993 5
      vertex 10.094677306711674 -4.494439907371998 5
    endloop
  endfacet
  facet normal 0 0 1
    outer loop
      vertex 11.373640947043896 -5.063871204853058 5
      vertex 12.177937626838684 -2.588500551879406 5
      vertex 10.094677306711674 -4.494439907371998 5
    endloop
  endfacet
  facet normal 0 0 1
    outer loop
      vertex 10.808530986309052 2.2974241822957993 5
      vertex 11.049999997019768 0 5
      vertex 12.450000002980232 0 5
    endloop
  endfacet
  facet normal 0 0 1
    outer loop
      vertex 10.808530986309052 2.2974241822957993 5
      vertex 12.450000002980232 0 5
      vertex 12.177937626838684 2.588500551879406 5
    endloop
  endfacet
  facet normal 0 0 1
    outer loop
      vertex 10.094677306711674 4.494439907371998 5
      vertex 10.808530986309052 2.2974241822957993 5
      vertex 12.177937626838684 2.588500551879406 5
    endloop
  endfacet
  facet normal 0 0 1
    outer loop
      vertex 10.094677306711674 4.494439907371998 5
      vertex 12.177937626838684 2.588500551879406 5
      vertex 11.373640947043896 5.063871204853058 5
    endloop
  endfacet
  facet normal 0 0 1
    outer loop
      vertex 11.373640947043896 -5.063871204853058 5
      vertex 10.094677306711674 -4.494439907371998 5
      vertex 8.939637787640095 -6.495027035474777 5
    endloop
  endfacet
  facet normal 0 0 1
    outer loop
      vertex 10.072261579334736 -7.31792639195919 5
      vertex 11.373640947043896 -5.063871204853058 5
      vertex 8.939637787640095 -6.495027035474777 5
    endloop
  endfacet
  facet normal 0 0 1
    outer loop
      vertex 10.072261579334736 -7.31792639195919 5
      vertex 8.939637787640095 -6.495027035474777 5
      vertex 7.393893197178841 -8.211750321090221 5
    endloop
  endfacet
  facet normal 0 0 1
    outer loop
      vertex 8.330676048994064 -9.25215307623148 5
      vertex 10.072261579334736 -7.31792639195919 5
      vertex 7.393893197178841 -8.211750321090221 5
    endloop
  endfacet
  facet normal 0 0 1
    outer loop
      vertex 8.330676048994064 -9.25215307623148 5
      vertex 7.393893197178841 -8.211750321090221 5
      vertex 5.524999998509884 -9.56958071142435 5
    endloop
  endfacet
  facet normal 0 0 1
    outer loop
      vertex 6.225000001490116 -10.782016277313232 5
      vertex 8.330676048994064 -9.25215307623148 5
      vertex 5.524999998509884 -9.56958071142435 5
    endloop
  endfacet
  facet normal 0 0 1
    outer loop
      vertex 6.225000001490116 -10.782016277313232 5
      vertex 5.524999998509884 -9.56958071142435 5
      vertex 3.414637789130211 -10.50917450338602 5
    endloop
  endfacet
  facet normal 0 0 1
    outer loop
      vertex 3.8472615778446198 -11.840653628110886 5
      vertex 6.225000001490116 -10.782016277313232 5
      vertex 3.414637789130211 -10.50917450338602 5
    endloop
  endfacet
  facet normal 0 0 1
    outer loop
      vertex 3.8472615778446198 -11.840653628110886 5
      vertex 3.414637789130211 -10.50917450338602 5
      vertex 1.155039519071579 -10.989466942846775 5
    endloop
  endfacet
  facet normal 0 0 1
    outer loop
      vertex 1.3013793677091599 -12.381797596812248 5
      vertex 3.8472615778446198 -11.840653628110886 5
      vertex 1.155039519071579 -10.989466942846775 5
    endloop
  endfacet
  facet normal 0 0 1
    outer loop
      vertex 1.3013793677091599 -12.381797596812248 5
      vertex 1.155039519071579 -10.989466942846775 5
      vertex -1.155039519071579 -10.989466942846775 5
    endloop
  endfacet
  facet normal 0 0 1
    outer loop
      vertex -1.3013793677091599 -12.381797596812248 5
      vertex 1.3013793677091599 -12.381797596812248 5
      vertex -1.155039519071579 -10.989466942846775 5
    endloop
  endfacet
  facet normal 0 0 1
    outer loop
      vertex -1.3013793677091599 -12.381797596812248 5
      vertex -1.155039519071579 -10.989466942846775 5
      vertex -3.414637789130211 -10.50917450338602 5
    endloop
  endfacet
  facet normal 0 0 1
    outer loop
      vertex -3.8472615778446198 -11.840653628110886 5
      vertex -1.3013793677091599 -12.381797596812248 5
      vertex -3.414637789130211 -10.50917450338602 5
    endloop
  endfacet
  facet normal 0 0 1
    outer loop
      vertex 8.939637787640095 6.495027035474777 5
      vertex 10.094677306711674 4.494439907371998 5
      vertex 11.373640947043896 5.063871204853058 5
    endloop
  endfacet
  facet normal 0 0 1
    outer loop
      vertex 8.939637787640095 6.495027035474777 5
      vertex 11.373640947043896 5.063871204853058 5
      vertex 10.072261579334736 7.31792639195919 5
    endloop
  endfacet
  facet normal 0 0 1
    outer loop
      vertex 7.393893197178841 8.211750321090221 5
      vertex 8.939637787640095 6.495027035474777 5
      vertex 10.072261579334736 7.31792639195919 5
    endloop
  endfacet
  facet normal 0 0 1
    outer loop
      vertex 7.393893197178841 8.211750321090221 5
      vertex 10.072261579334736 7.31792639195919 5
      vertex 8.330676048994064 9.25215307623148 5
    endloop
  endfacet
  facet normal 0 0 1
    outer loop
      vertex 5.524999998509884 9.56958071142435 5
      vertex 7.393893197178841 8.211750321090221 5
      vertex 8.330676048994064 9.25215307623148 5
    endloop
  endfacet
  facet normal 0 0 1
    outer loop
      vertex 5.524999998509884 9.56958071142435 5
      vertex 8.330676048994064 9.25215307623148 5
      vertex 6.225000001490116 10.782016277313232 5
    endloop
  endfacet
  facet normal 0 0 1
    outer loop
      vertex 3.414637789130211 10.50917450338602 5
      vertex 5.524999998509884 9.56958071142435 5
      vertex 6.225000001490116 10.782016277313232 5
    endloop
  endfacet
  facet normal 0 0 1
    outer loop
      vertex 3.414637789130211 10.50917450338602 5
      vertex 6.225000001490116 10.782016277313232 5
      vertex 3.8472615778446198 11.840653628110886 5
    endloop
  endfacet
  facet normal 0 0 1
    outer loop
      vertex 1.155039519071579 10.989466942846775 5
      vertex 3.414637789130211 10.50917450338602 5
      vertex 3.8472615778446198 11.840653628110886 5
    endloop
  endfacet
  facet normal 0 0 1
    outer loop
      vertex 1.155039519071579 10.989466942846775 5
      vertex 3.8472615778446198 11.840653628110886 5
      vertex 1.3013793677091599 12.381797596812248 5
    endloop
  endfacet
  facet normal 0 0 1
    outer loop
      vertex -1.155039519071579 10.989466942846775 5
      vertex 1.155039519071579 10.989466942846775 5
      vertex 1.3013793677091599 12.381797596812248 5
    endloop
  endfacet
  facet normal 0 0 1
    outer loop
      vertex -1.155039519071579 10.989466942846775 5
      vertex 1.3013793677091599 12.381797596812248 5
      vertex -1.3013793677091599 12.381797596812248 5
    endloop
  endfacet
  facet normal 0 0 1
    outer loop
      vertex -3.414637789130211 10.50917450338602 5
      vertex -1.155039519071579 10.989466942846775 5
      vertex -1.3013793677091599 12.381797596812248 5
    endloop
  endfacet
  facet normal 0 0 1
    outer loop
      vertex -3.414637789130211 10.50917450338602 5
      vertex -1.3013793677091599 12.381797596812248 5
      vertex -3.8472615778446198 11.840653628110886 5
    endloop
  endfacet
  facet normal 0 0 1
    outer loop
      vertex -3.8472615778446198 -11.840653628110886 5
      vertex -3.414637789130211 -10.50917450338602 5
      vertex -5.524999998509884 -9.56958071142435 5
    endloop
  endfacet
  facet normal 0 0 1
    outer loop
      vertex -6.225000001490116 -10.782016277313232 5
      vertex -3.8472615778446198 -11.840653628110886 5
      vertex -5.524999998509884 -9.56958071142435 5
    endloop
  endfacet
  facet normal 0 0 1
    outer loop
      vertex -6.225000001490116 -10.782016277313232 5
      vertex -5.524999998509884 -9.56958071142435 5
      vertex -7.393893197178841 -8.211750321090221 5
    endloop
  endfacet
  facet normal 0 0 1
    outer loop
      vertex -8.330676048994064 -9.25215307623148 5
      vertex -6.225000001490116 -10.782016277313232 5
      vertex -7.393893197178841 -8.211750321090221 5
    endloop
  endfacet
  facet normal 0 0 1
    outer loop
      vertex -8.330676048994064 -9.25215307623148 5
      vertex -7.393893197178841 -8.211750321090221 5
      vertex -8.939637787640095 -6.495027035474777 5
    endloop
  endfacet
  facet normal 0 0 1
    outer loop
      vertex -10.072261579334736 -7.31792639195919 5
      vertex -8.330676048994064 -9.25215307623148 5
      vertex -8.939637787640095 -6.495027035474777 5
    endloop
  endfacet
  facet normal 0 0 1
    outer loop
      vertex -10.072261579334736 -7.31792639195919 5
      vertex -8.939637787640095 -6.495027035474777 5
      vertex -10.094677306711674 -4.494439907371998 5
    endloop
  endfacet
  facet normal 0 0 1
    outer loop
      vertex -11.373640947043896 -5.063871204853058 5
      vertex -10.072261579334736 -7.31792639195919 5
      vertex -10.094677306711674 -4.494439907371998 5
    endloop
  endfacet
  facet normal 0 0 1
    outer loop
      vertex -11.373640947043896 -5.063871204853058 5
      vertex -10.094677306711674 -4.494439907371998 5
      vertex -10.808530986309052 -2.2974241822957993 5
    endloop
  endfacet
  facet normal 0 0 1
    outer loop
      vertex -12.177937626838684 -2.588500551879406 5
      vertex -11.373640947043896 -5.063871204853058 5
      vertex -10.808530986309052 -2.2974241822957993 5
    endloop
  endfacet
  facet normal 0 0 1
    outer loop
      vertex -12.177937626838684 -2.588500551879406 5
      vertex -10.808530986309052 -2.2974241822957993 5
      vertex -11.049999997019768 0 5
    endloop
  endfacet
  facet normal 0 0 1
    outer loop
      vertex -12.450000002980232 0 5
      vertex -12.177937626838684 -2.588500551879406 5
      vertex -11.049999997019768 0 5
    endloop
  endfacet
  facet normal 0 0 1
    outer loop
      vertex -12.450000002980232 0 5
      vertex -11.049999997019768 0 5
      vertex -10.808530986309052 2.2974241822957993 5
    endloop
  endfacet
  facet normal 0 0 1
    outer loop
      vertex -12.177937626838684 2.588500551879406 5
      vertex -12.450000002980232 0 5
      vertex -10.808530986309052 2.2974241822957993 5
    endloop
  endfacet
  facet normal 0 0 1
    outer loop
      vertex -12.177937626838684 2.588500551879406 5
      vertex -10.808530986309052 2.2974241822957993 5
      vertex -10.094677306711674 4.494439907371998 5
    endloop
  endfacet
  facet normal 0 0 1
    outer loop
      vertex -11.373640947043896 5.063871204853058 5
      vertex -12.177937626838684 2.588500551879406 5
      vertex -10.094677306711674 4.494439907371998 5
    endloop
  endfacet
  facet normal 0 0 1
    outer loop
      vertex -11.373640947043896 5.063871204853058 5
      vertex -10.094677306711674 4.494439907371998 5
      vertex -8.939637787640095 6.495027035474777 5
    endloop
  endfacet
  facet normal 0 0 1
    outer loop
      vertex -10.072261579334736 7.31792639195919 5
      vertex -11.373640947043896 5.063871204853058 5
      vertex -8.939637787640095 6.495027035474777 5
    endloop
  endfacet
  facet normal 0 0 1
    outer loop
      vertex -10.072261579334736 7.31792639195919 5
      vertex -8.939637787640095 6.495027035474777 5
      vertex -7.393893197178841 8.211750321090221 5
    endloop
  endfacet
  facet normal 0 0 1
    outer loop
      vertex -8.330676048994064 9.25215307623148 5
      vertex -10.072261579334736 7.31792639195919 5
      vertex -7.393893197178841 8.211750321090221 5
    endloop
  endfacet
  facet normal 0 0 1
    outer loop
      vertex -8.330676048994064 9.25215307623148 5
      vertex -7.393893197178841 8.211750321090221 5
      vertex -5.524999998509884 9.56958071142435 5
    endloop
  endfacet
  facet normal 0 0 1
    outer loop
      vertex -6.225000001490116 10.782016277313232 5
      vertex -8.330676048994064 9.25215307623148 5
      vertex -5.524999998509884 9.56958071142435 5
    endloop
  endfacet
  facet normal 0 0 1
    outer loop
      vertex -6.225000001490116 10.782016277313232 5
      vertex -5.524999998509884 9.56958071142435 5
      vertex -3.414637789130211 10.50917450338602 5
    endloop
  endfacet
  facet normal 0 0 1
    outer loop
      vertex -3.8472615778446198 11.840653628110886 5
      vertex -6.225000001490116 10.782016277313232 5
      vertex -3.414637789130211 10.50917450338602 5
    endloop
  endfacet
endsolid OpenSCAD_Model
